<svg width="300" height="90" viewBox="0 0 300 90" fill="none" xmlns="http://www.w3.org/2000/svg">
<mask id="mask0_103_501" style="mask-type:luminance" maskUnits="userSpaceOnUse" x="0" y="0" width="300" height="90">
<path d="M300 0H0V90H300V0Z" fill="white"/>
</mask>
<g mask="url(#mask0_103_501)">
<path d="M300 0H0V90H300V0Z" fill="white"/>
<path d="M76.4188 29.555L118.473 31.0225L148.68 52.8279L120.921 54.1325L76.4188 29.555Z" fill="#A338EF"/>
<path d="M78.6562 30.3192L118.118 31.6759L148.509 52.9752L120.787 54.1759L78.6562 30.3192Z" fill="url(#paint0_linear_103_501)"/>
<path d="M81.3199 32.7356L119.944 54.0944L46.6289 52.8715L81.3199 32.7356Z" fill="url(#paint1_linear_103_501)"/>
<path d="M199.859 11.4131L238.483 32.7718L221.207 29.0218H204.775L174.578 29.7555L199.859 11.4131Z" fill="url(#paint2_linear_103_501)"/>
<path d="M86.5153 42.5183H75.2793V49.0401H86.5153V42.5183Z" fill="url(#paint3_linear_103_501)"/>
<path d="M81.5444 42.5183H80.248V49.0401H81.5444V42.5183Z" fill="white"/>
<path d="M75.2793 45.4029V46.1554H86.5153V45.4029H75.2793Z" fill="white"/>
<path d="M75.9238 29.8672L80.7884 32.5764L46.8259 52.5115L36.6395 53.6321L75.9238 29.8672Z" fill="url(#paint4_linear_103_501)"/>
<path d="M200.842 10.8009L205.53 7.98917L253.156 35.2561L241.615 33.7056L200.842 10.8009Z" fill="url(#paint5_linear_103_501)"/>
<path d="M52.8086 48.9585L55.6176 47.3281V54.9096H53.5108V51.4042L52.8086 48.9585Z" fill="#5C5C5E"/>
<path d="M53.3691 35.3443H58.7062V40.1541L53.65 43.1705L53.3691 35.3443Z" fill="url(#paint6_linear_103_501)"/>
<path d="M58.707 35.3443H64.0441V36.9748L58.707 40.1541V35.3443Z" fill="url(#paint7_linear_103_501)"/>
<path d="M237.5 17.1196H231.742V22.0109L237.197 24.9456L237.5 17.1196Z" fill="url(#paint8_linear_103_501)"/>
<path d="M231.742 17.1196H225.984L225.562 19.0761L231.742 22.0109V17.1196Z" fill="url(#paint9_linear_103_501)"/>
<path fill-rule="evenodd" clip-rule="evenodd" d="M16.4713 57.0048L53.751 54.9037L53.5943 53.9988L16.4713 57.0048ZM51.1156 39.6843L50.9842 38.9254L50.9341 38.9283L51.1156 39.6843ZM13.3911 41.1212L11.5156 41.2308L11.5229 41.2725L13.3911 41.1212Z" fill="#5A5B5D"/>
<path d="M218.987 29.555L176.984 31.0225L146.815 52.8278L174.539 54.1324L218.987 29.555Z" fill="#A338EF"/>
<path d="M216.753 30.3192L177.34 31.6758L146.488 53.6414L174.674 54.1759L216.753 30.3192Z" fill="url(#paint10_linear_103_501)"/>
<path d="M214.092 32.7356L175.516 54.0943L248.74 52.8715L214.092 32.7356Z" fill="url(#paint11_linear_103_501)"/>
<path d="M208.901 42.5182H220.123V49.04H208.901V42.5182Z" fill="url(#paint12_linear_103_501)"/>
<path d="M213.865 42.5182H215.16V49.04H213.865V42.5182Z" fill="white"/>
<path d="M220.123 45.4028V46.1553H208.901V45.4028H220.123Z" fill="white"/>
<path d="M219.482 29.8672L214.624 32.5763L248.545 52.5115L258.718 53.6321L219.482 29.8672Z" fill="url(#paint13_linear_103_501)"/>
<path d="M242.568 48.9584L239.763 47.328V54.9095H241.867V51.4041L242.568 48.9584Z" fill="#5C5C5E"/>
<path fill-rule="evenodd" clip-rule="evenodd" d="M278.86 57.0048L241.625 54.9037L241.782 53.9987L278.86 57.0048ZM244.257 39.6883L244.389 38.9254L244.439 38.9283L244.257 39.6883ZM281.936 41.1212L283.809 41.2307L283.801 41.2724L281.936 41.1212Z" fill="#5A5B5D"/>
<path d="M122.473 30.1631L151.686 15.1631L203.933 7.17395L157.023 41.7392H138.088L122.473 30.1631Z" fill="url(#paint14_linear_103_501)"/>
<path d="M120.787 54.1305H174.579L174.62 54.7826H121.068L120.787 54.1305Z" fill="#B969F2"/>
<path d="M121.068 54.1305L146.96 52.8261L174.58 54.1305H174.439H121.068Z" fill="#A238EE"/>
<path d="M57.139 65.9804C56.6297 65.9897 56.2556 66.0547 56.0169 66.1743C55.7781 66.2851 55.6269 66.4517 55.5632 66.6734C55.4995 66.8859 55.4677 67.168 55.4677 67.5186V73.2149C55.4677 73.464 55.4597 73.6903 55.4438 73.8941C55.4438 74.0879 55.4279 74.2446 55.3961 74.3648C55.6667 74.3468 55.9611 74.3375 56.2795 74.3375C56.6138 74.3282 56.9003 74.3189 57.139 74.3096V75.0718H51.2654V74.4623C51.7907 74.4437 52.1648 74.3787 52.3876 74.2679C52.6264 74.157 52.7776 73.991 52.8413 73.7693C52.905 73.5475 52.9368 73.2654 52.9368 72.9236V67.1587C52.9368 66.955 52.9448 66.7611 52.9607 66.5765C52.9766 66.3826 52.9925 66.2161 53.0084 66.0773C52.7378 66.0866 52.4434 66.0959 52.125 66.1052C51.8066 66.1145 51.5201 66.1238 51.2654 66.1331V65.3709H57.139V65.9804ZM68.5176 75.2105C67.865 74.3422 67.2124 73.4732 66.5598 72.6049C65.9072 71.7366 65.2625 70.8636 64.6258 69.9854C64.4348 69.7271 64.2358 69.445 64.0289 69.1403C63.822 68.8356 63.615 68.5123 63.4081 68.1704C63.2012 67.8285 63.0022 67.482 62.8112 67.1308C62.8112 67.3711 62.8112 67.6021 62.8112 67.8239C62.8112 68.0456 62.8112 68.258 62.8112 68.4612C62.7953 68.7473 62.7793 69.0846 62.7634 69.4729C62.7475 69.8519 62.7236 70.2536 62.6918 70.6784C62.6759 71.1033 62.66 71.5288 62.644 71.9537C62.644 72.3692 62.6361 72.7715 62.6202 73.1592C62.6202 73.3809 62.6122 73.598 62.5963 73.8105C62.5804 74.0229 62.5565 74.2081 62.5247 74.3648C62.8112 74.3468 63.1136 74.3375 63.432 74.3375C63.7662 74.3282 64.0607 74.3189 64.3154 74.3096V75.0718H59.4685V74.4623C59.9142 74.453 60.2564 74.4019 60.4952 74.3096C60.7339 74.2174 60.8931 74.0786 60.9727 73.8941C61.0682 73.7089 61.1239 73.4825 61.1398 73.2149L61.4741 67.2278C61.49 67.0246 61.5059 66.8215 61.5219 66.6177C61.5378 66.4146 61.5537 66.2346 61.5696 66.0773C61.2831 66.0866 60.9807 66.0959 60.6623 66.1052C60.344 66.1052 60.0654 66.1098 59.8266 66.1191V65.3709H64.005L67.9446 70.8311C68.1356 71.0807 68.3266 71.3483 68.5176 71.635C68.7087 71.9119 68.8997 72.1893 69.0907 72.4662C69.2976 72.7343 69.4807 72.9886 69.6398 73.2289H69.6876C69.8627 72.9514 70.0617 72.6467 70.2845 72.3141C70.5073 71.9815 70.6984 71.6855 70.8575 71.4272C71.542 70.4294 72.2344 69.4311 72.9348 68.4333C73.6511 67.4356 74.3514 66.4146 75.0359 65.3709H79.2381V65.9804C78.8561 65.9804 78.5298 66.0222 78.2592 66.1052C78.0045 66.1789 77.8135 66.3176 77.6862 66.5208C77.5748 66.7245 77.535 67.0153 77.5668 67.3943L78.0921 73.367C78.1239 73.5522 78.1319 73.7321 78.116 73.9074C78.116 74.0833 78.108 74.2313 78.0921 74.3514C78.3786 74.3421 78.681 74.3375 78.9994 74.3375C79.3337 74.3282 79.6202 74.3189 79.8589 74.3096V75.0718H74.0808V74.4623C74.5425 74.453 74.8926 74.3973 75.1314 74.2957C75.3861 74.1941 75.5532 74.0368 75.6328 73.8244C75.7124 73.6027 75.7363 73.3165 75.7044 72.9654L75.3224 68.9325C75.3065 68.7938 75.2906 68.6324 75.2747 68.4473C75.2587 68.2534 75.2349 68.0549 75.203 67.8511C75.1871 67.6387 75.1712 67.4355 75.1553 67.2417C75.1075 67.3061 75.0598 67.3758 75.012 67.4495C74.9643 67.5139 74.9165 67.5882 74.8688 67.6712L69.7353 75.2105H68.5176ZM89.713 75.2935C88.0894 75.2935 86.6648 75.0903 85.4391 74.684C84.2135 74.2771 83.2664 73.7089 82.5978 72.9793C81.9293 72.2398 81.595 71.3808 81.595 70.4016C81.595 69.755 81.7621 69.1217 82.0964 68.503C82.4466 67.8836 82.9639 67.32 83.6484 66.8122C84.3488 66.3037 85.2163 65.902 86.2509 65.6066C87.3015 65.3013 88.5192 65.1492 89.904 65.1492C90.4293 65.1492 90.9784 65.1765 91.5515 65.2322C92.1245 65.2874 92.6816 65.3709 93.2228 65.4818C93.7799 65.5927 94.2813 65.7262 94.727 65.8835L94.6315 65.2461H96.1119V68.4333H95.0136C94.934 67.879 94.6634 67.4123 94.2018 67.0339C93.7561 66.6456 93.1751 66.3548 92.4588 66.1609C91.7584 65.9572 90.9784 65.8556 90.1189 65.8556C89.2753 65.8556 88.5033 65.9665 87.8029 66.1882C87.1184 66.4006 86.5215 66.7013 86.0121 67.089C85.5028 67.4681 85.1048 67.9162 84.8183 68.4333C84.5477 68.9511 84.4124 69.5054 84.4124 70.0963C84.4124 70.9466 84.6512 71.7041 85.1287 72.3693C85.6222 73.0251 86.3146 73.5429 87.206 73.9213C88.0974 74.3004 89.14 74.4896 90.3338 74.4896C90.7158 74.4896 91.1297 74.471 91.5753 74.4344C92.037 74.388 92.4906 74.3236 92.9363 74.2406C93.3979 74.1477 93.8118 74.0322 94.1779 73.8941V72.3414C94.1779 72.111 94.1779 71.8846 94.1779 71.6629C94.1938 71.4318 94.2018 71.2188 94.2018 71.025C93.9471 71.0342 93.6606 71.0435 93.3422 71.0528C93.0239 71.0621 92.7453 71.0714 92.5065 71.0807V70.318H98.213V70.928C97.831 70.928 97.5206 70.9791 97.2818 71.0807C97.059 71.1823 96.8918 71.3117 96.7804 71.4684C96.6849 71.6164 96.6212 71.7778 96.5894 71.9537C96.5576 72.1197 96.5416 72.277 96.5416 72.425V74.5865H95.9209C95.5866 74.5865 95.1966 74.619 94.7509 74.684C94.3052 74.7392 93.8038 74.8268 93.2467 74.947C92.7533 75.0485 92.1882 75.1321 91.5515 75.1966C90.9148 75.261 90.3019 75.2935 89.713 75.2935ZM106.223 75.0718V74.4623C106.748 74.4437 107.122 74.3787 107.345 74.2679C107.584 74.157 107.735 73.991 107.799 73.7693C107.863 73.5475 107.894 73.2654 107.894 72.9236V67.1587C107.894 66.955 107.902 66.7611 107.918 66.5765C107.934 66.3826 107.95 66.2161 107.966 66.0773C107.696 66.0866 107.401 66.0959 107.083 66.1052C106.764 66.1145 106.478 66.1238 106.223 66.1331V65.3709C107.194 65.3617 108.173 65.357 109.16 65.357C110.147 65.3477 111.142 65.3477 112.144 65.357C113.641 65.357 114.874 65.4586 115.845 65.6617C116.816 65.8556 117.541 66.147 118.018 66.5347C118.512 66.923 118.75 67.4123 118.734 68.0038C118.75 68.3735 118.623 68.7433 118.352 69.1124C118.082 69.4729 117.628 69.7962 116.991 70.0829C116.355 70.3691 115.479 70.5862 114.365 70.7342C114.683 70.845 114.97 70.9971 115.225 71.1915C115.479 71.3854 115.742 71.6025 116.012 71.8428L117.469 73.1453C117.771 73.4227 118.05 73.6584 118.305 73.8523C118.559 74.0461 118.846 74.1988 119.164 74.3096C119.483 74.4112 119.865 74.4623 120.31 74.4623V75.0718H116.991C116.578 74.8686 116.219 74.6515 115.917 74.4205C115.63 74.1802 115.32 73.912 114.986 73.6166L113.338 72.0645C113.131 71.8799 112.909 71.6809 112.67 71.4684C112.447 71.256 112.2 71.076 111.93 70.928C111.675 70.928 111.42 70.928 111.166 70.928C110.927 70.928 110.68 70.928 110.425 70.928V73.2149C110.425 73.464 110.417 73.6903 110.402 73.8941C110.402 74.0879 110.386 74.2446 110.354 74.3648C110.545 74.3555 110.744 74.3514 110.951 74.3514C111.174 74.3421 111.388 74.3329 111.595 74.3236C111.818 74.3143 112.009 74.3096 112.168 74.3096V75.0718H106.223ZM111.81 70.2489C112.686 70.2396 113.434 70.1613 114.055 70.0133C114.675 69.8565 115.153 69.6209 115.487 69.3069C115.821 68.983 115.989 68.5674 115.989 68.0595C115.989 67.6805 115.893 67.3618 115.702 67.103C115.511 66.8441 115.24 66.6363 114.89 66.4796C114.54 66.313 114.118 66.1975 113.625 66.1331C113.147 66.0588 112.63 66.0222 112.073 66.0222C111.564 66.0222 111.189 66.0773 110.951 66.1882C110.728 66.2991 110.585 66.461 110.521 66.6734C110.457 66.8859 110.425 67.1587 110.425 67.4913V70.2071C110.664 70.2164 110.887 70.2303 111.094 70.2489C111.317 70.2582 111.556 70.2582 111.81 70.2489ZM129.943 71.5653C129.943 71.1683 129.84 70.8816 129.633 70.7063C129.442 70.531 129.148 70.4248 128.75 70.3876C128.352 70.3412 127.858 70.3273 127.269 70.3459L125.884 70.3737V73.2562C125.884 73.5057 125.876 73.7275 125.861 73.9213C125.861 74.1065 125.845 74.2586 125.813 74.3787L129.92 74.3514C130.54 74.3421 131.097 74.2771 131.591 74.157C132.084 74.0276 132.474 73.8105 132.761 73.5057C133.047 73.201 133.191 72.7848 133.191 72.2584H134.241L134.098 75.0718H121.682V74.4623C122.207 74.4437 122.582 74.3787 122.804 74.2679C123.043 74.157 123.194 73.991 123.258 73.7693C123.322 73.5475 123.354 73.2654 123.354 72.9236V67.1587C123.354 66.955 123.361 66.7611 123.377 66.5765C123.393 66.3826 123.409 66.2161 123.425 66.0773C123.155 66.0866 122.86 66.0959 122.542 66.1052C122.223 66.1145 121.937 66.1238 121.682 66.1331V65.3709H133.334L133.453 67.879H132.403C132.403 67.3525 132.251 66.9509 131.949 66.6734C131.663 66.396 131.281 66.2114 130.803 66.1191C130.341 66.0268 129.84 65.985 129.299 65.9943L127.627 66.0222C127.134 66.0222 126.76 66.0727 126.505 66.1743C126.251 66.2671 126.083 66.4239 126.004 66.6456C125.924 66.858 125.884 67.1494 125.884 67.5186V69.6946H129.824L129.681 68.503H130.994V71.5653H129.943ZM135.221 75.0718V74.4484C135.699 74.4484 136.065 74.3741 136.32 74.2266C136.574 74.0786 136.789 73.8801 136.964 73.6305C137.139 73.3717 137.33 73.0855 137.537 72.7715L142.36 65.1074H143.315L148.544 72.8824C148.672 73.0576 148.815 73.2979 148.974 73.6027C149.133 73.8987 149.205 74.1524 149.189 74.3648C149.46 74.3468 149.722 74.3375 149.977 74.3375C150.247 74.3282 150.502 74.3189 150.741 74.3096V75.0718H144.939V74.4623C145.496 74.453 145.862 74.3834 146.037 74.2539C146.228 74.1158 146.3 73.9492 146.252 73.7553C146.22 73.5615 146.141 73.367 146.013 73.1732L145.297 72.0506L139.447 72.1336L138.755 73.3397C138.659 73.5243 138.556 73.6996 138.445 73.8662C138.333 74.0322 138.222 74.1941 138.11 74.3514C138.397 74.3329 138.699 74.3236 139.018 74.3236C139.352 74.3143 139.646 74.305 139.901 74.2957V75.0718H135.221ZM139.877 71.3854H144.891L143.387 69.0434C143.196 68.7386 143.013 68.438 142.838 68.1425C142.663 67.8378 142.504 67.5464 142.36 67.2695H142.336C142.209 67.5006 142.066 67.7542 141.907 68.0317C141.747 68.3085 141.564 68.6092 141.357 68.9325L139.877 71.3854ZM151.831 75.0718V74.4623C152.356 74.4437 152.73 74.3787 152.953 74.2679C153.192 74.157 153.343 73.991 153.407 73.7693C153.47 73.5475 153.502 73.2654 153.502 72.9236V67.1587C153.502 66.955 153.51 66.7611 153.526 66.5765C153.542 66.3826 153.558 66.2161 153.574 66.0773C153.303 66.0866 153.009 66.0959 152.69 66.1052C152.372 66.1145 152.085 66.1238 151.831 66.1331V65.3709H157.704V65.9804C157.195 65.9897 156.821 66.0547 156.582 66.1743C156.343 66.2851 156.192 66.4517 156.129 66.6734C156.065 66.8859 156.033 67.168 156.033 67.5186V73.2562C156.033 73.5057 156.025 73.7275 156.009 73.9213C156.009 74.1065 155.993 74.2586 155.961 74.3787L159.997 74.3514C160.983 74.3421 161.74 74.157 162.265 73.7965C162.79 73.4274 163.053 72.8452 163.053 72.0506H164.127L163.984 75.0718H151.831ZM180.378 71.5653C180.378 71.1683 180.274 70.8816 180.067 70.7063C179.876 70.531 179.582 70.4248 179.184 70.3876C178.786 70.3412 178.292 70.3273 177.704 70.3459L176.319 70.3737V73.2562C176.319 73.5057 176.311 73.7275 176.295 73.9213C176.295 74.1065 176.279 74.2586 176.247 74.3787L180.354 74.3514C180.975 74.3421 181.532 74.2771 182.025 74.157C182.519 74.0276 182.909 73.8105 183.195 73.5057C183.482 73.201 183.625 72.7848 183.625 72.2584H184.675L184.532 75.0718H172.116V74.4623C172.642 74.4437 173.016 74.3787 173.239 74.2679C173.477 74.157 173.629 73.991 173.692 73.7693C173.756 73.5475 173.788 73.2654 173.788 72.9236V67.1587C173.788 66.955 173.796 66.7611 173.812 66.5765C173.828 66.3826 173.843 66.2161 173.859 66.0773C173.589 66.0866 173.294 66.0959 172.976 66.1052C172.658 66.1145 172.371 66.1238 172.116 66.1331V65.3709H183.768L183.887 67.879H182.837C182.837 67.3525 182.686 66.9509 182.383 66.6734C182.097 66.396 181.715 66.2114 181.237 66.1191C180.776 66.0268 180.274 65.985 179.733 65.9943L178.062 66.0222C177.568 66.0222 177.194 66.0727 176.939 66.1743C176.685 66.2671 176.518 66.4239 176.438 66.6456C176.358 66.858 176.319 67.1494 176.319 67.5186V69.6946H180.258L180.115 68.503H181.428V71.5653H180.378ZM196.471 68.3642C196.392 67.8929 196.185 67.4681 195.851 67.089C195.516 66.7106 195.055 66.4099 194.466 66.1882C193.877 65.9572 193.145 65.8463 192.269 65.8556C191.378 65.8556 190.67 65.999 190.144 66.2851C189.619 66.5719 189.356 66.9184 189.356 67.3247C189.356 67.6851 189.531 67.9899 189.882 68.2395C190.232 68.4798 190.701 68.6968 191.29 68.8907C191.895 69.0846 192.572 69.279 193.32 69.4729C193.925 69.6209 194.537 69.7869 195.158 69.9721C195.779 70.1566 196.344 70.3691 196.854 70.6094C197.363 70.8404 197.769 71.1219 198.071 71.4545C198.374 71.7778 198.525 72.1615 198.525 72.6049C198.525 73.1221 198.294 73.5841 197.832 73.991C197.371 74.3973 196.71 74.7159 195.851 74.947C195.007 75.178 193.98 75.2935 192.771 75.2935C192.086 75.2935 191.362 75.2337 190.598 75.1135C189.85 74.9934 189.165 74.8222 188.545 74.6004L188.664 75.1826H187.207L187.112 72.1336H188.258C188.385 72.9375 188.879 73.5475 189.738 73.9631C190.614 74.3694 191.656 74.5732 192.866 74.5732C193.471 74.5732 194.02 74.5082 194.514 74.3787C195.007 74.2493 195.397 74.0647 195.684 73.8244C195.97 73.5841 196.113 73.3026 196.113 72.9793C196.113 72.6003 195.914 72.2816 195.516 72.0227C195.134 71.7644 194.641 71.5427 194.036 71.3576C193.447 71.173 192.826 70.9971 192.174 70.8311C191.521 70.6645 190.884 70.4892 190.264 70.3046C189.659 70.1195 189.11 69.907 188.616 69.6667C188.123 69.4264 187.733 69.1449 187.446 68.8216C187.16 68.489 187.016 68.1007 187.016 67.6573C187.016 67.399 187.096 67.1262 187.255 66.84C187.414 66.5533 187.685 66.2805 188.067 66.0222C188.449 65.7633 188.966 65.5555 189.619 65.3982C190.287 65.2322 191.123 65.1492 192.126 65.1492C192.731 65.1492 193.407 65.1997 194.155 65.3013C194.92 65.4029 195.612 65.5834 196.233 65.8417L196.137 65.2601H197.57V68.3642H196.471ZM213.236 68.3642C213.22 67.8378 213.117 67.399 212.926 67.0478C212.735 66.6967 212.417 66.4331 211.971 66.2578C211.541 66.082 210.944 65.999 210.18 66.0083H208.461L208.437 73.2149C208.437 73.464 208.429 73.6903 208.413 73.8941C208.413 74.0879 208.397 74.2446 208.365 74.3648C208.668 74.3468 208.994 74.3375 209.344 74.3375C209.711 74.3282 210.037 74.3189 210.323 74.3096V75.0718H204.259V74.4623C204.784 74.4437 205.158 74.3787 205.381 74.2679C205.604 74.157 205.747 73.991 205.811 73.7693C205.874 73.5382 205.906 73.2562 205.906 72.9236V66.0222L203.901 66.0361C202.93 66.0361 202.221 66.2253 201.776 66.6044C201.33 66.9828 201.107 67.5696 201.107 68.3642H199.985L200.128 65.3709H214.215L214.358 68.3642H213.236ZM213.962 75.0718V74.4484C214.44 74.4484 214.806 74.3741 215.06 74.2266C215.315 74.0786 215.53 73.8801 215.705 73.6305C215.88 73.3717 216.071 73.0855 216.278 72.7715L221.101 65.1074H222.056L227.285 72.8824C227.412 73.0576 227.556 73.2979 227.715 73.6027C227.874 73.8987 227.946 74.1524 227.93 74.3648C228.2 74.3468 228.463 74.3375 228.718 74.3375C228.988 74.3282 229.243 74.3189 229.482 74.3096V75.0718H223.68V74.4623C224.237 74.453 224.603 74.3834 224.778 74.2539C224.969 74.1158 225.041 73.9492 224.993 73.7553C224.961 73.5615 224.882 73.367 224.754 73.1732L224.038 72.0506L218.188 72.1336L217.496 73.3397C217.4 73.5243 217.297 73.6996 217.185 73.8662C217.074 74.0322 216.963 74.1941 216.851 74.3514C217.138 74.3329 217.44 74.3236 217.758 74.3236C218.093 74.3143 218.387 74.305 218.642 74.2957V75.0718H213.962ZM218.618 71.3854H223.632L222.128 69.0434C221.937 68.7386 221.754 68.438 221.579 68.1425C221.404 67.8378 221.244 67.5464 221.101 67.2695H221.077C220.95 67.5006 220.807 67.7542 220.647 68.0317C220.488 68.3085 220.305 68.6092 220.098 68.9325L218.618 71.3854ZM242.219 68.3642C242.203 67.8378 242.1 67.399 241.909 67.0478C241.718 66.6967 241.399 66.4331 240.954 66.2578C240.524 66.082 239.927 65.999 239.163 66.0083H237.444L237.42 73.2149C237.42 73.464 237.412 73.6903 237.396 73.8941C237.396 74.0879 237.38 74.2446 237.348 74.3648C237.651 74.3468 237.977 74.3375 238.327 74.3375C238.693 74.3282 239.02 74.3189 239.306 74.3096V75.0718H233.242V74.4623C233.767 74.4437 234.141 74.3787 234.364 74.2679C234.587 74.157 234.73 73.991 234.793 73.7693C234.857 73.5382 234.889 73.2562 234.889 72.9236V66.0222L232.883 66.0361C231.912 66.0361 231.204 66.2253 230.758 66.6044C230.313 66.9828 230.09 67.5696 230.09 68.3642H228.968L229.111 65.3709H243.198L243.341 68.3642H242.219ZM253.359 71.5653C253.359 71.1683 253.256 70.8816 253.049 70.7063C252.858 70.531 252.563 70.4248 252.165 70.3876C251.767 70.3412 251.274 70.3273 250.685 70.3459L249.3 70.3737V73.2562C249.3 73.5057 249.292 73.7275 249.276 73.9213C249.276 74.1065 249.26 74.2586 249.229 74.3787L253.335 74.3514C253.956 74.3421 254.513 74.2771 255.007 74.157C255.5 74.0276 255.89 73.8105 256.177 73.5057C256.463 73.201 256.606 72.7848 256.606 72.2584H257.657L257.514 75.0718H245.098V74.4623C245.623 74.4437 245.997 74.3787 246.22 74.2679C246.459 74.157 246.61 73.991 246.674 73.7693C246.738 73.5475 246.769 73.2654 246.769 72.9236V67.1587C246.769 66.955 246.777 66.7611 246.793 66.5765C246.809 66.3826 246.825 66.2161 246.841 66.0773C246.57 66.0866 246.276 66.0959 245.958 66.1052C245.639 66.1145 245.353 66.1238 245.098 66.1331V65.3709H256.75L256.869 67.879H255.819C255.819 67.3525 255.667 66.9509 255.365 66.6734C255.078 66.396 254.696 66.2114 254.219 66.1191C253.757 66.0268 253.256 65.985 252.715 65.9943L251.043 66.0222C250.55 66.0222 250.176 66.0727 249.921 66.1743C249.666 66.2671 249.499 66.4239 249.42 66.6456C249.34 66.858 249.3 67.1494 249.3 67.5186V69.6946H253.24L253.097 68.503H254.41V71.5653H253.359Z" fill="black"/>
<path d="M124.719 30.4076L151.825 16.2228L201.825 7.90759L156.32 40.7609H138.904L131.882 35.7066L124.719 30.4076Z" fill="url(#paint15_linear_103_501)"/>
<path fill-rule="evenodd" clip-rule="evenodd" d="M-15.1699 67.5499C31.4708 62.4827 88.1964 59.5109 149.379 59.5109C211.075 59.5109 268.239 62.5326 315.1 67.6782C270.292 61.1552 212.547 57.2283 149.524 57.2283C86.9134 57.2283 29.5121 61.1042 -15.1699 67.5499Z" fill="#616163"/>
</g>
<defs>
<linearGradient id="paint0_linear_103_501" x1="81.6087" y1="27.7825" x2="122.468" y2="75.3454" gradientUnits="userSpaceOnUse">
<stop stop-color="#B969F2" stop-opacity="0.75"/>
<stop offset="1" stop-color="#A238EE"/>
</linearGradient>
<linearGradient id="paint1_linear_103_501" x1="83.2862" y1="32.7356" x2="83.2862" y2="54.0944" gradientUnits="userSpaceOnUse">
<stop stop-color="#D9D9D9"/>
<stop offset="1" stop-color="white" stop-opacity="0"/>
</linearGradient>
<linearGradient id="paint2_linear_103_501" x1="201.825" y1="11.4131" x2="201.825" y2="32.7718" gradientUnits="userSpaceOnUse">
<stop stop-color="#D9D9D9"/>
<stop offset="1" stop-color="white" stop-opacity="0"/>
</linearGradient>
<linearGradient id="paint3_linear_103_501" x1="80.8973" y1="42.5183" x2="80.8973" y2="49.04" gradientUnits="userSpaceOnUse">
<stop stop-color="#A339EE"/>
<stop offset="1" stop-color="#A238EE" stop-opacity="0.76"/>
</linearGradient>
<linearGradient id="paint4_linear_103_501" x1="78.3561" y1="31.2217" x2="58.9542" y2="66.0596" gradientUnits="userSpaceOnUse">
<stop stop-color="#AAABAD"/>
<stop offset="1" stop-color="#565658"/>
</linearGradient>
<linearGradient id="paint5_linear_103_501" x1="203.186" y1="9.39504" x2="224.075" y2="44.2251" gradientUnits="userSpaceOnUse">
<stop stop-color="#AAABAD"/>
<stop offset="1" stop-color="#565658"/>
</linearGradient>
<linearGradient id="paint6_linear_103_501" x1="56.0377" y1="35.3443" x2="56.0377" y2="43.1705" gradientUnits="userSpaceOnUse">
<stop stop-color="#ADAEB0"/>
<stop offset="1" stop-color="#626264"/>
</linearGradient>
<linearGradient id="paint7_linear_103_501" x1="61.3756" y1="35.3443" x2="61.3756" y2="38.922" gradientUnits="userSpaceOnUse">
<stop stop-color="#818284"/>
<stop offset="1" stop-color="#4A4A4A"/>
</linearGradient>
<linearGradient id="paint8_linear_103_501" x1="234.621" y1="17.1196" x2="234.621" y2="24.9456" gradientUnits="userSpaceOnUse">
<stop stop-color="#ADAEB0"/>
<stop offset="1" stop-color="#626264"/>
</linearGradient>
<linearGradient id="paint9_linear_103_501" x1="228.863" y1="17.1196" x2="228.863" y2="20.6972" gradientUnits="userSpaceOnUse">
<stop stop-color="#818284"/>
<stop offset="1" stop-color="#4A4A4A"/>
</linearGradient>
<linearGradient id="paint10_linear_103_501" x1="213.804" y1="27.7825" x2="172.937" y2="75.2956" gradientUnits="userSpaceOnUse">
<stop stop-color="#B468EA"/>
<stop offset="1" stop-color="#D9D9D9" stop-opacity="0"/>
</linearGradient>
<linearGradient id="paint11_linear_103_501" x1="212.128" y1="32.7356" x2="212.128" y2="54.0943" gradientUnits="userSpaceOnUse">
<stop stop-color="#D9D9D9"/>
<stop offset="1" stop-color="white" stop-opacity="0"/>
</linearGradient>
<linearGradient id="paint12_linear_103_501" x1="214.512" y1="42.5182" x2="214.512" y2="49.04" gradientUnits="userSpaceOnUse">
<stop stop-color="#A338EF"/>
<stop offset="1" stop-color="#A338EF" stop-opacity="0.75"/>
</linearGradient>
<linearGradient id="paint13_linear_103_501" x1="217.053" y1="31.2218" x2="236.467" y2="66.0391" gradientUnits="userSpaceOnUse">
<stop stop-color="#AAABAD"/>
<stop offset="1" stop-color="#565658"/>
</linearGradient>
<linearGradient id="paint14_linear_103_501" x1="203.091" y1="7.17395" x2="168.825" y2="61.2367" gradientUnits="userSpaceOnUse">
<stop stop-color="#A237EE"/>
<stop offset="0.0001" stop-color="#A237EE"/>
<stop offset="0.992271" stop-color="#A237EE" stop-opacity="0.75"/>
</linearGradient>
<linearGradient id="paint15_linear_103_501" x1="200.842" y1="7.98915" x2="160.918" y2="58.2483" gradientUnits="userSpaceOnUse">
<stop stop-color="#A742EF" stop-opacity="0.73"/>
<stop offset="1" stop-color="#A237EE"/>
</linearGradient>
</defs>
</svg>
