<svg width="191" height="151" viewBox="0 0 191 151" fill="none" xmlns="http://www.w3.org/2000/svg">
<g clip-path="url(#clip0_3_247)">
<mask id="mask0_3_247" style="mask-type:luminance" maskUnits="userSpaceOnUse" x="0" y="0" width="191" height="151">
<path d="M191 0H0V151H191V0Z" fill="white"/>
</mask>
<g mask="url(#mask0_3_247)">
<mask id="mask1_3_247" style="mask-type:luminance" maskUnits="userSpaceOnUse" x="0" y="0" width="191" height="151">
<path d="M191 0H0V150.253H191V0Z" fill="white"/>
</mask>
<g mask="url(#mask1_3_247)">
<path d="M142.112 73.8533H130.231V54.6616C130.231 54.1235 130.453 53.6073 130.847 53.2262C131.246 52.8428 131.779 52.6292 132.332 52.6303H140.011C140.565 52.6294 141.097 52.843 141.496 53.2262C141.89 53.6073 142.112 54.1235 142.112 54.6616V73.8533Z" fill="white"/>
<path d="M77.6088 82.3422C89.7955 82.3422 99.6757 72.4603 99.6757 60.2711C99.6757 48.0819 89.7955 38.2 77.6088 38.2C65.4222 38.2 55.5428 48.0819 55.5428 60.2711C55.5428 72.4603 65.4222 82.3422 77.6088 82.3422Z" fill="#F5F4F8"/>
<path d="M136.646 49.2356C134.661 49.1736 132.894 47.3773 132.88 45.4071C132.866 43.4368 134.607 41.6151 136.59 41.5251C141.006 41.3248 144.623 36.6211 143.651 32.341C142.679 28.0609 137.379 25.3504 133.303 27.0498C130.175 28.3529 127.016 24.2468 127.809 20.9743C128.602 17.7019 131.6 15.5041 134.375 13.5686C137.15 11.6332 140.118 9.36155 140.788 6.06192C141.458 2.76228 138.029 -1.19014 135.008 0.339556" fill="#D5D2DC"/>
<path d="M146.875 149.404H60.1183C59.5801 149.404 59.0648 149.191 58.6845 148.814C58.3042 148.438 58.0903 147.925 58.0895 147.391V88.6002C58.0903 88.0663 58.3042 87.5544 58.6845 87.1766C59.0648 86.7989 59.5801 86.5875 60.1183 86.5867H146.875C147.413 86.5875 147.928 86.7997 148.309 87.1766C148.497 87.3631 148.646 87.5848 148.748 87.8291C148.85 88.0734 148.903 88.3355 148.904 88.6002V147.391C148.903 147.656 148.85 147.918 148.748 148.162C148.646 148.406 148.497 148.628 148.309 148.814C147.928 149.191 147.413 149.404 146.875 149.404Z" fill="white"/>
<path d="M146.875 149.404H60.1183C59.5801 149.404 59.0648 149.191 58.6845 148.814C58.3042 148.438 58.0903 147.925 58.0895 147.391V88.6002C58.0903 88.0663 58.3042 87.5544 58.6845 87.1766C59.0648 86.7989 59.5801 86.5875 60.1183 86.5867H146.875C147.413 86.5875 147.928 86.7997 148.309 87.1766C148.497 87.3631 148.646 87.5848 148.748 87.8291C148.85 88.0734 148.903 88.3355 148.904 88.6002V147.391C148.903 147.656 148.85 147.918 148.748 148.162C148.646 148.406 148.497 148.628 148.309 148.814C147.928 149.191 147.413 149.404 146.875 149.404ZM60.1183 87.034C59.7005 87.0344 59.2998 87.1994 59.0029 87.4933C58.8566 87.6382 58.7404 87.8106 58.661 88.0006C58.5816 88.1905 58.5406 88.3943 58.5402 88.6002V147.391C58.5406 147.597 58.5816 147.801 58.661 147.991C58.7404 148.181 58.8566 148.353 59.0029 148.498C59.2998 148.792 59.7005 148.957 60.1183 148.957H146.875C147.293 148.957 147.693 148.792 147.99 148.498C148.286 148.204 148.452 147.806 148.453 147.391V88.6002C148.452 88.1851 148.286 87.787 147.99 87.4933C147.693 87.1994 147.293 87.0344 146.875 87.034H60.1183Z" fill="#454056"/>
<path d="M113.259 149.404H93.7386V115.9C93.7394 115.105 94.0442 114.343 94.5857 113.781C94.8498 113.505 95.1669 113.284 95.5179 113.133C95.869 112.983 96.2469 112.904 96.629 112.902H110.367C111.134 112.903 111.869 113.219 112.411 113.781C112.956 114.351 113.26 115.11 113.259 115.9V149.404ZM139.566 123.089H122.603C121.927 123.088 121.278 122.813 120.799 122.323C120.321 121.833 120.052 121.17 120.052 120.479V106.175C120.052 105.483 120.322 104.819 120.799 104.33C121.034 104.089 121.314 103.897 121.624 103.766C121.934 103.634 122.267 103.566 122.603 103.564H139.566C140.242 103.565 140.891 103.84 141.37 104.33C141.848 104.82 142.117 105.483 142.118 106.175V120.479C142.117 121.17 141.848 121.834 141.37 122.323C141.135 122.564 140.855 122.756 140.545 122.888C140.235 123.019 139.902 123.088 139.566 123.089Z" fill="#A237EE" fill-opacity="0.75"/>
<path d="M121.157 104.679L121.157 104.679C120.772 105.074 120.552 105.612 120.552 106.175V120.479C120.552 121.04 120.771 121.578 121.157 121.973L121.157 104.679ZM121.157 104.679C121.346 104.485 121.571 104.331 121.819 104.227L121.82 104.226M121.157 104.679L121.82 104.226M121.82 104.226C122.068 104.121 122.334 104.066 122.605 104.064H139.566C140.105 104.065 140.626 104.284 141.012 104.679C141.398 105.075 141.617 105.613 141.618 106.176V120.478C141.617 121.041 141.398 121.579 141.012 121.973L141.012 121.974C140.823 122.168 140.598 122.322 140.35 122.428C140.1 122.533 139.833 122.588 139.565 122.589C139.565 122.589 139.565 122.589 139.564 122.589L122.604 122.589M121.82 104.226L122.604 122.589M122.604 122.589C122.064 122.588 121.543 122.369 121.157 121.974L122.604 122.589ZM94.9457 114.128L94.9469 114.127C95.1649 113.899 95.4262 113.717 95.7147 113.593C96.0046 113.469 96.316 113.404 96.6304 113.402H110.366C110.995 113.403 111.601 113.661 112.05 114.127C112.506 114.604 112.76 115.239 112.759 115.899V115.9V148.904H94.2386V115.9C94.2393 115.232 94.4957 114.595 94.9457 114.128Z" stroke="#A237EE" stroke-opacity="0.75"/>
<path d="M85.2454 123.089H68.2829C67.6064 123.088 66.9578 122.813 66.479 122.323C66.0003 121.833 65.7312 121.17 65.7303 120.479V106.175C65.7312 105.483 66.0003 104.819 66.479 104.33C66.9578 103.841 67.6064 103.565 68.2829 103.564H85.2454C85.922 103.565 86.5705 103.84 87.0493 104.33C87.5281 104.82 87.7963 105.483 87.7972 106.175V120.479C87.7963 121.17 87.5272 121.834 87.0493 122.323C86.5714 122.812 85.922 123.088 85.2454 123.089Z" fill="#A237EE" fill-opacity="0.75"/>
<path d="M142.112 73.8533H130.231V54.6616C130.231 54.1235 130.453 53.6073 130.847 53.2262C131.246 52.8428 131.779 52.6292 132.332 52.6303H140.011C140.565 52.6294 141.097 52.843 141.496 53.2262C141.89 53.6073 142.112 54.1235 142.112 54.6616V73.8533ZM130.697 73.4017H141.646V54.6616C141.645 54.2431 141.472 53.8416 141.166 53.5454C140.856 53.2474 140.442 53.0813 140.011 53.0819H132.332C131.902 53.0811 131.488 53.2472 131.177 53.5454C130.871 53.8416 130.698 54.2431 130.697 54.6616V73.4017Z" fill="#454056"/>
<path d="M51.3018 87.7242V78.6419C51.3018 77.9441 51.4868 77.2591 51.8374 76.6555C52.188 76.052 52.6922 75.552 53.2983 75.2056L103.83 46.3638C104.457 46.0055 105.171 45.8256 105.893 45.8434C106.615 45.8612 107.319 46.0751 107.929 46.4631L153.011 75.1784C153.573 75.5359 154.035 76.029 154.356 76.6122C154.676 77.1955 154.844 77.8501 154.844 78.5154V87.725C154.844 88.7743 154.426 89.781 153.683 90.523C152.939 91.2656 151.931 91.6827 150.881 91.6825H55.2618C54.211 91.6827 53.2031 91.2656 52.4596 90.523C51.716 89.781 51.2992 88.7743 51.2992 87.725L51.3018 87.7242Z" fill="#F9F8FA"/>
<path fill-rule="evenodd" clip-rule="evenodd" d="M51.896 78.6402V87.7225C51.8961 88.1642 51.9833 88.6015 52.1526 89.0095C52.3218 89.4175 52.5698 89.7881 52.8824 90.1002C53.514 90.7309 54.3713 91.0858 55.2652 91.0858H150.884C151.778 91.0858 152.634 90.7309 153.267 90.1002C153.579 89.7881 153.827 89.4175 153.997 89.0095C154.166 88.6015 154.253 88.1642 154.253 87.7225V78.5129C154.253 77.9475 154.111 77.3915 153.838 76.8957C153.566 76.4 153.174 75.9806 152.696 75.6767L107.613 46.9614C107.095 46.6312 106.497 46.4495 105.883 46.4342C105.269 46.4189 104.662 46.5726 104.128 46.8765L53.5963 75.7192C53.0802 76.0138 52.6523 76.439 52.3544 76.9518C52.0566 77.4643 51.8996 78.0466 51.8994 78.6394L51.896 78.6402ZM51.3018 78.6402V87.7225C51.3018 88.7717 51.7194 89.7785 52.4622 90.5204C53.2058 91.2633 54.2141 91.6804 55.2652 91.68H150.884C151.935 91.6801 152.943 91.2631 153.686 90.5204C154.43 89.7785 154.848 88.7717 154.848 87.7225V78.5129C154.847 77.8475 154.68 77.1929 154.359 76.6097C154.039 76.0264 153.576 75.5334 153.015 75.1759L107.932 46.4605C107.322 46.0726 106.619 45.8587 105.896 45.8408C105.174 45.823 104.461 46.003 103.834 46.3612L53.3017 75.2031C52.6948 75.5494 52.1914 76.0494 51.8408 76.653C51.4902 77.2565 51.3051 77.9416 51.3051 78.6394L51.3018 78.6402Z" fill="#454056"/>
<path opacity="0.2" d="M150.882 88.0468H55.2627C54.2117 88.0468 53.2033 87.6249 52.4605 86.8736C51.716 86.1195 51.299 85.1022 51.3001 84.0425V87.6783C51.299 88.738 51.716 89.7553 52.4605 90.5094C53.2041 91.2606 54.2117 91.6825 55.2627 91.6825H150.882C151.932 91.6825 152.941 91.2606 153.684 90.5094C154.429 89.7555 154.846 88.7381 154.845 87.6783V84.0425C154.846 85.1023 154.429 86.1197 153.684 86.8736C152.941 87.6249 151.932 88.0468 150.882 88.0468Z" fill="#1F1B2D"/>
<path d="M171.594 112.902C171.539 112.902 171.486 112.879 171.444 112.839L165.949 107.381C165.928 107.36 165.91 107.334 165.897 107.305C165.885 107.276 165.878 107.245 165.877 107.213C165.876 107.181 165.88 107.149 165.89 107.12C165.9 107.09 165.915 107.062 165.935 107.039C165.954 107.016 165.978 106.997 166.005 106.983C166.032 106.969 166.06 106.962 166.089 106.96C166.118 106.958 166.148 106.963 166.176 106.974C166.204 106.985 166.229 107.002 166.25 107.024L171.745 112.482C171.778 112.514 171.802 112.558 171.812 112.605C171.822 112.653 171.819 112.702 171.802 112.748C171.787 112.792 171.759 112.831 171.721 112.86C171.684 112.888 171.639 112.902 171.594 112.902Z" fill="#454056"/>
<path d="M159.09 118.827C159.09 111.786 164.791 95.0756 171.821 95.0756C178.852 95.0756 184.552 111.786 184.552 118.827C184.552 122.208 183.211 125.451 180.823 127.844C178.436 130.235 175.197 131.578 171.821 131.578C168.445 131.578 165.207 130.235 162.819 127.844C160.431 125.451 159.09 122.208 159.09 118.827Z" fill="#F5F4F8"/>
<path d="M171.391 149.404C171.279 149.404 171.171 149.381 171.091 149.338C171.011 149.296 170.966 149.239 170.966 149.179V103.789C170.966 103.73 171.011 103.672 171.091 103.631C171.171 103.589 171.279 103.564 171.391 103.564C171.503 103.564 171.611 103.588 171.691 103.631C171.771 103.673 171.815 103.73 171.815 103.789V149.179C171.815 149.239 171.77 149.297 171.691 149.338C171.612 149.38 171.504 149.404 171.391 149.404Z" fill="#454056"/>
<path d="M171.221 123.938C171.173 123.938 171.125 123.926 171.083 123.903C171.044 123.881 171.012 123.849 170.991 123.809C170.971 123.771 170.966 123.728 170.975 123.687C170.983 123.647 171.006 123.608 171.04 123.579L178.178 117.213C178.2 117.193 178.228 117.176 178.258 117.164C178.289 117.153 178.32 117.148 178.353 117.147C178.386 117.146 178.419 117.151 178.449 117.161C178.48 117.171 178.508 117.186 178.532 117.205C178.555 117.224 178.574 117.247 178.588 117.273C178.601 117.299 178.608 117.326 178.609 117.354C178.61 117.382 178.605 117.41 178.593 117.436C178.581 117.462 178.563 117.485 178.54 117.506L171.402 123.872C171.379 123.893 171.351 123.909 171.319 123.921C171.288 123.932 171.254 123.938 171.221 123.938Z" fill="#454056"/>
<path d="M162.808 149.354L162.873 149.401H180.847C181.2 147.954 181.324 146.505 180.798 145.247C180.048 143.455 177.829 142.336 176.066 143.106C175.647 143.294 175.283 143.586 175.009 143.955C174.319 142.703 173.083 141.76 171.656 141.761C169.868 141.763 168.381 143.245 167.897 144.957C167.116 143.62 165.572 142.686 164.064 143.088C161.542 143.76 160.745 147.736 162.808 149.354Z" fill="#D5D2DC"/>
<path d="M4.62219 104.702C4.62219 94.5484 12.9821 70.4552 23.2935 70.4552C33.605 70.4552 41.9648 94.5484 41.9648 104.702C41.9648 109.578 39.9979 114.254 36.4963 117.702C32.9946 121.15 28.2451 123.086 23.2935 123.086C18.3419 123.086 13.5924 121.149 10.0907 117.702C6.58907 114.255 4.62219 109.578 4.62219 104.702Z" fill="#F5F4F8"/>
<path d="M23.7188 149.404C23.6059 149.404 23.4981 149.381 23.4183 149.339C23.3385 149.297 23.2944 149.241 23.2944 149.183V83.4127C23.2944 83.3541 23.3393 83.2972 23.4183 83.2556C23.4972 83.214 23.6059 83.1911 23.7188 83.1911C23.8317 83.1911 23.9395 83.2149 24.0193 83.2556C24.0991 83.2964 24.1432 83.3532 24.1432 83.4127V149.183C24.1432 149.241 24.0983 149.297 24.0193 149.339C23.9404 149.381 23.8317 149.404 23.7188 149.404Z" fill="#454056"/>
<path d="M23.5261 112.053C23.4811 112.053 23.4361 112.041 23.3988 112.017C23.3614 111.993 23.3317 111.959 23.313 111.919C23.2944 111.879 23.2901 111.835 23.2978 111.793C23.3054 111.75 23.3266 111.711 23.358 111.68L33.0795 101.935C33.1227 101.892 33.1808 101.868 33.2418 101.866C33.3028 101.865 33.362 101.887 33.4072 101.928C33.4291 101.947 33.4467 101.971 33.459 101.998C33.4713 102.024 33.4779 102.053 33.4785 102.082C33.4793 102.141 33.4573 102.198 33.4148 102.24L23.6933 111.985C23.6721 112.007 23.6458 112.024 23.6169 112.036C23.5881 112.047 23.5573 112.053 23.5261 112.053ZM23.8979 95.9244C23.8368 95.9244 23.7782 95.9024 23.7332 95.8616L14.8853 87.8549C14.8377 87.8116 14.8089 87.7513 14.8063 87.6877C14.8038 87.624 14.8267 87.5612 14.87 87.5137C14.9133 87.4661 14.9744 87.4389 15.0389 87.4356C15.1035 87.4326 15.1666 87.4552 15.2146 87.4984L24.0626 95.5051C24.099 95.5376 24.1245 95.5806 24.1356 95.6282C24.1466 95.6757 24.1433 95.725 24.1254 95.7708C24.1076 95.8166 24.0762 95.8548 24.0354 95.882C23.9947 95.9092 23.9472 95.9244 23.8979 95.9244Z" fill="#454056"/>
<path d="M6.17823 150.151L6.30896 150.251H43.0395C43.7594 147.196 44.0132 144.138 42.9385 141.482C41.4071 137.697 36.874 135.336 33.2697 136.961C32.4157 137.356 31.672 137.972 31.1084 138.752C29.7001 136.111 27.1738 134.119 24.2578 134.122C20.6042 134.124 17.5669 137.254 16.5754 140.87C14.9795 138.047 11.8259 136.074 8.74442 136.923C3.58997 138.343 1.96095 146.737 6.17823 150.151Z" fill="#D5D2DC"/>
<path d="M191 149.175L0 149.536L0.000848889 149.985L191.001 149.624L191 149.175Z" fill="#454056"/>
<path d="M163.167 96.7733C172.913 96.7733 180.813 88.871 180.813 79.1235C180.813 69.3761 172.913 61.4738 163.167 61.4738C153.422 61.4738 145.521 69.3761 145.521 79.1235C145.521 88.871 153.422 96.7733 163.167 96.7733Z" fill="#1F1B2D"/>
<path d="M174.281 77.3848H164.913V68.0148H161.427V77.3848H152.06V80.8713H161.427V90.2413H164.913V80.8713H174.281V77.3848Z" fill="white"/>
</g>
</g>
</g>
<defs>
<clipPath id="clip0_3_247">
<rect width="191" height="151" fill="white"/>
</clipPath>
</defs>
</svg>
