<svg width="156" height="150" viewBox="0 0 156 150" fill="none" xmlns="http://www.w3.org/2000/svg">
<g clip-path="url(#clip0_1_116)">
<path d="M110.524 71.7112H131.03V38.784H110.524V71.7112Z" fill="white"/>
<path d="M105.266 54.2475H109.492V51.7793H105.266V54.2475Z" fill="#D5D2DC"/>
<path d="M25.9541 92.865C26.0876 94.8799 25.8285 96.9015 25.191 98.8178C24.8925 99.7054 24.5179 100.566 24.0713 101.389C23.5114 102.459 22.9339 103.476 22.9586 104.681C23.0693 104.767 22.6733 104.724 22.6699 104.606C19.614 102.541 15.5385 101.892 13.3099 98.7247C12.2404 97.227 11.805 95.3936 11.6625 93.5854C11.5091 91.6166 11.5946 89.4551 12.2438 87.5756C12.7894 85.9883 13.8589 84.4976 15.453 83.8196C17.0471 83.1416 19.1434 83.349 20.7589 83.991C24.2355 85.3785 25.7153 89.3696 25.9541 92.865Z" fill="#EFECF3"/>
<path d="M25.7693 116.659L24.7853 112.2C24.129 109.29 23.4338 106.387 22.6459 103.512C22.1713 101.793 21.6613 100.085 21.1163 98.3869C21.2687 97.3554 21.4757 96.3327 21.7365 95.3231C22.0931 94.1066 22.578 92.937 23.0344 91.7561C23.0629 91.6849 22.9451 91.635 22.9095 91.7029C22.0609 93.3184 20.9591 95.3873 20.7701 97.3631C20.1319 95.4443 19.44 93.543 18.6806 91.6564C18.6967 90.1197 18.8627 88.5884 19.1764 87.084C19.1768 87.0712 19.1726 87.0589 19.1648 87.0487C19.1569 87.0386 19.1464 87.0311 19.134 87.0277C19.1216 87.0249 19.1087 87.0261 19.0971 87.0311C19.0854 87.0361 19.0756 87.0446 19.0691 87.0555C18.6945 88.3641 18.4849 89.7145 18.4451 91.0751C17.8678 89.6601 17.2434 88.2647 16.5731 86.8913C16.5124 86.7664 16.3414 86.8736 16.3913 86.9947C17.4146 89.4022 18.3454 91.8491 19.2083 94.3241C17.8343 92.9351 16.2094 91.8191 14.4195 91.0357C14.3411 91.0001 14.2733 91.1107 14.3516 91.1501C16.2928 92.1677 18.0356 93.5255 19.497 95.1589C20.1099 96.9696 20.69 98.7913 21.237 100.623C19.3935 98.5185 16.7584 97.017 14.1664 96.1219C14.0771 96.0934 14.0415 96.2288 14.127 96.261C17.1188 97.4201 19.365 99.3428 21.5366 101.611L22.164 103.837L24.3461 112.318L25.3088 116.409C25.644 117.879 25.8791 119.42 26.3535 120.846C26.4 120.985 26.6389 120.971 26.6209 120.81C26.4075 119.413 26.123 118.027 25.7685 116.659H25.7693ZM22.509 89.7825C21.8726 90.6105 21.4061 91.5559 21.1361 92.5646C21.1361 92.5894 21.1684 92.6107 21.1789 92.5822C21.6114 91.6473 22.1008 90.7397 22.6444 89.8646C22.7014 89.7754 22.5694 89.7041 22.509 89.7825ZM16.2915 96.0075C15.4409 95.4451 14.4948 95.0426 13.4996 94.8199C13.4749 94.8199 13.4531 94.8517 13.4996 94.8626C13.9455 95.0906 14.4195 95.262 14.8725 95.4761L16.2274 96.15C16.2446 96.1522 16.2623 96.1485 16.2773 96.1399C16.2924 96.1312 16.3044 96.118 16.3115 96.1021C16.3187 96.0862 16.3206 96.0684 16.317 96.0514C16.3133 96.0344 16.3044 96.0191 16.2915 96.0075ZM15.3038 87.8662C15.0319 87.6256 14.7382 87.4106 14.4266 87.2243C14.4161 87.2179 14.4038 87.2156 14.3918 87.2179C14.3798 87.2201 14.3689 87.2269 14.3614 87.2366C14.3539 87.2464 14.3501 87.2584 14.3509 87.2704C14.3516 87.2824 14.3569 87.294 14.3659 87.3026C14.6329 87.5483 14.9217 87.7692 15.2288 87.9626C15.2858 88.0016 15.3608 87.909 15.3038 87.8662Z" fill="#D5D2DC"/>
<path d="M35.8342 99.045L28.8206 100.771C28.6211 100.825 25.0125 93.1957 26.5706 89.4007C27.9968 85.884 31.0991 83.3378 34.704 82.2675C36.3727 81.7718 38.4157 81.3795 40.1415 81.8325C41.6749 82.2356 42.7196 83.5444 43.1651 85.0211C43.7715 87.0255 43.4505 89.376 43.0012 91.3804C42.6307 93.2659 41.778 95.0228 40.5266 96.4808C39.2467 97.8859 37.6526 98.5852 35.8342 99.045Z" fill="#EFECF3"/>
<path d="M39.4537 92.0738C37.968 92.73 36.432 93.2666 34.8611 93.6788C33.8142 93.9169 32.7895 94.2438 31.7981 94.656C32.868 92.5163 34.0125 90.4331 35.2282 88.3718C36.7365 87.9971 38.3306 87.3836 39.5074 86.3741C39.5179 86.3632 39.5239 86.3486 39.5246 86.3333C39.5254 86.3179 39.5205 86.3025 39.5111 86.2905C39.5017 86.2785 39.4879 86.2703 39.4729 86.2673C39.4579 86.2643 39.4421 86.2669 39.4286 86.2744C38.1664 87.0949 36.7901 87.5621 35.4067 88.0969L36.405 86.4349C36.4976 86.2815 36.2872 86.1176 36.1766 86.2639C34.8956 87.9795 33.7282 89.7773 32.6824 91.6459C32.4997 89.9655 32.4866 88.2712 32.643 86.5882C32.6407 86.5811 32.6362 86.5748 32.6299 86.5706C32.6235 86.5665 32.6164 86.5639 32.6089 86.5639C32.6014 86.5639 32.5939 86.5661 32.5879 86.5706C32.5819 86.5751 32.5774 86.5811 32.5747 86.5882C32.215 88.4154 32.1608 90.2896 32.4143 92.1345C31.5438 93.7192 30.7432 95.3413 30.0146 96.996C29.79 95.9794 29.487 94.9736 29.3014 93.9499C29.0025 92.4829 28.9436 90.9773 29.1266 89.4915C29.1266 89.4488 29.0696 89.4416 29.0587 89.4915C28.5418 92.2351 28.7658 95.0669 29.7079 97.695C29.283 98.6835 28.88 99.6812 28.4992 100.688C26.5611 105.788 25.3209 111.127 24.8122 116.559C24.8134 116.583 24.8227 116.605 24.8392 116.623C24.8556 116.64 24.8775 116.651 24.9011 116.653C24.9247 116.656 24.9484 116.65 24.9682 116.637C24.9881 116.623 25.002 116.603 25.0084 116.58C25.8209 111.225 27.1794 105.966 29.0625 100.887C29.8114 98.9003 30.6562 96.9638 31.5585 95.0948C32.9385 94.7381 34.3147 94.2495 35.6734 93.8393C37.0271 93.4879 38.3145 92.9179 39.4852 92.1521C39.4901 92.1454 39.4931 92.1375 39.4942 92.1289C39.4954 92.1203 39.4939 92.112 39.4909 92.1041C39.4875 92.0964 39.4824 92.0896 39.4759 92.0843C39.4691 92.0786 39.4612 92.0753 39.453 92.0738H39.4537ZM41.6887 89.985C40.2622 90.4309 38.8965 91.08 37.467 91.5368C37.3991 91.5581 37.4314 91.6612 37.4992 91.6507C39.0041 91.401 40.5015 90.9979 41.7424 90.0671C41.7889 90.0315 41.7386 89.9674 41.6887 89.985ZM30.2902 86.49C30.2902 86.415 30.201 86.3689 30.1762 86.4435C29.7375 87.7313 29.4169 89.1008 29.7412 90.4455C29.7412 90.4991 29.8376 90.5025 29.841 90.4455C29.9621 89.1045 29.9374 87.7991 30.2902 86.49ZM36.2385 83.7113C35.7551 84.3371 35.5031 85.1108 35.5252 85.9013C35.5252 85.9511 35.6036 85.9834 35.6179 85.9226C35.8174 85.1843 36.1313 84.5175 36.3881 83.8043C36.3908 83.7855 36.3877 83.7667 36.3799 83.7499C36.372 83.733 36.3592 83.7188 36.3435 83.709C36.3277 83.6991 36.3093 83.6941 36.2906 83.6948C36.2719 83.6951 36.2539 83.7008 36.2385 83.7113Z" fill="#D5D2DC"/>
<path d="M43.1813 104.37C42.5036 106.51 40.8956 109.488 38.3494 109.513C36.6986 109.513 35.037 109.331 33.3791 109.31C31.5964 109.281 29.8136 109.285 28.0627 109.392C27.9165 109.392 28.2765 104.081 32.5343 101.492C33.7286 100.778 35.187 100.536 36.5422 100.243C38.0929 99.8768 39.6844 99.7114 41.2774 99.7511C42.2542 99.7901 43.0601 99.9971 43.4168 101C43.7734 102.002 43.5056 103.346 43.1813 104.37Z" fill="#EFECF3"/>
<path d="M41.3475 101.681L38.2313 102.584C38.5013 102.289 38.787 102.009 39.087 101.746C39.5363 101.389 40.0249 101.079 40.5131 100.754C40.5525 100.725 40.5131 100.647 40.4775 100.668C39.4691 101.087 38.598 101.78 37.9639 102.669C36.6694 103.087 35.3858 103.547 34.152 104.053C33.299 104.402 32.4821 104.833 31.713 105.341C31.9586 104.802 32.2535 104.288 32.5939 103.803C33.1609 103.069 33.924 102.662 34.6654 102.141C34.677 102.131 34.6845 102.117 34.6868 102.101C34.689 102.085 34.686 102.07 34.6781 102.057C34.6703 102.043 34.6579 102.033 34.6433 102.028C34.6286 102.022 34.6126 102.022 34.5979 102.027C33.824 102.364 33.1291 102.859 32.5575 103.48C31.9858 104.101 31.55 104.834 31.278 105.633C30.3884 106.267 29.5769 107.003 28.8604 107.827C26.04 111.037 23.8219 115.288 23.8148 119.636C23.8148 119.739 23.9786 119.772 24.0004 119.661C24.7245 115.399 26.5817 111.41 29.3775 108.112C29.5765 107.88 29.7834 107.656 29.9978 107.438C30.7697 107.333 31.5472 107.275 32.3261 107.263C33.2318 107.263 34.134 107.399 35.0363 107.47C36.5231 107.591 38.1671 107.609 39.5078 106.86C39.5681 106.828 39.5291 106.725 39.4613 106.75C36.4733 107.838 33.3356 106.457 30.3368 107.106C31.6177 105.885 33.1179 104.917 34.7584 104.253L35.0329 104.142C36.9514 104.374 38.9801 104.874 40.8484 104.249C40.902 104.232 40.8806 104.146 40.8233 104.164C39.0158 104.613 37.2863 104.046 35.5035 103.957C37.4434 103.201 39.4256 102.598 41.3689 101.849C41.5223 101.785 41.526 101.635 41.3475 101.681ZM42.2138 103.571C41.2864 103.691 40.3534 103.761 39.4185 103.782C39.3971 103.782 39.39 103.817 39.4185 103.821C40.3577 103.994 41.3252 103.933 42.2351 103.642C42.2449 103.639 42.2528 103.633 42.2573 103.624C42.2618 103.616 42.2629 103.605 42.2603 103.596C42.2573 103.587 42.2508 103.579 42.2421 103.574C42.2334 103.569 42.2232 103.568 42.2138 103.571ZM35.8841 101.726C35.3678 101.958 34.8994 102.284 34.5041 102.689C34.4936 102.699 34.487 102.712 34.4857 102.726C34.4844 102.74 34.4884 102.754 34.4969 102.765C34.5055 102.776 34.518 102.784 34.5319 102.786C34.5458 102.789 34.5601 102.786 34.572 102.778L35.2853 102.29C35.5179 102.162 35.7429 102.02 35.9591 101.865C36.0304 101.812 35.9629 101.701 35.8841 101.726Z" fill="#D5D2DC"/>
<path d="M20.8447 108.649C20.8732 108.72 20.7735 108.784 20.7341 108.709C20.7262 108.721 20.7165 108.73 20.7049 108.738C20.6932 108.745 20.6801 108.75 20.6666 108.752C18.9554 109.161 17.2202 109.464 15.4714 109.658C14.0629 109.783 12.4369 109.861 11.1926 109.044C9.52012 107.935 8.42212 104.971 9.32437 103.092C10.3939 100.855 13.6031 102.068 15.2291 102.864C17.7199 104.076 19.707 106.123 20.8451 108.649H20.8447Z" fill="#EFECF3"/>
<path d="M22.0924 109.68C21.1533 108.775 20.1109 107.984 18.9866 107.322C18.1739 106.04 17.0968 104.945 15.8273 104.112C15.7665 104.073 15.7133 104.169 15.7703 104.212C16.7779 105.018 17.6704 105.957 18.423 107.005C17.1695 106.316 15.8668 105.72 14.5256 105.222C14.0464 104.333 13.3192 103.604 12.4327 103.121C12.4327 103.121 12.3934 103.139 12.4114 103.149C13.1436 103.706 13.7817 104.377 14.3014 105.136C13.5095 104.842 12.7118 104.564 11.9089 104.301C11.8376 104.277 11.8125 104.387 11.8804 104.412C13.3065 104.969 14.7577 105.557 16.1591 106.231C14.4395 106.506 12.6872 106.506 10.9676 106.231C10.9582 106.23 10.9485 106.232 10.9402 106.237C10.932 106.242 10.9264 106.25 10.9237 106.259C10.9211 106.268 10.9219 106.278 10.926 106.287C10.9301 106.295 10.9373 106.302 10.9463 106.306C12.7418 106.836 14.6482 106.864 16.4587 106.388C17.357 106.825 18.2297 107.314 19.0725 107.85C18.3628 107.793 17.6486 107.852 16.9579 108.025C15.7451 108.302 14.5042 108.437 13.2604 108.428C13.2139 108.428 13.1996 108.503 13.2604 108.51C15.3997 108.867 17.4499 107.904 19.5859 108.153C20.3763 108.695 21.1195 109.302 21.8074 109.969C23.1379 111.301 24.2347 112.848 25.0522 114.545C25.9507 116.375 26.4356 118.315 27.1631 120.205C27.168 120.223 27.1792 120.238 27.195 120.247C27.2107 120.256 27.2295 120.258 27.2467 120.253C27.264 120.249 27.279 120.237 27.288 120.222C27.297 120.206 27.2996 120.187 27.2948 120.169C26.6636 116.446 24.8059 112.334 22.0924 109.68ZM15.5963 104.572C15.4548 104.318 15.2689 104.091 15.0472 103.902C14.8634 103.704 14.6446 103.542 14.4019 103.424C14.3805 103.424 14.3696 103.445 14.3805 103.459C14.5586 103.663 14.805 103.816 14.994 104.002C15.183 104.187 15.3506 104.419 15.5396 104.608C15.5445 104.616 15.552 104.621 15.5606 104.623C15.565 104.624 15.5694 104.624 15.5738 104.623C15.5782 104.623 15.5824 104.621 15.5861 104.619C15.5936 104.614 15.5993 104.606 15.6011 104.598C15.603 104.589 15.6015 104.58 15.597 104.572H15.5963Z" fill="#D5D2DC"/>
<path d="M12.0442 105.728C11.727 105.645 11.388 105.652 11.0636 105.585C10.7406 105.51 10.4225 105.414 10.1115 105.299C10.1021 105.296 10.092 105.296 10.083 105.3C10.074 105.304 10.0665 105.311 10.0624 105.32C10.0582 105.329 10.0579 105.339 10.0609 105.349C10.0639 105.358 10.0706 105.366 10.0792 105.371C10.6667 105.733 11.3567 105.894 12.0439 105.827C12.054 105.823 12.0627 105.817 12.0688 105.808C12.0749 105.799 12.0781 105.788 12.078 105.777C12.078 105.766 12.0746 105.756 12.0686 105.747C12.0626 105.738 12.0544 105.731 12.0442 105.728ZM32.3366 113.625L30.7927 131.087H20.2455L18.3165 113.625H32.3366Z" fill="#D5D2DC"/>
<path d="M32.3366 113.625L31.9837 117.616H18.7549L18.3161 113.625H32.3366Z" fill="#BBB7C5"/>
<path d="M33.3818 112.538H17.2718V115.776H33.3818V112.538Z" fill="#D5D2DC"/>
<path d="M94.2337 17.6565H82.863V20.4172H94.2337V17.6565Z" fill="#EFECF3"/>
<path d="M89.925 24.7226V13.3485H87.165V24.7226H89.925ZM31.9725 24.405H20.6014V27.1658H31.9725V24.405ZM26.2882 22.8566C26.6543 22.8566 27.0055 22.7112 27.2643 22.4523C27.5232 22.1935 27.6686 21.8423 27.6686 21.4763C27.6686 21.1102 27.5232 20.759 27.2643 20.5002C27.0055 20.2413 26.6543 20.0959 26.2882 20.0959C25.9222 20.0959 25.571 20.2413 25.3122 20.5002C25.0533 20.759 24.9079 21.1102 24.9079 21.4763C24.9079 21.8423 25.0533 22.1935 25.3122 22.4523C25.571 22.7112 25.9222 22.8566 26.2882 22.8566ZM26.2882 31.47C26.6543 31.47 27.0055 31.3246 27.2643 31.0657C27.5232 30.8068 27.6686 30.4557 27.6686 30.0896C27.6686 29.7235 27.5232 29.3724 27.2643 29.1136C27.0055 28.8547 26.6543 28.7092 26.2882 28.7092C25.9222 28.7092 25.571 28.8547 25.3122 29.1136C25.0533 29.3724 24.9079 29.7235 24.9079 30.0896C24.9079 30.4557 25.0533 30.8068 25.3122 31.0657C25.571 31.3246 25.9222 31.47 26.2882 31.47ZM55.7512 0L47.7109 8.04263L49.6624 9.9945L57.7027 1.95187L55.7512 0Z" fill="#EFECF3"/>
<path d="M57.7012 8.04487L49.6609 0.00224304L47.7094 1.95412L55.7498 9.99674L57.7012 8.04487ZM20.3711 56.5762H9V59.337H20.3711V56.5762ZM20.3711 51.45H9V54.2107H20.3711V51.45ZM153.574 142.717C153.574 146.74 121.917 150.001 82.8638 150.001C43.8075 150.001 12.1537 146.74 12.1537 142.717C12.1537 138.694 43.8101 135.434 82.8638 135.434C121.92 135.434 153.574 138.712 153.574 142.717Z" fill="#EFECF3"/>
<path d="M10.4723 131.021L28.5716 130.936L82.863 130.846L155.25 131.021L137.154 131.11L82.863 131.199L28.5716 131.11L10.4723 131.021Z" fill="#1F1B2D"/>
<path d="M135.709 30.684H72.2212C69.858 30.684 67.9425 32.6002 67.9425 34.9639V138.441C67.9425 140.805 69.858 142.721 72.2212 142.721H135.709C138.072 142.721 139.987 140.805 139.987 138.441V34.9639C139.987 32.6002 138.072 30.684 135.709 30.684Z" fill="white"/>
<path fill-rule="evenodd" clip-rule="evenodd" d="M135.709 30.9337H72.2212C71.1525 30.9342 70.1278 31.3591 69.3722 32.1149C68.6166 32.8707 68.1921 33.8955 68.1919 34.9642V138.442C68.1922 139.51 68.6168 140.535 69.3723 141.291C70.1279 142.047 71.1526 142.471 72.2212 142.472H135.709C136.777 142.471 137.802 142.047 138.558 141.291C139.313 140.535 139.738 139.51 139.738 138.442V34.9642C139.738 33.8955 139.313 32.8707 138.558 32.1149C137.802 31.3591 136.777 30.9342 135.709 30.9337ZM72.2212 30.684H135.709C138.072 30.684 139.987 32.6002 139.987 34.9639V138.441C139.987 140.805 138.072 142.721 135.709 142.721H72.2212C69.858 142.721 67.9425 140.805 67.9425 138.441V34.9639C67.9425 32.6002 69.858 30.684 72.2212 30.684Z" fill="#1F1B2D"/>
<path d="M85.9537 59.2688H74.8867C74.1172 59.2688 73.4936 59.892 73.4936 60.6611V71.7326C73.4936 72.5018 74.1172 73.1254 74.8867 73.1254H85.9537C86.7229 73.1254 87.3465 72.5018 87.3465 71.7326V60.6611C87.3465 59.892 86.7229 59.2688 85.9537 59.2688Z" fill="#EFECF3"/>
<path d="M101.647 59.2688H90.5805C89.8114 59.2688 89.1877 59.892 89.1877 60.6611V71.7326C89.1877 72.5018 89.8114 73.1254 90.5805 73.1254H101.647C102.417 73.1254 103.041 72.5018 103.041 71.7326V60.6611C103.041 59.892 102.417 59.2688 101.647 59.2688Z" fill="#EFECF3"/>
<path d="M117.349 59.2688H106.282C105.513 59.2688 104.889 59.892 104.889 60.6611V71.7326C104.889 72.5018 105.513 73.1254 106.282 73.1254H117.349C118.118 73.1254 118.742 72.5018 118.742 71.7326V60.6611C118.742 59.892 118.118 59.2688 117.349 59.2688Z" fill="#A237EE"/>
<path d="M133.043 59.2688H121.976C121.206 59.2688 120.583 59.892 120.583 60.6611V71.7326C120.583 72.5018 121.206 73.1254 121.976 73.1254H133.043C133.812 73.1254 134.435 72.5018 134.435 71.7326V60.6611C134.435 59.892 133.812 59.2688 133.043 59.2688Z" fill="#A237EE"/>
<path d="M85.9537 75.1612H74.8867C74.1172 75.1612 73.4936 75.7845 73.4936 76.5536V87.6251C73.4936 88.3943 74.1172 89.0175 74.8867 89.0175H85.9537C86.7229 89.0175 87.3465 88.3943 87.3465 87.6251V76.5536C87.3465 75.7845 86.7229 75.1612 85.9537 75.1612Z" fill="#454056"/>
<path d="M101.647 75.1612H90.5805C89.8114 75.1612 89.1877 75.7845 89.1877 76.5536V87.6251C89.1877 88.3943 89.8114 89.0175 90.5805 89.0175H101.647C102.417 89.0175 103.041 88.3943 103.041 87.6251V76.5536C103.041 75.7845 102.417 75.1612 101.647 75.1612Z" fill="#454056"/>
<path d="M117.349 75.1612H106.282C105.513 75.1612 104.889 75.7845 104.889 76.5536V87.6251C104.889 88.3943 105.513 89.0175 106.282 89.0175H117.349C118.118 89.0175 118.742 88.3943 118.742 87.6251V76.5536C118.742 75.7845 118.118 75.1612 117.349 75.1612Z" fill="#454056"/>
<path d="M133.043 75.2588H121.976C121.206 75.2588 120.583 75.8824 120.583 76.6515V87.723C120.583 88.4917 121.206 89.1154 121.976 89.1154H133.043C133.812 89.1154 134.435 88.4917 134.435 87.723V76.6515C134.435 75.8824 133.812 75.2588 133.043 75.2588Z" fill="#EFECF3"/>
<path d="M85.9537 91.0537H74.8867C74.1172 91.0537 73.4936 91.677 73.4936 92.4461V103.518C73.4936 104.287 74.1172 104.91 74.8867 104.91H85.9537C86.7229 104.91 87.3465 104.287 87.3465 103.518V92.4461C87.3465 91.677 86.7229 91.0537 85.9537 91.0537Z" fill="#454056"/>
<path d="M101.647 91.0537H90.5805C89.8114 91.0537 89.1877 91.677 89.1877 92.4461V103.518C89.1877 104.287 89.8114 104.91 90.5805 104.91H101.647C102.417 104.91 103.041 104.287 103.041 103.518V92.4461C103.041 91.677 102.417 91.0537 101.647 91.0537Z" fill="#454056"/>
<path d="M117.349 91.0537H106.282C105.513 91.0537 104.889 91.677 104.889 92.4461V103.518C104.889 104.287 105.513 104.91 106.282 104.91H117.349C118.118 104.91 118.742 104.287 118.742 103.518V92.4461C118.742 91.677 118.118 91.0537 117.349 91.0537Z" fill="#454056"/>
<path d="M133.043 91.0537H121.976C121.206 91.0537 120.583 91.677 120.583 92.4461V103.518C120.583 104.287 121.206 104.91 121.976 104.91H133.043C133.812 104.91 134.435 104.287 134.435 103.518V92.4461C134.435 91.677 133.812 91.0537 133.043 91.0537Z" fill="#EFECF3"/>
<path d="M85.9537 106.946H74.8867C74.1172 106.946 73.4936 107.57 73.4936 108.339V119.411C73.4936 120.179 74.1172 120.803 74.8867 120.803H85.9537C86.7229 120.803 87.3465 120.179 87.3465 119.411V108.339C87.3465 107.57 86.7229 106.946 85.9537 106.946Z" fill="#454056"/>
<path d="M101.647 106.946H90.5805C89.8114 106.946 89.1877 107.57 89.1877 108.339V119.411C89.1877 120.179 89.8114 120.803 90.5805 120.803H101.647C102.417 120.803 103.041 120.179 103.041 119.411V108.339C103.041 107.57 102.417 106.946 101.647 106.946Z" fill="#454056"/>
<path d="M117.349 106.946H106.282C105.513 106.946 104.889 107.57 104.889 108.339V119.411C104.889 120.179 105.513 120.803 106.282 120.803H117.349C118.118 120.803 118.742 120.179 118.742 119.411V108.339C118.742 107.57 118.118 106.946 117.349 106.946Z" fill="#454056"/>
<path d="M133.043 106.946H121.976C121.206 106.946 120.583 107.57 120.583 108.339V119.41C120.583 120.179 121.206 120.803 121.976 120.803H133.043C133.812 120.803 134.435 120.179 134.435 119.41V108.339C134.435 107.57 133.812 106.946 133.043 106.946Z" fill="#EFECF3"/>
<path d="M85.9537 122.839H74.8867C74.1172 122.839 73.4936 123.462 73.4936 124.231V135.303C73.4936 136.072 74.1172 136.695 74.8867 136.695H85.9537C86.7229 136.695 87.3465 136.072 87.3465 135.303V124.231C87.3465 123.462 86.7229 122.839 85.9537 122.839Z" fill="#454056"/>
<path d="M101.647 122.839H90.5805C89.8114 122.839 89.1877 123.462 89.1877 124.231V135.303C89.1877 136.072 89.8114 136.695 90.5805 136.695H101.647C102.417 136.695 103.041 136.072 103.041 135.303V124.231C103.041 123.462 102.417 122.839 101.647 122.839Z" fill="#454056"/>
<path d="M117.349 122.839H106.282C105.513 122.839 104.889 123.462 104.889 124.231V135.303C104.889 136.072 105.513 136.695 106.282 136.695H117.349C118.118 136.695 118.742 136.072 118.742 135.303V124.231C118.742 123.462 118.118 122.839 117.349 122.839Z" fill="#EFECF3"/>
<path d="M133.043 122.839H121.976C121.206 122.839 120.583 123.462 120.583 124.231V135.303C120.583 136.072 121.206 136.695 121.976 136.695H133.043C133.812 136.695 134.435 136.072 134.435 135.303V124.231C134.435 123.462 133.812 122.839 133.043 122.839Z" fill="#EFECF3"/>
<path d="M78.36 64.8487C78.3524 64.7174 78.3714 64.5859 78.4159 64.4621C78.4603 64.3382 78.5296 64.2246 78.6195 64.1284C78.7091 64.032 78.8171 63.9548 78.9375 63.9015C79.0578 63.8482 79.1877 63.8199 79.3193 63.8183C79.4494 63.8198 79.5776 63.8479 79.6965 63.9007C79.8154 63.9536 79.9222 64.0301 80.0104 64.1254C80.0985 64.2206 80.1671 64.3331 80.2106 64.4558C80.2541 64.5784 80.2725 64.7085 80.2642 64.8382C80.2719 64.9698 80.2529 65.1016 80.2083 65.2256C80.1638 65.3497 80.0947 65.4634 80.0051 65.5601C79.9155 65.6566 79.8074 65.734 79.6871 65.7878C79.5667 65.8414 79.4366 65.8703 79.305 65.8725C79.1749 65.8703 79.0462 65.8418 78.9277 65.7885C78.8092 65.7353 78.702 65.6587 78.6135 65.5627C78.5252 65.4671 78.4572 65.3546 78.4136 65.232C78.3701 65.109 78.3518 64.9789 78.36 64.8487ZM79.7509 64.8487C79.7509 64.5277 79.5652 64.2604 79.305 64.2604C79.0447 64.2604 78.8734 64.5277 78.8734 64.8382C78.8734 65.1697 79.059 65.4266 79.3193 65.4266C79.5795 65.4266 79.7509 65.1592 79.7509 64.8487ZM79.0376 67.5416L81.687 63.9251C81.7069 63.8917 81.7357 63.8644 81.7706 63.846C81.8052 63.8277 81.8441 63.8193 81.8831 63.8216C81.9127 63.8212 81.9424 63.8265 81.9701 63.8377C81.9978 63.8487 82.0229 63.8652 82.044 63.8861C82.0654 63.9071 82.0823 63.9319 82.0939 63.9596C82.1052 63.9871 82.1111 64.0165 82.1111 64.0462C82.1101 64.1001 82.0927 64.1525 82.0612 64.1963L79.4119 67.8127C79.3897 67.845 79.3598 67.8713 79.3249 67.8896C79.29 67.908 79.2514 67.9166 79.2124 67.9163C79.1827 67.9167 79.1533 67.9113 79.1257 67.9001C79.0983 67.8889 79.0733 67.8723 79.0522 67.8514C79.0312 67.8305 79.0147 67.8055 79.0039 67.7779C78.9926 67.7505 78.987 67.7213 78.9877 67.6916C78.984 67.6391 78.9968 67.587 79.0234 67.5416H79.0376ZM80.8204 66.9139C80.8127 66.7825 80.8317 66.651 80.8762 66.5273C80.9209 66.4031 80.9899 66.2899 81.0795 66.1935C81.1691 66.0971 81.2774 66.0198 81.3977 65.9665C81.5181 65.9132 81.648 65.8849 81.7796 65.8834C81.9094 65.8852 82.0376 65.9137 82.1561 65.9666C82.2747 66.0198 82.3813 66.0963 82.4696 66.1916C82.558 66.2868 82.6261 66.399 82.6699 66.5212C82.7137 66.6435 82.7321 66.7736 82.7246 66.9034C82.7322 67.0347 82.7133 67.1661 82.6691 67.29C82.6248 67.4138 82.5559 67.5273 82.4666 67.6238C82.3774 67.7205 82.2697 67.7981 82.1497 67.8518C82.0298 67.9058 81.9002 67.935 81.7687 67.9376C81.6366 67.9382 81.5058 67.9117 81.3843 67.8598C81.2627 67.8079 81.1532 67.7316 81.0622 67.6357C80.9713 67.54 80.9011 67.4265 80.856 67.3024C80.8106 67.1783 80.7911 67.0459 80.799 66.9139H80.8204ZM82.2109 66.9139C82.2109 66.5929 82.0256 66.3255 81.7687 66.3255C81.5119 66.3255 81.3337 66.5929 81.3337 66.9034C81.3337 67.2349 81.5194 67.4917 81.7796 67.4917C82.0399 67.4917 82.1895 67.2244 82.1895 66.9139H82.2109Z" fill="#454056"/>
<path d="M108.304 65.8125C108.314 65.2582 108.541 64.7299 108.937 64.341C109.332 63.9523 109.864 63.7341 110.418 63.7331C110.901 63.7294 111.371 63.8891 111.752 64.1861C111.814 64.242 111.852 64.3193 111.86 64.4025C111.867 64.4858 111.843 64.5682 111.792 64.6346C111.742 64.7007 111.668 64.7452 111.586 64.7591C111.504 64.7734 111.419 64.7558 111.349 64.7104C111.085 64.4993 110.756 64.387 110.418 64.3931C110.033 64.3953 109.662 64.543 109.381 64.8067C109.113 65.073 108.962 65.4349 108.96 65.8125C108.959 65.9992 108.996 66.1841 109.069 66.3562C109.141 66.5287 109.247 66.6844 109.381 66.8149C109.662 67.0796 110.033 67.2285 110.418 67.2322C110.756 67.2376 111.085 67.1253 111.349 66.9146C111.42 66.8681 111.506 66.849 111.59 66.8599C111.671 66.8782 111.742 66.924 111.793 66.9892C111.843 67.0544 111.869 67.1352 111.867 67.2176C111.857 67.3028 111.816 67.3814 111.752 67.4389C111.37 67.7334 110.901 67.8917 110.418 67.8885C109.864 67.8903 109.331 67.6734 108.935 67.2847C108.539 66.8962 108.312 66.3671 108.304 65.8125ZM112.928 67.5713V64.1685C112.927 64.1266 112.934 64.0849 112.95 64.0459C112.965 64.007 112.989 63.9716 113.018 63.942C113.048 63.9124 113.084 63.8891 113.123 63.8734C113.161 63.8577 113.203 63.8501 113.245 63.8513H115.128C115.207 63.8594 115.28 63.8967 115.332 63.9559C115.385 64.0147 115.415 64.0913 115.415 64.1704C115.415 64.2497 115.385 64.3262 115.332 64.3852C115.28 64.4441 115.206 64.4812 115.128 64.4895H113.566V65.5598H114.91C114.995 65.5598 115.077 65.5935 115.137 65.6535C115.197 65.7138 115.231 65.7955 115.231 65.8808C115.231 65.9659 115.197 66.0473 115.137 66.1076C115.077 66.168 114.995 66.2017 114.91 66.2017H113.566V67.2716H115.128C115.212 67.274 115.293 67.3092 115.352 67.3698C115.411 67.4304 115.445 67.5116 115.445 67.5964C115.443 67.6796 115.409 67.7595 115.35 67.8188C115.291 67.8777 115.211 67.9116 115.128 67.9136H113.259C113.214 67.9162 113.169 67.9095 113.127 67.893C113.085 67.8765 113.046 67.8514 113.015 67.8188C112.983 67.7862 112.959 67.7472 112.944 67.7045C112.929 67.6618 112.923 67.6163 112.928 67.5713ZM125.711 65.8125C125.722 65.2582 125.949 64.7299 126.344 64.341C126.74 63.9523 127.271 63.7341 127.826 63.7331C128.309 63.7294 128.779 63.8891 129.159 64.1861C129.221 64.242 129.26 64.3193 129.267 64.4025C129.275 64.4858 129.251 64.5682 129.2 64.6346C129.149 64.7007 129.075 64.7452 128.993 64.7591C128.911 64.7734 128.826 64.7558 128.757 64.7104C128.493 64.4998 128.164 64.3877 127.826 64.3931C127.44 64.3953 127.07 64.543 126.788 64.8067C126.52 65.073 126.369 65.4349 126.368 65.8125C126.367 65.9992 126.404 66.1841 126.476 66.3562C126.549 66.5287 126.655 66.6844 126.788 66.8149C127.069 67.0796 127.44 67.2285 127.826 67.2322C128.163 67.2371 128.492 67.125 128.757 66.9146C128.828 66.8681 128.913 66.849 128.998 66.8599C129.078 66.8782 129.15 66.924 129.2 66.9892C129.251 67.0544 129.277 67.1352 129.274 67.2176C129.264 67.3028 129.223 67.3814 129.159 67.4389C128.777 67.7329 128.308 67.8907 127.826 67.8885C127.271 67.8903 126.738 67.6734 126.342 67.2847C125.947 66.8962 125.72 66.3671 125.711 65.8125ZM81.6825 80.4975L80.2564 83.907C80.2335 83.9654 80.1931 84.0153 80.1407 84.0498C80.0883 84.0843 80.0266 84.1018 79.9639 84.0998C79.9223 84.0998 79.881 84.0911 79.8428 84.0746C79.7659 84.0416 79.7048 83.9801 79.6721 83.9029C79.6394 83.8258 79.6379 83.7391 79.668 83.661L80.916 80.7007H79.4254C79.3408 80.6982 79.2605 80.6628 79.2015 80.6021C79.1426 80.5417 79.1089 80.4607 79.1081 80.376C79.1074 80.2912 79.1415 80.2114 79.2011 80.1518C79.2608 80.0921 79.3414 80.0588 79.4254 80.0588H81.4046C81.4235 80.0554 81.4428 80.0554 81.4616 80.0588C81.5038 80.069 81.5445 80.0846 81.5828 80.1052V80.1229C81.5828 80.1229 81.6007 80.1229 81.6041 80.1442C81.6075 80.1656 81.6221 80.1622 81.6293 80.1694C81.6364 80.1765 81.6293 80.187 81.6293 80.1907V80.2192L81.6506 80.2515V80.28C81.6525 80.2894 81.6525 80.2991 81.6506 80.3085C81.6578 80.3498 81.6578 80.3921 81.6506 80.4334C81.6656 80.4523 81.6765 80.4741 81.6825 80.4975ZM97.3763 82.7138C97.377 82.9527 97.3156 83.1877 97.1982 83.3958C97.0808 83.604 96.9114 83.778 96.7065 83.901C96.5018 84.024 96.2685 84.0919 96.0296 84.0975C95.669 84.1052 95.3195 83.9718 95.0558 83.7257C94.7921 83.4795 94.6349 83.1401 94.6178 82.7797C94.6073 82.5412 94.6586 82.3039 94.767 82.0909C94.8755 81.8779 95.0374 81.6967 95.2369 81.5651C95.1468 81.4443 95.0866 81.3038 95.0614 81.1552C95.0362 81.0067 95.0464 80.8541 95.0918 80.7105C95.137 80.5667 95.2157 80.4356 95.3213 80.328C95.427 80.2204 95.5564 80.1397 95.6996 80.0921C95.8429 80.0445 95.9948 80.0317 96.1436 80.0542C96.2925 80.0767 96.4343 80.1349 96.5565 80.223C96.6788 80.3111 96.7781 80.427 96.8471 80.5612C96.9161 80.6955 96.9518 80.8436 96.9521 80.9944C96.9527 81.2007 96.8849 81.4014 96.7594 81.5651C96.9487 81.6911 97.104 81.8617 97.2116 82.0624C97.3193 82.2626 97.3759 82.4864 97.3763 82.7138ZM96.7451 82.7138C96.7451 82.5158 96.6675 82.326 96.5288 82.1854C96.3901 82.0442 96.2012 81.9636 96.0034 81.9611C95.8038 81.9619 95.6125 82.0414 95.4713 82.1824C95.3299 82.323 95.2496 82.5139 95.2478 82.7138C95.2504 82.9121 95.3314 83.1011 95.4731 83.2402C95.6145 83.3793 95.8051 83.4567 96.0034 83.4555C96.2 83.4553 96.3886 83.3771 96.5277 83.238C96.6667 83.099 96.7449 82.9104 96.7451 82.7138ZM95.6756 80.9944C95.6756 81.0806 95.7098 81.1631 95.7705 81.2239C95.8006 81.2541 95.8363 81.2781 95.8757 81.2945C95.9151 81.3108 95.9573 81.3192 96 81.3191C96.0859 81.3191 96.1684 81.285 96.2295 81.2239C96.2906 81.1627 96.3244 81.0806 96.3244 80.9944C96.3236 80.9107 96.2899 80.8305 96.2306 80.7712C96.1714 80.7117 96.0911 80.6778 96.0071 80.6771C95.9634 80.6757 95.9197 80.6831 95.8789 80.6989C95.8381 80.715 95.8009 80.7389 95.7694 80.7694C95.7382 80.8001 95.7131 80.8369 95.6966 80.8774C95.6801 80.9179 95.6715 80.9614 95.6719 81.0053L95.6756 80.9944ZM110.344 81.4575C110.351 81.1031 110.492 80.7645 110.739 80.5099C110.985 80.2552 111.319 80.1037 111.673 80.0857C112.027 80.0679 112.375 80.1848 112.646 80.4128C112.917 80.6409 113.092 80.9632 113.136 81.315V81.6431C113.14 82.0457 113.071 82.4457 112.932 82.8236C112.794 83.223 112.533 83.5687 112.187 83.8114C111.931 83.9811 111.632 84.0751 111.324 84.0825C111.282 84.0844 111.24 84.078 111.2 84.0637C111.161 84.0495 111.124 84.0274 111.093 83.9989C111.062 83.9704 111.037 83.9359 111.019 83.8976C111.001 83.8594 110.991 83.818 110.989 83.7757C110.988 83.6914 111.02 83.6096 111.078 83.5478C111.135 83.4858 111.215 83.4487 111.299 83.4443C111.491 83.4393 111.679 83.3825 111.841 83.28C111.991 83.1769 112.114 83.0385 112.198 82.8772C112.227 82.8295 112.252 82.7793 112.273 82.7272C112.099 82.8037 111.91 82.8427 111.72 82.8412C111.355 82.8367 111.007 82.6894 110.75 82.4306C110.492 82.1718 110.346 81.8225 110.344 81.4575ZM110.986 81.4575C110.979 81.5614 110.993 81.6656 111.028 81.7639C111.063 81.8621 111.117 81.9517 111.188 82.0279C111.259 82.1042 111.345 82.1651 111.441 82.2067C111.536 82.2483 111.639 82.2698 111.743 82.2698C111.847 82.2698 111.95 82.2483 112.046 82.2067C112.141 82.1651 112.227 82.1042 112.298 82.0279C112.37 81.9517 112.424 81.8621 112.459 81.7639C112.494 81.6656 112.508 81.5614 112.501 81.4575C112.488 81.2655 112.402 81.0855 112.262 80.9543C112.121 80.823 111.936 80.7499 111.743 80.7499C111.551 80.7499 111.366 80.823 111.225 80.9543C111.084 81.0855 110.999 81.2655 110.986 81.4575Z" fill="white"/>
<path d="M126.27 82.1887C126.27 82.0942 126.307 82.0035 126.374 81.9364C126.407 81.9033 126.447 81.877 126.49 81.8591C126.533 81.8412 126.58 81.832 126.627 81.8321H128.409C128.485 81.8526 128.552 81.8975 128.599 81.9597C128.647 82.0219 128.672 82.0981 128.672 82.1764C128.672 82.2546 128.647 82.3307 128.599 82.3928C128.552 82.455 128.485 82.4997 128.409 82.5203H126.627C126.536 82.5206 126.449 82.4865 126.383 82.425C126.317 82.3635 126.276 82.2787 126.27 82.1887Z" fill="#454056"/>
<path d="M81.9637 98.82C81.9637 98.862 81.9551 98.904 81.9386 98.943C81.9224 98.9821 81.8984 99.0174 81.8681 99.0469C81.8379 99.0765 81.8021 99.0997 81.7627 99.1151C81.7234 99.1308 81.6813 99.1384 81.639 99.1372H81.582V99.576C81.5819 99.6602 81.5485 99.741 81.489 99.8006C81.4297 99.8599 81.3487 99.8932 81.2647 99.8932C81.1807 99.8932 81.0997 99.8599 81.0405 99.8006C80.981 99.741 80.9476 99.6602 80.9475 99.576V99.123H79.1325C79.0603 99.1261 78.9898 99.1005 78.9364 99.0518C78.9029 99.0269 78.8748 98.9955 78.8539 98.9595C78.8328 98.9235 78.8194 98.8835 78.8145 98.8421C78.8097 98.8007 78.8133 98.7588 78.825 98.7188C78.8367 98.6788 78.8564 98.6415 78.8827 98.6093L81.0221 95.9558V95.931C81.0326 95.9329 81.0431 95.9321 81.0529 95.9291C81.0626 95.9261 81.072 95.9205 81.0795 95.913L81.1009 95.8954C81.1222 95.8774 81.1009 95.8954 81.1365 95.8954C81.1721 95.8954 81.1365 95.8774 81.1579 95.8774H81.1935C81.2014 95.8804 81.2104 95.8804 81.2182 95.8774H81.3146C81.3238 95.8808 81.3339 95.8808 81.3431 95.8774H81.4001L81.4324 95.8987L81.4609 95.9168H81.4785L81.5036 95.9415V95.9629C81.5137 95.9708 81.522 95.9805 81.5287 95.9914C81.5257 95.9996 81.5257 96.0083 81.5287 96.0165C81.531 96.027 81.531 96.0379 81.5287 96.0488V96.0735C81.5325 96.084 81.5325 96.0953 81.5287 96.1058V98.4848H81.5857C81.6334 98.4758 81.6829 98.478 81.7297 98.4911C81.7766 98.5043 81.8197 98.5279 81.8561 98.5601C81.8926 98.5924 81.9212 98.6325 81.9397 98.6775C81.9585 98.7225 81.9664 98.7712 81.9637 98.82ZM80.9475 97.0759L79.7992 98.5024H80.9475V97.0759ZM96.8775 97.4438C97.0113 97.5769 97.1174 97.7354 97.1895 97.9099C97.2618 98.0844 97.2987 98.2715 97.2982 98.4604C97.2968 98.8412 97.1457 99.2062 96.8775 99.4766C96.7452 99.6098 96.5879 99.7155 96.4147 99.7879C96.2415 99.8599 96.0559 99.8974 95.8684 99.8978C95.6816 99.8981 95.4967 99.861 95.3246 99.7886C95.1526 99.7162 94.9968 99.6102 94.8664 99.4766C94.8349 99.4466 94.8101 99.411 94.7932 99.3709C94.776 99.3311 94.7672 99.2882 94.7674 99.2449C94.7674 99.2018 94.776 99.1586 94.7932 99.1189C94.8103 99.0791 94.8351 99.0431 94.8664 99.0131C94.9275 98.9528 95.0104 98.919 95.0962 98.919C95.1823 98.9188 95.2649 98.9527 95.3261 99.0131C95.3981 99.0866 95.4836 99.1448 95.5781 99.1849C95.6727 99.2249 95.7743 99.2454 95.877 99.2452C95.9796 99.2452 96.0812 99.2247 96.1759 99.1849C96.2704 99.1451 96.3562 99.0866 96.4282 99.0131C96.5741 98.8688 96.6574 98.6726 96.66 98.4675C96.66 98.2609 96.5779 98.0629 96.4324 97.9162C96.3237 97.8064 96.1849 97.7312 96.0334 97.7004C95.882 97.6696 95.7248 97.6844 95.5819 97.743C95.4866 97.7816 95.3996 97.8386 95.3261 97.911C95.2961 97.9414 95.2601 97.9654 95.2207 97.9819C95.1812 97.9981 95.139 98.0065 95.0962 98.0066C95.0535 98.0065 95.0112 97.9981 94.9717 97.9819C94.9324 97.9654 94.8964 97.9414 94.8664 97.911C94.8412 97.8896 94.827 97.8611 94.8022 97.836C94.7775 97.8109 94.8022 97.8184 94.8022 97.8184C94.8052 97.809 94.8052 97.7989 94.8022 97.7899V97.7505C94.7951 97.7176 94.7951 97.6836 94.8022 97.6508L94.977 96.1564C94.9834 96.1102 94.9995 96.0664 95.0239 96.027C95.0484 95.9876 95.081 95.9539 95.1195 95.928H95.1585C95.2053 95.9052 95.2565 95.893 95.3085 95.8924H97.0129C97.0586 95.8875 97.1049 95.8924 97.1486 95.9066C97.1921 95.9209 97.2322 95.9441 97.2664 95.9749C97.3005 96.0056 97.3279 96.0431 97.3466 96.0851C97.3654 96.1271 97.3752 96.1726 97.3752 96.2186C97.3752 96.2646 97.3654 96.3101 97.3466 96.3521C97.3279 96.3941 97.3009 96.4316 97.2664 96.4624C97.2319 96.4931 97.1921 96.5164 97.1486 96.5306C97.1049 96.5449 97.0586 96.5498 97.0129 96.5449H95.5867L95.5151 97.1156C95.6422 97.0834 95.7727 97.0665 95.904 97.0658C96.2644 97.0643 96.6124 97.1993 96.8775 97.4438ZM113.145 98.4937C113.139 98.8485 112.998 99.1875 112.752 99.4425C112.506 99.6975 112.171 99.8501 111.817 99.8685C111.463 99.8869 111.115 99.7705 110.843 99.5426C110.571 99.3146 110.396 98.9921 110.353 98.64V98.3119C110.349 97.9096 110.417 97.5097 110.553 97.131C110.692 96.7324 110.953 96.387 111.298 96.1432C111.556 95.9737 111.856 95.8797 112.164 95.8721C112.206 95.8702 112.248 95.8767 112.288 95.8913C112.327 95.9055 112.363 95.9275 112.394 95.9561C112.425 95.9846 112.45 96.0191 112.468 96.0574C112.485 96.0956 112.495 96.1369 112.496 96.1789C112.496 96.2636 112.464 96.3453 112.407 96.4076C112.349 96.4699 112.27 96.5078 112.186 96.5141C111.994 96.5163 111.806 96.5719 111.644 96.6746C111.496 96.7807 111.375 96.9185 111.287 97.0777C111.259 97.1239 111.237 97.1775 111.213 97.2274C111.387 97.1509 111.575 97.1122 111.765 97.1134C112.129 97.119 112.477 97.266 112.735 97.5236C112.992 97.7814 113.139 98.1294 113.145 98.4937ZM112.503 98.4937C112.51 98.3899 112.496 98.2856 112.461 98.1874C112.427 98.0891 112.372 97.9989 112.301 97.9226C112.23 97.8463 112.144 97.7855 112.049 97.744C111.953 97.7024 111.85 97.6811 111.746 97.6812C111.641 97.6814 111.538 97.7031 111.443 97.7449C111.347 97.7863 111.261 97.8469 111.19 97.923C111.119 97.9991 111.064 98.0891 111.03 98.1874C110.995 98.2855 110.981 98.3898 110.988 98.4937C111.001 98.6857 111.087 98.8654 111.227 98.997C111.368 99.1285 111.553 99.2015 111.745 99.2014C111.938 99.2014 112.123 99.1283 112.264 98.997C112.404 98.8656 112.49 98.6858 112.503 98.4937Z" fill="white"/>
<path d="M126.394 98.16C126.314 98.1599 126.238 98.1283 126.182 98.0721C126.126 98.016 126.094 97.9398 126.094 97.8604C126.094 97.7809 126.126 97.7048 126.182 97.6486C126.238 97.5924 126.314 97.5608 126.394 97.5607H128.726C128.805 97.5608 128.881 97.5924 128.937 97.6486C128.993 97.7048 129.025 97.7809 129.025 97.8604C129.025 97.9398 128.993 98.016 128.937 98.0721C128.881 98.1283 128.805 98.1599 128.726 98.16H126.394ZM127.955 96.6442V96.6728C127.946 96.7718 127.9 96.8636 127.827 96.9304C127.753 96.9971 127.657 97.0346 127.558 97.0346C127.458 97.0347 127.363 96.9975 127.289 96.9304C127.216 96.8636 127.17 96.7718 127.16 96.6728V96.6442C127.17 96.5452 127.216 96.4533 127.289 96.3862C127.363 96.3195 127.458 96.2824 127.558 96.2824C127.657 96.2824 127.753 96.3195 127.827 96.3862C127.9 96.453 127.946 96.5452 127.955 96.6442ZM127.955 99.048V99.0802C127.946 99.1792 127.9 99.2711 127.827 99.3379C127.753 99.4046 127.657 99.4421 127.558 99.4421C127.458 99.4422 127.363 99.405 127.289 99.3379C127.216 99.2711 127.17 99.1792 127.16 99.0802V99.048C127.17 98.949 127.216 98.8571 127.289 98.7904C127.363 98.7234 127.458 98.6864 127.558 98.6865C127.657 98.6865 127.753 98.7233 127.827 98.7904C127.9 98.8575 127.946 98.949 127.955 99.048Z" fill="#454056"/>
<path d="M81.0263 112.061V115.467C81.0258 115.51 81.017 115.551 81.0004 115.59C80.9839 115.629 80.9599 115.664 80.9299 115.693C80.8996 115.723 80.8639 115.746 80.8249 115.762C80.7859 115.777 80.7439 115.785 80.7019 115.785C80.6603 115.785 80.619 115.777 80.5804 115.762C80.5418 115.746 80.5069 115.722 80.4776 115.693C80.4483 115.663 80.4252 115.628 80.4097 115.589C80.3943 115.551 80.3869 115.509 80.388 115.467V112.614L80.1563 112.746C80.1086 112.777 80.0528 112.793 79.9958 112.792C79.9267 112.791 79.8597 112.768 79.8049 112.726C79.7499 112.684 79.71 112.625 79.6912 112.559C79.6725 112.492 79.6756 112.421 79.7002 112.357C79.725 112.292 79.7696 112.237 79.8281 112.2L80.5414 111.776H80.5628C80.5628 111.776 80.5804 111.776 80.5913 111.758H80.6482C80.6623 111.754 80.677 111.754 80.691 111.758H80.7517C80.7596 111.761 80.7686 111.761 80.7765 111.758H80.8121C80.8192 111.755 80.8268 111.755 80.8335 111.758C80.8335 111.758 80.8586 111.776 80.8695 111.776L80.8909 111.794L80.9156 111.811C80.925 111.816 80.9329 111.824 80.937 111.833V111.854L80.9621 111.879V111.954C80.9614 111.964 80.9614 111.973 80.9621 111.983C80.9569 111.997 80.9569 112.012 80.9621 112.026L81.0263 112.061ZM97.395 115.466C97.3954 115.508 97.3875 115.55 97.3717 115.588C97.356 115.627 97.3328 115.662 97.3031 115.692C97.2735 115.722 97.2383 115.745 97.1996 115.761C97.161 115.776 97.1194 115.784 97.0777 115.784H95.0239C94.9796 115.784 94.9358 115.775 94.8953 115.757C94.8547 115.739 94.8183 115.713 94.7884 115.68C94.731 115.618 94.7006 115.535 94.704 115.45C94.7074 115.365 94.7441 115.285 94.8064 115.227L96.5145 113.683C96.6263 113.582 96.7047 113.449 96.7395 113.302C96.7744 113.156 96.7639 113.002 96.7095 112.861C96.655 112.72 96.559 112.599 96.4342 112.514C96.3097 112.429 96.1624 112.384 96.0116 112.385C95.8268 112.386 95.6484 112.453 95.5088 112.574L95.3306 112.738C95.2667 112.786 95.1872 112.808 95.1077 112.8C95.0283 112.792 94.9547 112.754 94.9016 112.695C94.8484 112.635 94.8188 112.558 94.8191 112.479C94.8194 112.399 94.8492 112.322 94.9028 112.263L95.0809 112.103C95.3355 111.872 95.6678 111.744 96.0116 111.746C96.2051 111.747 96.3964 111.787 96.573 111.866C96.7496 111.945 96.9086 112.059 97.0384 112.203C97.2707 112.457 97.3981 112.79 97.395 113.134C97.3945 113.327 97.3538 113.519 97.2754 113.695C97.1967 113.872 97.082 114.031 96.9386 114.161L95.8511 115.145H97.0777C97.1621 115.147 97.2426 115.181 97.3019 115.241C97.3612 115.301 97.3946 115.382 97.395 115.466ZM112.616 113.332C112.75 113.464 112.857 113.621 112.929 113.794C113.001 113.968 113.038 114.154 113.037 114.342C113.04 114.626 112.958 114.905 112.801 115.143C112.645 115.38 112.421 115.565 112.158 115.675C111.896 115.784 111.607 115.812 111.328 115.756C111.049 115.699 110.794 115.561 110.594 115.358C110.534 115.297 110.5 115.215 110.5 115.128C110.5 115.042 110.534 114.96 110.594 114.898C110.655 114.837 110.738 114.803 110.824 114.803C110.911 114.803 110.993 114.837 111.054 114.898C111.126 114.97 111.212 115.027 111.306 115.066C111.401 115.105 111.502 115.124 111.603 115.123C111.81 115.123 112.008 115.042 112.156 114.898C112.23 114.826 112.288 114.739 112.328 114.643C112.368 114.548 112.388 114.445 112.388 114.342C112.387 114.238 112.368 114.139 112.329 114.045C112.289 113.951 112.23 113.867 112.156 113.796C112.085 113.723 111.999 113.665 111.905 113.625C111.811 113.586 111.709 113.565 111.607 113.564C111.563 113.567 111.518 113.559 111.477 113.541C111.436 113.523 111.4 113.496 111.372 113.461C111.341 113.431 111.317 113.395 111.301 113.355C111.285 113.316 111.276 113.274 111.276 113.231C111.276 113.188 111.285 113.146 111.301 113.106C111.317 113.067 111.341 113.031 111.372 113.001L111.96 112.402H111.026C110.983 112.401 110.94 112.392 110.901 112.375C110.861 112.358 110.825 112.334 110.795 112.303C110.765 112.272 110.741 112.236 110.725 112.196C110.709 112.156 110.701 112.113 110.701 112.07C110.701 112.027 110.71 111.985 110.726 111.946C110.742 111.907 110.766 111.871 110.796 111.842C110.827 111.812 110.862 111.788 110.902 111.772C110.941 111.756 110.984 111.749 111.026 111.749H112.727C112.783 111.749 112.838 111.763 112.888 111.79C112.937 111.817 112.978 111.857 113.007 111.906C113.036 111.954 113.052 112.009 113.054 112.065C113.055 112.121 113.042 112.177 113.015 112.227C112.998 112.256 112.979 112.283 112.958 112.309L112.245 113.058C112.385 113.126 112.51 113.219 112.616 113.332Z" fill="white"/>
<path d="M128.505 113.408L127.792 114.356L128.477 115.309C128.523 115.371 128.543 115.45 128.532 115.527C128.521 115.604 128.481 115.674 128.42 115.722C128.366 115.762 128.301 115.784 128.234 115.787C128.136 115.778 128.046 115.732 127.981 115.658L127.436 114.87L126.858 115.658C126.83 115.695 126.794 115.726 126.752 115.749C126.711 115.771 126.666 115.784 126.619 115.787C126.553 115.785 126.49 115.762 126.437 115.722C126.405 115.7 126.378 115.671 126.357 115.638C126.336 115.605 126.322 115.568 126.316 115.529C126.31 115.491 126.312 115.451 126.322 115.413C126.332 115.375 126.349 115.34 126.373 115.309L127.065 114.356L126.366 113.408C126.342 113.377 126.325 113.342 126.315 113.305C126.305 113.267 126.304 113.228 126.31 113.19C126.316 113.153 126.33 113.116 126.35 113.083C126.371 113.05 126.398 113.023 126.43 113.001C126.462 112.977 126.498 112.96 126.536 112.95C126.574 112.94 126.614 112.938 126.653 112.944C126.692 112.949 126.73 112.963 126.764 112.983C126.797 113.003 126.827 113.03 126.851 113.062L127.428 113.835L128.003 113.062C128.054 112.998 128.128 112.956 128.21 112.945C128.291 112.934 128.374 112.954 128.441 113.001C128.503 113.047 128.545 113.115 128.557 113.191C128.569 113.267 128.55 113.345 128.505 113.408Z" fill="#454056"/>
<path d="M80.655 130.864C80.7694 130.865 80.8785 130.91 80.9591 130.991C81.0399 131.072 81.0857 131.181 81.0866 131.295C81.0858 131.409 81.04 131.518 80.9591 131.598C80.8783 131.678 80.7689 131.723 80.655 131.723C80.5987 131.724 80.5429 131.713 80.4907 131.692C80.4386 131.67 80.3913 131.639 80.3516 131.599C80.3118 131.559 80.2803 131.512 80.259 131.46C80.2376 131.407 80.2267 131.352 80.2271 131.295C80.2271 131.181 80.2721 131.072 80.3522 130.991C80.4324 130.91 80.5412 130.865 80.655 130.864ZM94.4438 129.66C94.4366 129.171 94.5731 128.692 94.836 128.28C94.9402 128.087 95.0947 127.926 95.283 127.813C95.4712 127.701 95.6865 127.642 95.9059 127.642C96.1252 127.642 96.3401 127.701 96.5284 127.813C96.7166 127.926 96.871 128.087 96.9754 128.28C97.2273 128.695 97.3605 129.172 97.3605 129.658C97.3605 130.145 97.2274 130.621 96.9754 131.037C96.8723 131.231 96.7181 131.393 96.5295 131.506C96.3411 131.619 96.1256 131.679 95.9059 131.679C95.6862 131.679 95.4706 131.619 95.2822 131.506C95.0938 131.393 94.9396 131.231 94.836 131.037C94.5739 130.626 94.4374 130.148 94.4438 129.66ZM96.7222 129.66C96.7286 129.298 96.6323 128.942 96.4444 128.633C96.3922 128.533 96.3161 128.448 96.2227 128.386C96.1291 128.323 96.0213 128.286 95.9092 128.276C95.796 128.287 95.6871 128.326 95.5916 128.388C95.496 128.45 95.4165 128.534 95.3603 128.633C95.178 128.943 95.0819 129.297 95.0819 129.656C95.0819 130.016 95.178 130.37 95.3603 130.68C95.4165 130.779 95.496 130.863 95.5916 130.925C95.6872 130.988 95.796 131.025 95.9092 131.037C96.0209 131.026 96.1282 130.988 96.2216 130.926C96.3146 130.863 96.3911 130.779 96.4444 130.68C96.6312 130.373 96.7275 130.019 96.7222 129.66Z" fill="white"/>
<path d="M110.591 129.232C110.597 129.142 110.637 129.056 110.703 128.994C110.769 128.932 110.857 128.897 110.948 128.897H112.731C112.775 128.897 112.818 128.906 112.859 128.923C112.899 128.94 112.936 128.964 112.967 128.996C112.997 129.027 113.022 129.064 113.038 129.104C113.055 129.145 113.063 129.189 113.063 129.232C113.063 129.276 113.055 129.32 113.039 129.36C113.023 129.401 112.998 129.438 112.967 129.469C112.937 129.5 112.899 129.525 112.859 129.541C112.818 129.557 112.775 129.565 112.731 129.564H110.948C110.903 129.567 110.857 129.561 110.814 129.545C110.771 129.53 110.732 129.506 110.698 129.475C110.665 129.444 110.638 129.406 110.62 129.365C110.601 129.323 110.592 129.278 110.591 129.232ZM110.591 130.302C110.591 130.208 110.629 130.117 110.696 130.05C110.763 129.984 110.853 129.946 110.948 129.946H112.731C112.806 129.966 112.873 130.011 112.92 130.073C112.968 130.135 112.994 130.212 112.994 130.29C112.994 130.368 112.968 130.444 112.92 130.506C112.873 130.569 112.806 130.614 112.731 130.634H110.948C110.857 130.635 110.769 130.6 110.703 130.538C110.637 130.475 110.597 130.39 110.591 130.299V130.302ZM127.23 129.96H126.41C126.326 129.96 126.245 129.926 126.186 129.867C126.127 129.807 126.093 129.727 126.093 129.643C126.095 129.559 126.129 129.48 126.188 129.42C126.247 129.361 126.326 129.327 126.41 129.326H127.23V128.526C127.229 128.483 127.237 128.44 127.253 128.399C127.269 128.359 127.293 128.322 127.324 128.291C127.354 128.26 127.391 128.236 127.431 128.219C127.471 128.202 127.515 128.194 127.558 128.194C127.646 128.196 127.729 128.231 127.79 128.293C127.852 128.355 127.886 128.439 127.886 128.526V129.326H128.706C128.79 129.327 128.87 129.361 128.929 129.42C128.988 129.48 129.022 129.559 129.024 129.643C129.023 129.727 128.99 129.807 128.93 129.867C128.871 129.926 128.79 129.96 128.706 129.96H127.886V130.763C127.886 130.85 127.852 130.933 127.79 130.995C127.729 131.056 127.645 131.091 127.558 131.091C127.515 131.091 127.472 131.083 127.432 131.067C127.392 131.051 127.356 131.026 127.325 130.996C127.295 130.965 127.27 130.929 127.254 130.889C127.238 130.849 127.23 130.806 127.23 130.763V129.96ZM98.1 64.2375C98.1 64.3028 98.0741 64.3654 98.028 64.4115C97.9819 64.4576 97.9193 64.4835 97.854 64.4835H97.1408C96.8378 65.3216 96.0713 67.5154 95.9036 68.1356C95.8774 68.2099 95.8346 68.277 95.7788 68.3321C95.7319 68.3719 95.673 68.3948 95.6111 68.3963C95.5676 68.3972 95.5244 68.3887 95.4844 68.3714C95.4444 68.3541 95.4086 68.3285 95.3794 68.2961C95.3794 68.2961 94.6091 67.5439 94.3703 67.2761C94.0136 66.8981 94.1741 66.72 94.224 66.6878C94.266 66.6608 94.3136 66.6446 94.3631 66.6413C94.4415 66.6491 94.5169 66.6776 94.5806 66.7234L94.8304 66.9836C94.8966 67.0564 94.9656 67.1267 95.037 67.1944L95.2331 67.3939L95.4544 67.6151C95.6363 67.0301 96.4493 64.7333 96.6668 64.1591C96.6851 64.1288 96.708 64.101 96.7343 64.077C96.7577 64.0508 96.7863 64.0296 96.8183 64.0147C96.8501 63.9998 96.8847 63.9918 96.9199 63.9915H97.8398C97.8731 63.9893 97.9069 63.9945 97.9384 64.0058C97.9701 64.017 97.9991 64.0347 98.0235 64.0578C98.048 64.0809 98.0672 64.1089 98.0801 64.14C98.0933 64.1708 98.1001 64.204 98.1 64.2375Z" fill="#454056"/>
<path d="M131.441 36.612H76.4925C74.8358 36.612 73.4925 37.9552 73.4925 39.612V48.1995C73.4925 48.9951 73.8086 49.7582 74.3712 50.3208C74.9338 50.8834 75.6969 51.1995 76.4925 51.1995H131.441C132.237 51.1995 133 50.8834 133.563 50.3208C134.125 49.7582 134.441 48.9951 134.441 48.1995V39.612C134.441 37.9552 133.098 36.612 131.441 36.612Z" fill="black"/>
<path d="M106.924 40.9838V46.6654C106.922 46.8066 106.864 46.9414 106.763 47.0404C106.662 47.139 106.527 47.1941 106.385 47.193C106.316 47.1941 106.246 47.181 106.182 47.1548C106.118 47.1289 106.059 47.0899 106.01 47.0408C105.961 46.9916 105.922 46.9328 105.896 46.8683C105.87 46.8038 105.856 46.7348 105.858 46.6654V41.9287L105.473 42.1534C105.391 42.2041 105.297 42.2301 105.201 42.2284C105.086 42.2259 104.975 42.1864 104.884 42.1156C104.792 42.0448 104.727 41.9465 104.696 41.8354C104.665 41.7244 104.67 41.6063 104.711 41.4986C104.752 41.391 104.826 41.2992 104.923 41.2369L106.107 40.5236C106.107 40.5236 106.136 40.5236 106.146 40.5056C106.157 40.4876 106.175 40.4843 106.192 40.4771H106.25C106.262 40.4723 106.277 40.4723 106.289 40.4771C106.311 40.4719 106.334 40.4719 106.357 40.4771H106.499C106.521 40.4775 106.542 40.485 106.56 40.4985H106.596C106.603 40.4985 106.635 40.527 106.656 40.527C106.665 40.5401 106.677 40.5499 106.692 40.5555C106.692 40.5555 106.724 40.5769 106.731 40.5878C106.738 40.5986 106.76 40.6163 106.77 40.6234C106.782 40.635 106.791 40.6485 106.799 40.6628L106.838 40.7018V40.7516C106.838 40.7625 106.86 40.7801 106.86 40.7981V40.8446C106.859 40.8611 106.859 40.8776 106.86 40.8945C106.858 40.9065 106.858 40.9185 106.861 40.9301C106.864 40.9418 106.87 40.9526 106.877 40.9624L106.924 40.9838ZM112.496 46.6687C112.497 46.7384 112.484 46.8075 112.458 46.872C112.432 46.9365 112.393 46.995 112.344 47.0441C112.295 47.0934 112.236 47.1322 112.172 47.1585C112.107 47.1847 112.038 47.1975 111.969 47.1968H108.535C108.46 47.1982 108.386 47.1832 108.318 47.1529C108.249 47.1229 108.188 47.0783 108.139 47.022C108.044 46.9186 107.994 46.7818 107.999 46.6415C108.004 46.5012 108.065 46.3686 108.168 46.2727L111.02 43.6905C111.151 43.5755 111.255 43.4333 111.326 43.2739C111.396 43.1142 111.43 42.9412 111.427 42.7669C111.427 42.4579 111.314 42.1597 111.109 41.9287C110.992 41.7997 110.849 41.697 110.689 41.6276C110.529 41.5582 110.356 41.5234 110.182 41.5256C109.875 41.5268 109.578 41.6397 109.348 41.8433L109.048 42.1144C108.997 42.1616 108.936 42.1984 108.87 42.222C108.804 42.2459 108.734 42.2562 108.664 42.2524C108.594 42.249 108.525 42.2314 108.462 42.201C108.399 42.1703 108.342 42.1275 108.296 42.075C108.202 41.9696 108.153 41.8316 108.161 41.6906C108.168 41.5496 108.231 41.4173 108.335 41.3224L108.635 41.055C109.056 40.6661 109.609 40.452 110.182 40.4558C110.506 40.4561 110.825 40.524 111.121 40.6556C111.416 40.7871 111.681 40.9789 111.897 41.2189C112.284 41.6411 112.497 42.1943 112.493 42.7669C112.493 43.0899 112.425 43.4094 112.294 43.7047C112.163 44.0001 111.972 44.265 111.733 44.4825L109.915 46.1269H111.965C112.036 46.1268 112.106 46.1408 112.171 46.1681C112.236 46.1955 112.295 46.2356 112.345 46.2863C112.394 46.3368 112.433 46.3965 112.459 46.4621C112.485 46.5278 112.498 46.5982 112.496 46.6687ZM117.476 43.125C117.702 43.3432 117.882 43.6047 118.004 43.8938C118.127 44.1832 118.189 44.4942 118.189 44.8084C118.19 45.1621 118.112 45.5116 117.962 45.8316C117.811 46.1516 117.591 46.4342 117.318 46.659C117.045 46.8837 116.726 47.045 116.382 47.1312C116.039 47.2174 115.682 47.2263 115.335 47.1574C114.871 47.0651 114.444 46.8371 114.11 46.5026C114.059 46.452 114.019 46.392 113.991 46.326C113.964 46.26 113.949 46.1891 113.949 46.1171C113.949 46.0455 113.964 45.9746 113.991 45.9086C114.019 45.8425 114.059 45.7825 114.11 45.732C114.213 45.6311 114.351 45.5745 114.495 45.5745C114.639 45.5745 114.778 45.6311 114.88 45.732C115 45.8524 115.142 45.9476 115.299 46.0125C115.456 46.0775 115.624 46.1107 115.793 46.11C116.139 46.1096 116.47 45.9739 116.716 45.732C116.839 45.6116 116.937 45.468 117.003 45.3094C117.069 45.1507 117.103 44.9801 117.102 44.8084C117.103 44.6379 117.07 44.469 117.004 44.3119C116.938 44.1548 116.84 44.013 116.716 43.8953C116.598 43.7734 116.456 43.6766 116.299 43.6106C116.142 43.5446 115.974 43.5101 115.804 43.5101C115.729 43.5139 115.654 43.5 115.585 43.4696C115.517 43.4392 115.456 43.3932 115.408 43.3354C115.358 43.2851 115.318 43.2251 115.29 43.1595C115.263 43.0937 115.249 43.023 115.249 42.9518C115.249 42.8805 115.263 42.81 115.29 42.7444C115.317 42.6788 115.358 42.6188 115.408 42.5685L116.388 41.5661H114.83C114.694 41.5553 114.566 41.493 114.473 41.3921C114.38 41.2912 114.329 41.1592 114.329 41.0224C114.329 40.8854 114.381 40.7535 114.474 40.6528C114.567 40.5521 114.694 40.4898 114.83 40.4783H117.683C117.81 40.4919 117.928 40.5504 118.017 40.6432C118.105 40.7359 118.157 40.8571 118.164 40.9849C118.163 41.0756 118.139 41.1649 118.097 41.2451C118.07 41.294 118.038 41.3396 118 41.3809L116.788 42.6326C117.048 42.7493 117.282 42.9167 117.476 43.125ZM124.849 45.4087C124.849 45.4789 124.835 45.5486 124.808 45.6131C124.78 45.6779 124.741 45.7367 124.691 45.786C124.64 45.8351 124.581 45.8738 124.515 45.8996C124.45 45.9254 124.38 45.938 124.31 45.9368H124.225V46.6714C124.225 46.8131 124.168 46.9493 124.068 47.0498C123.967 47.1503 123.832 47.2065 123.69 47.2065C123.548 47.2062 123.412 47.1497 123.312 47.0494C123.212 46.9491 123.155 46.8132 123.155 46.6714V45.9368H120.124C120.004 45.9409 119.887 45.9 119.796 45.8224C119.74 45.7802 119.694 45.7273 119.66 45.6668C119.625 45.606 119.603 45.5392 119.595 45.4699C119.587 45.4005 119.593 45.3302 119.613 45.2633C119.633 45.1961 119.666 45.1342 119.711 45.0806L123.294 40.6331C123.306 40.622 123.316 40.6086 123.322 40.5938C123.342 40.5896 123.359 40.5799 123.372 40.5653C123.372 40.5653 123.401 40.5653 123.408 40.5368C123.426 40.5251 123.447 40.5188 123.469 40.5188C123.469 40.4974 123.487 40.4903 123.504 40.4903C123.522 40.4903 123.533 40.4903 123.565 40.4689C123.597 40.4475 123.594 40.4689 123.601 40.4689H123.765C123.781 40.4738 123.798 40.4738 123.815 40.4689C123.815 40.4689 123.854 40.4689 123.872 40.4903H123.911C123.929 40.5116 123.95 40.5188 123.957 40.5296L124.007 40.5581C124.007 40.5581 124.039 40.5581 124.039 40.5758L124.075 40.6151C124.086 40.6275 124.095 40.6406 124.104 40.6545C124.119 40.6677 124.132 40.6833 124.143 40.7006C124.145 40.716 124.152 40.7303 124.164 40.74C124.164 40.7614 124.164 40.7685 124.182 40.797C124.2 40.8255 124.182 40.8255 124.182 40.8364C124.186 40.8552 124.186 40.8746 124.182 40.8934V44.8665H124.278C124.352 44.8616 124.426 44.8721 124.496 44.8972C124.565 44.9224 124.629 44.9616 124.682 45.0124C124.736 45.063 124.778 45.1249 124.807 45.1931C124.836 45.2613 124.85 45.3348 124.849 45.4087ZM123.155 42.5017L121.24 44.8774H123.155V42.5017ZM129.645 43.125C129.871 43.3451 130.051 43.6088 130.173 43.8998C130.296 44.1908 130.359 44.5035 130.358 44.8192C130.356 45.1327 130.292 45.4429 130.169 45.732C130.047 46.0207 129.869 46.2825 129.645 46.5026C129.426 46.7275 129.164 46.9065 128.876 47.0291C128.586 47.1514 128.276 47.2151 127.962 47.2159H127.941C127.628 47.2152 127.319 47.1517 127.032 47.0291C126.745 46.9065 126.485 46.7276 126.268 46.5026C126.215 46.4535 126.173 46.3939 126.144 46.3275C126.115 46.2613 126.1 46.1898 126.1 46.1175C126.1 46.0451 126.115 45.9735 126.144 45.9071C126.173 45.8407 126.215 45.7811 126.268 45.732C126.37 45.6311 126.508 45.5749 126.651 45.5749C126.795 45.5749 126.933 45.6314 127.035 45.732C127.155 45.8541 127.298 45.9511 127.456 46.0174C127.614 46.0834 127.784 46.1175 127.955 46.1175C128.126 46.1175 128.295 46.0834 128.454 46.0174C128.612 45.9511 128.755 45.8541 128.875 45.732C129.117 45.4897 129.256 45.1621 129.26 44.8192C129.26 44.6482 129.227 44.4791 129.162 44.3213C129.097 44.1632 129.001 44.0196 128.881 43.8986C128.76 43.7779 128.617 43.6819 128.459 43.6162C128.302 43.5508 128.133 43.5171 127.962 43.5172C127.618 43.5089 127.285 43.6371 127.035 43.8739C126.985 43.925 126.925 43.9655 126.859 43.9931C126.794 44.0207 126.723 44.0347 126.651 44.0344C126.58 44.0345 126.509 44.0203 126.444 43.9928C126.378 43.9652 126.318 43.9248 126.268 43.8739C126.229 43.8383 126.2 43.7884 126.161 43.749C126.122 43.7096 126.161 43.7205 126.161 43.7205C126.167 43.7055 126.167 43.689 126.161 43.674V43.5851C126.154 43.5319 126.154 43.4779 126.161 43.4246L126.45 40.9279C126.477 40.7726 126.564 40.6343 126.693 40.5428H126.732C126.742 40.5428 126.75 40.5428 126.76 40.5248C126.837 40.4838 126.923 40.4629 127.01 40.464H129.862C129.934 40.464 130.005 40.4781 130.071 40.5056C130.137 40.5331 130.197 40.5734 130.248 40.6241C130.35 40.7265 130.408 40.8653 130.408 41.01C130.408 41.1548 130.35 41.2935 130.248 41.3959C130.197 41.4466 130.137 41.4868 130.071 41.5142C130.005 41.5416 129.934 41.5557 129.862 41.5556H127.434L127.32 42.5077C127.53 42.45 127.748 42.42 127.965 42.4189C128.278 42.4184 128.588 42.4808 128.877 42.6023C129.165 42.7234 129.426 42.9011 129.645 43.125Z" fill="white"/>
<path d="M115.065 32.2204L114.923 32.256C114.926 32.2395 114.935 32.2245 114.948 32.2133L115.065 32.2204Z" fill="#1F1B2D"/>
<path d="M119.167 135.263H119.103V135.216L119.167 135.263Z" fill="#FDBC31"/>
<path d="M43.0275 33.975C43.6478 38.562 47.064 49.4509 49.6133 50.1465C51.9881 50.7885 62.4247 47.6782 63.7691 45.606C64.4824 44.4967 67.3346 34.3102 66.0619 34.9061C64.4501 35.673 52.6298 41.6505 52.1558 41.5294C51.1286 41.2725 49.1284 37.2281 47.3955 34.9669C43.6159 30.0521 42.7388 31.8349 43.0275 33.975Z" fill="#D3735D"/>
<path d="M50.1563 38.5312L44.8076 43.4351C44.8076 43.4351 42.9143 36.4305 42.7005 33.1882C42.4868 29.946 45.1358 30.3101 50.1563 38.5312Z" fill="#1F1B2D"/>
<path d="M29.802 83.97C29.802 83.97 24.6281 92.7761 18.9124 88.7779C13.1966 84.7796 19.7216 76.908 19.7216 76.908L29.802 83.97Z" fill="#FF98B9"/>
<path d="M19.4936 77.22L29.5725 84.3004L70.8337 25.5341L60.7553 18.4541L19.494 77.2204L19.4936 77.22Z" fill="#1F1B2D"/>
<path d="M19.4936 77.22L29.5725 84.3004L70.8337 25.5341L60.7553 18.4541L19.494 77.2204L19.4936 77.22Z" fill="#A237EE"/>
<path d="M18.4238 76.9425L30.192 85.2097L31.8315 82.8746L20.0633 74.6077L18.4238 76.9425ZM20.2403 74.3625L32.0085 82.6294L33.648 80.2942L21.8798 72.0274L20.2403 74.3625Z" fill="#454056"/>
<path d="M60.7575 18.453L69.6322 13.8769L72.5561 12.354L72.1391 15.6353L70.8375 25.554L68.7874 26.3029L68.8193 24.138L66.7691 24.8835L66.8014 22.7186L64.776 23.4818V21.3026L62.7506 22.0658V19.8829L60.7575 20.6318V18.453Z" fill="#D5D2DC"/>
<path d="M69.63 13.863L72.5539 12.3401L72.1331 15.6214L69.63 13.863Z" fill="#454056"/>
<path opacity="0.1" d="M33.4819 73.62L41.2087 62.3494L49.0249 51.1395L56.9123 39.9795L60.8842 34.419L64.8922 28.8836L61.0447 34.5334L57.1654 40.158L49.3459 51.3682L41.4547 62.5245L33.4819 73.62ZM30.6945 71.9812L38.4214 60.7106L46.2371 49.497L54.1282 38.3404L58.1002 32.7802L62.1045 27.2449L58.2607 32.8909L54.3776 38.5155L46.5615 49.7291L38.6707 60.8857L30.6945 71.9816V71.9812ZM27.9053 70.3462L35.6321 59.0719L43.4482 47.862L51.339 36.7054L55.3114 31.1449L59.3299 25.6057L55.4857 31.2555L51.603 36.8801L43.7906 48.09L35.8995 59.2504L27.9053 70.3462Z" fill="white"/>
<path d="M65.6475 34.1572C65.8399 35.6801 66.8813 37.8345 66.6566 38.9542C66.6114 39.2318 66.4782 39.4875 66.2768 39.6836C66.075 39.8795 65.8156 40.0052 65.5369 40.0421C65.5369 40.0421 66.4354 40.9301 66.0645 41.9111C65.8755 42.4177 64.8986 42.5569 64.8986 42.5569C65.0918 42.7691 65.223 43.0305 65.277 43.3125C65.331 43.5945 65.3063 43.8859 65.2054 44.1547C64.9024 44.8324 63.9716 44.868 63.9716 44.868C63.9716 44.868 64.2997 45.888 63.7684 46.4835C62.6985 47.6854 56.6085 45.6952 56.4015 43.1486C56.3055 41.961 57.7639 42.528 57.7639 42.528C57.7639 42.528 55.863 41.205 56.241 39.9424C56.619 38.6797 58.4696 39.5287 58.4696 39.5287C58.4696 39.5287 56.6404 38.2305 57.1646 36.9607C57.6889 35.691 59.4146 36.8074 59.4146 36.8074C59.4146 36.8074 58.3448 35.4484 58.9868 34.5675C60.0173 33.1121 61.9106 35.994 63.351 36.1046L64.8094 34.143L65.6475 34.1572Z" fill="#D3735D"/>
<path d="M66.24 36.4717C66.1792 35.013 68.3152 33.936 68.4615 32.5485C68.6576 30.651 66.0937 31.7351 64.8101 34.164L64.1434 36.2254L66.24 36.4717Z" fill="#D3735D"/>
<path d="M63.825 44.9063C63.8464 44.9063 63.825 44.9419 63.825 44.9385C61.5803 44.7728 59.4386 43.9283 57.6851 42.5168C57.6315 42.4703 57.6851 42.3596 57.7526 42.399C59.6444 43.5248 61.69 44.3694 63.825 44.9063ZM64.9275 42.5775C64.9489 42.5775 64.9275 42.6236 64.9275 42.6236C62.4487 42.4168 60.1261 41.3287 58.3808 39.5565C58.3238 39.492 58.3346 39.3746 58.4059 39.4421C59.6434 40.5941 62.913 42.1065 64.9275 42.5775ZM59.3288 36.636C61.0474 38.3479 63.144 39.3323 65.4405 40.0388C65.4724 40.0388 65.4405 40.0886 65.4405 40.0886C64.2244 40.0493 62.8054 39.4466 61.7426 38.8864C60.7463 38.3831 59.898 37.6283 59.2826 36.6968C59.2466 36.6574 59.2969 36.597 59.3288 36.636Z" fill="#1F1B2D"/>
<path d="M67.86 144.728C67.0433 144.992 43.7344 144.688 42.8539 144.114C42.4973 143.9 42.3619 140.501 42.294 136.389V136.26L42.2655 133.653V133.296L42.3296 121.198L57.9225 121.355L57.3413 136.292V136.549C57.3413 136.549 66.2126 140.654 67.1111 141.389C68.0096 142.124 68.6764 144.467 67.86 144.728Z" fill="#D3735D"/>
<path d="M67.8637 144.727C67.0474 144.991 43.7381 144.688 42.8576 144.114C42.501 143.9 42.3656 140.501 42.2977 136.389V136.26L42.2692 133.653V133.296L57.4556 133.339L57.4376 133.813L57.345 136.292V136.549C57.345 136.549 66.2164 140.654 67.1149 141.389C68.0134 142.124 68.6801 144.467 67.8637 144.727Z" fill="#EFECF3"/>
<path d="M67.86 144.727C67.3537 144.892 58.3256 144.838 51.2546 144.639C46.8405 144.517 43.1929 144.335 42.8539 144.114C42.5149 143.893 42.3656 140.598 42.2977 136.56V136.257L57.3379 136.285V136.542C57.3379 136.542 66.2092 140.647 67.1077 141.382C68.0062 142.117 68.6767 144.467 67.86 144.727Z" fill="black"/>
<path d="M67.6087 143.82C63.6866 143.67 47.8264 143.463 43.929 143.599C43.9005 143.599 43.9005 143.624 43.929 143.624C47.8192 143.856 63.6795 143.952 67.6087 143.884C67.6909 143.88 67.6909 143.823 67.6087 143.82Z" fill="#F5F4F8"/>
<path d="M51.255 144.638C46.8409 144.516 43.1933 144.334 42.8543 144.113C42.5153 143.892 42.366 140.597 42.2981 136.559L51.255 144.638Z" fill="#454056"/>
<path d="M37.6387 54.03L41.7071 96.435C41.8391 97.1198 41.9212 100.843 41.9745 105.63V136.417H58.4055C58.4055 136.417 57.9667 102.273 57.2392 96.2659L51.8625 54.0296H37.6387V54.03Z" fill="#666276"/>
<path d="M57.6638 133.553C55.0999 133.499 55.8345 133.481 53.2706 133.457C52.0155 133.457 43.7681 133.371 42.5985 133.563C42.5933 133.565 42.5884 133.569 42.585 133.574C42.5816 133.579 42.5801 133.584 42.5801 133.59C42.5801 133.596 42.582 133.602 42.585 133.607C42.5885 133.611 42.5932 133.615 42.5985 133.617C43.7719 133.813 52.0155 133.738 53.2706 133.727L57.6638 133.628C57.7103 133.628 57.7103 133.556 57.6638 133.553ZM45.15 113.385L45.0964 106.234C45.0788 103.923 45.0964 101.597 44.9719 99.3075C44.7506 94.635 43.8023 90.0341 43.1284 85.4261C42.4545 80.8181 41.8946 76.1528 41.3846 71.5159L39.7729 55.8833C39.7729 55.851 39.7159 55.851 39.7193 55.8833C40.4933 65.1851 41.3561 74.487 42.6431 83.7353L43.713 90.6225C44.0944 92.9445 44.4761 95.2594 44.658 97.6099C44.8399 99.9604 44.8684 102.211 44.8898 104.511L44.961 111.645L45.0645 131.882C45.0645 131.982 45.225 131.978 45.225 131.882L45.15 113.385Z" fill="#1F1B2D"/>
<path d="M34.1734 54.03L41.7075 96.435C41.8395 97.1197 41.9216 100.843 41.9752 105.63L49.8195 54.0146L34.1734 54.0289V54.03Z" fill="#454056"/>
<path d="M48.525 146.119C47.6906 146.322 24.4635 144.371 23.6257 143.733C23.3047 143.497 23.3902 140.095 23.6257 135.986V135.858L23.7825 133.257C23.7825 133.136 23.7825 133.015 23.8039 132.901L24.7237 120.838L40.263 122.101L38.6261 136.96L38.6014 137.213C38.6014 137.213 47.1589 141.939 48.0041 142.734C48.8494 143.529 49.3451 145.915 48.525 146.119Z" fill="#D3735D"/>
<path d="M48.525 146.119C47.6906 146.322 24.4635 144.371 23.6257 143.733C23.3047 143.497 23.3902 140.094 23.6257 135.985V135.857L23.7825 133.257C23.7825 133.136 23.7825 133.015 23.8039 132.9L38.9475 134.017L38.8976 134.491L38.6265 136.959L38.6018 137.212C38.6018 137.212 47.1592 141.939 48.0045 142.734C48.8497 143.529 49.3451 145.915 48.525 146.119Z" fill="#EFECF3"/>
<path d="M48.525 146.119C47.6906 146.322 24.4635 144.371 23.6257 143.733C23.3047 143.497 23.3902 140.094 23.6257 135.986V135.857L38.6265 136.952L38.6018 137.205C38.6018 137.205 47.1592 141.932 48.0045 142.727C48.8497 143.522 49.3451 145.915 48.525 146.119Z" fill="black"/>
<path d="M48.3375 145.192C44.4154 144.768 28.6298 143.409 24.7328 143.295C24.7005 143.295 24.7005 143.316 24.7328 143.32C28.5945 143.826 44.4082 145.046 48.3304 145.257C48.4159 145.26 48.4196 145.2 48.3375 145.192Z" fill="#F5F4F8"/>
<path d="M39.27 136.744L22.8679 136.048L27.1646 96.8531C27.3821 91.107 31.1974 54.0131 31.1974 54.0131H51.2471C51.2471 54.0131 49.9811 62.5732 47.817 68.0051C46.3701 68.5162 44.9725 69.1573 43.6414 69.9206L42.372 98.9032C42.2152 104.949 39.27 136.741 39.27 136.741V136.744Z" fill="#666276"/>
<path d="M38.8313 133.736C36.2749 133.576 37.0091 133.587 34.449 133.451C33.1973 133.387 24.9608 132.966 23.7803 133.112C23.7555 133.112 23.7518 133.158 23.7803 133.162C24.9461 133.408 33.1868 133.683 34.4415 133.726L38.8309 133.811C38.8369 133.813 38.8432 133.813 38.8492 133.812C38.8552 133.811 38.8609 133.809 38.8661 133.805C38.8714 133.801 38.8748 133.797 38.8778 133.791C38.8808 133.786 38.8819 133.78 38.8819 133.774C38.8819 133.768 38.8804 133.761 38.8778 133.756C38.8751 133.751 38.871 133.746 38.8661 133.742C38.861 133.739 38.8553 133.736 38.8492 133.735C38.8432 133.734 38.8373 133.734 38.8313 133.736ZM32.6655 56.2162L30.3049 84.2321C29.4525 93.5662 26.0261 125.771 25.2274 130.957C25.2274 130.993 25.2739 131.007 25.281 130.957C26.9355 121.734 27.8981 109.339 28.9358 100.027C29.9734 90.7147 30.8149 81.3806 31.5671 72.0465L32.7829 56.1964C32.79 56.139 32.6723 56.1427 32.6651 56.2177L32.6655 56.2162ZM48.5325 67.6387C46.8386 68.2579 45.2018 69.0229 43.6403 69.9251C43.6271 69.9311 43.6166 69.9424 43.6117 69.9562C43.6069 69.9701 43.6073 69.9851 43.6136 69.9982C43.62 70.0114 43.6309 70.0219 43.6444 70.0267C43.6579 70.0316 43.6733 70.0312 43.6868 70.0249C45.3413 69.3116 47.0276 68.6377 48.6394 67.8352C48.6653 67.8209 48.6846 67.7969 48.6929 67.7685C48.7013 67.74 48.6981 67.7095 48.684 67.6834C48.6697 67.6574 48.6457 67.6381 48.6172 67.6297C48.5891 67.6215 48.5584 67.6249 48.5325 67.6387ZM49.0613 56.2837C49.0613 56.2264 48.954 56.2121 48.954 56.2837C48.9548 58.1299 48.8632 59.975 48.6795 61.812C48.6011 62.6644 47.9164 67.3759 46.4366 67.0335C46.1906 66.9727 46.08 66.7305 46.0267 66.3596C46.032 65.8717 46.098 65.3865 46.2229 64.9151C46.3868 63.927 46.5187 62.9389 46.6009 61.944C46.7745 60.0889 46.7554 58.2206 46.5439 56.3692C46.5409 56.3587 46.5345 56.3494 46.5259 56.3426C46.5173 56.3359 46.5064 56.3325 46.4955 56.3325C46.4846 56.3325 46.4741 56.3362 46.4655 56.3426C46.4569 56.349 46.4505 56.3587 46.4475 56.3692C46.4906 58.9402 46.3406 61.5105 45.9983 64.059C45.8126 65.286 45.1957 67.1299 46.476 67.3189C47.7562 67.5079 48.6154 64.4227 48.783 63.5775C49.191 61.1685 49.2848 58.7167 49.0613 56.2837Z" fill="#1F1B2D"/>
<path d="M46.4925 67.1475C46.362 67.4663 46.2514 67.7925 46.1606 68.1248C46.0645 68.3811 46.0186 68.6535 46.0252 68.9273C46.0252 68.9771 46.0965 68.9843 46.125 68.9486C46.2821 68.7075 46.4021 68.4443 46.4816 68.1675L46.8131 67.2615C46.8285 67.2191 46.8259 67.1723 46.8067 67.1314C46.7876 67.0905 46.7524 67.059 46.71 67.044C46.6676 67.029 46.6204 67.0313 46.5799 67.0508C46.5596 67.0603 46.5415 67.0737 46.5265 67.0903C46.5115 67.107 46.4999 67.1264 46.4925 67.1475Z" fill="#1F1B2D"/>
<path d="M29.9723 60.9563C30.0259 61.017 53.5665 60.432 53.7769 60.1823C54.0656 59.8256 47.6723 35.6543 45.9645 32.0663C45.2513 30.5396 41.4503 30.1616 39.9026 31.5064C35.9805 34.8769 32.8819 46.1865 32.1829 49.5893C31.0099 55.2101 29.769 60.7564 29.9723 60.9563Z" fill="#9691A4"/>
<path d="M42.5475 39.135C42.6506 39.3773 42.7177 39.6334 42.747 39.8948C42.4316 39.4777 42.229 38.9864 42.1586 38.4683C42.3192 38.671 42.4501 38.8955 42.5475 39.135ZM44.4266 48.273C44.4578 48.5342 44.5249 48.7899 44.6261 49.0327C44.7221 49.2774 44.8531 49.5068 45.015 49.7138C44.9839 49.4539 44.9167 49.1993 44.8151 48.9578C44.718 48.7125 44.5871 48.4822 44.4266 48.273ZM46.6301 58.9515C46.6612 59.2117 46.7284 59.466 46.83 59.7075C46.9256 59.9534 47.0565 60.1841 47.2185 60.3923C47.1496 59.8737 46.9468 59.3821 46.6301 58.9658V58.9515ZM36.3397 45.5978C36.3673 45.8597 36.4346 46.1158 36.5392 46.3575C36.6337 46.6024 36.7635 46.8319 36.9244 47.0389C36.8546 46.521 36.6532 46.0298 36.3397 45.612V45.5978ZM32.6209 52.3388C32.6906 52.8566 32.892 53.3479 33.2055 53.7656C33.1774 53.5042 33.1113 53.2483 33.0094 53.0059C32.9111 52.7666 32.7802 52.5424 32.6209 52.3388ZM41.6992 56.5725C41.769 57.0903 41.9702 57.5815 42.2839 57.9994C42.2565 57.7384 42.189 57.4834 42.0844 57.243C41.9887 57.0022 41.859 56.7765 41.6992 56.5725ZM49.1872 44.3745C49.2169 44.6359 49.284 44.892 49.3867 45.1343C49.4813 45.3789 49.6111 45.6084 49.7719 45.8156C49.7438 45.5542 49.6778 45.2982 49.5757 45.0559C49.4831 44.8125 49.3571 44.5834 49.2015 44.3745H49.1872ZM39.1534 42.6945C39.4138 42.6652 39.6685 42.598 39.9094 42.495C40.155 42.4005 40.3855 42.2708 40.5937 42.1099C40.3319 42.1374 40.0759 42.2046 39.8344 42.3094C39.5949 42.4053 39.3704 42.535 39.1676 42.6945H39.1534ZM36.6574 51.1868C36.9187 51.1564 37.1745 51.0889 37.4167 50.9873C37.662 50.8898 37.8922 50.7589 38.1015 50.5984C37.5833 50.6686 37.092 50.8713 36.675 51.1868H36.6574ZM37.3706 60.8167H37.7876L37.9481 60.7564C38.1932 60.6588 38.4236 60.528 38.6329 60.3675C38.1842 60.4301 37.7539 60.5869 37.3702 60.8276L37.3706 60.8167ZM46.4914 53.1094C47.0099 53.0404 47.5016 52.8375 47.9179 52.5206C47.3993 52.5896 46.9077 52.7925 46.4914 53.1094ZM39.4777 35.2759C39.9962 35.2071 40.4877 35.0043 40.9039 34.6875C40.3856 34.7565 39.894 34.9594 39.4777 35.2759ZM37.3204 36.4316C37.158 36.6383 37.0249 36.8663 36.9247 37.1093C36.8189 37.3497 36.7491 37.6044 36.7177 37.8652C36.8825 37.6603 37.0159 37.4319 37.1134 37.1876C37.2206 36.948 37.2937 36.6949 37.3309 36.435L37.3204 36.4316ZM33.6975 47.2601C33.5327 47.4651 33.3993 47.6935 33.3019 47.9377C33.1965 48.1786 33.1257 48.4331 33.0915 48.6938C33.2546 48.4879 33.3881 48.2595 33.4871 48.0161C33.5951 47.7765 33.6694 47.5234 33.7084 47.2635L33.6975 47.2601ZM33.537 57.1433C33.3754 57.3506 33.2422 57.5782 33.1414 57.8209C33.038 58.0622 32.9683 58.3166 32.9344 58.5769C33.0992 58.3719 33.2326 58.1435 33.33 57.8992C33.4375 57.6599 33.5108 57.4065 33.5475 57.1466L33.537 57.1433ZM45.3431 43.1228C45.1815 43.3305 45.0495 43.5596 44.9509 43.8037C44.8437 44.0441 44.7728 44.299 44.7405 44.5601C44.9036 44.3539 45.0367 44.1259 45.1361 43.8825C45.2415 43.6406 45.3112 43.3845 45.3431 43.1228ZM41.5384 51.8467C41.2162 52.2615 41.0085 52.7535 40.9357 53.2732C41.0966 53.0655 41.2294 52.8379 41.3317 52.5956C41.4345 52.3568 41.5039 52.1047 41.5384 51.8467ZM50.6737 55.8664C50.509 56.0714 50.3755 56.2998 50.2778 56.544C50.1724 56.7847 50.1019 57.0394 50.0674 57.3C50.2323 57.0951 50.3658 56.8667 50.4634 56.6224C50.568 56.3812 50.6389 56.127 50.6737 55.8664ZM45.2396 35.5365C45.0772 35.7424 44.9452 35.9707 44.8474 36.2141C44.7405 36.4544 44.6696 36.7092 44.637 36.9701C44.9589 36.5554 45.1667 36.0636 45.2396 35.5436V35.5365ZM48.0922 40.8221C47.8852 40.6598 47.6576 40.5266 47.4146 40.4261C47.1742 40.3203 46.9194 40.2507 46.6586 40.2195C46.8641 40.3834 47.0925 40.5169 47.3362 40.6151C47.58 40.7134 47.8399 40.7771 48.1027 40.8041L48.0922 40.8221ZM37.9691 55.8555C37.7631 55.6922 37.5349 55.559 37.2915 55.4599C37.0504 55.3553 36.7961 55.2844 36.5355 55.2491C36.9509 55.5704 37.442 55.7793 37.9616 55.8555H37.9691ZM50.7165 49.7674C50.3019 49.4453 49.8102 49.2376 49.2904 49.1648C49.4977 49.3253 49.7257 49.4584 49.9676 49.5604C50.2065 49.6631 50.4585 49.7329 50.7165 49.7674ZM34.6387 41.061C34.8169 41.1863 35.0081 41.2916 35.2091 41.3749C35.45 41.4803 35.7045 41.5511 35.9651 41.5852C35.7596 41.4213 35.5313 41.288 35.2875 41.1896C35.0861 41.1026 34.8757 41.0392 34.6597 41.0006C34.651 41.0202 34.6443 41.0403 34.6387 41.061ZM45.2572 56.1731C45.0514 56.0097 44.8234 55.8764 44.58 55.7771C44.3392 55.671 44.0846 55.6001 43.824 55.5667C44.0291 55.7314 44.2571 55.8649 44.5016 55.9627C44.7423 56.0682 44.9967 56.139 45.2572 56.1731ZM42.141 46.3931C41.9351 46.23 41.7067 46.0965 41.4634 45.9975C41.223 45.8914 40.9684 45.8205 40.7077 45.7867C40.9125 45.9517 41.1408 46.0852 41.385 46.1827C41.6257 46.2881 41.8804 46.359 42.141 46.3931Z" fill="white"/>
<path d="M44.7675 35.5054C43.4198 35.7195 41.0235 33.3334 40.2499 31.6282C40.1963 31.5105 40.4603 30.3371 40.71 28.8997C40.8596 28.026 41.0059 27.0487 41.0666 26.1461C41.0666 25.9605 41.6835 26.3494 41.6835 26.3494L42.8243 26.706L46.6076 27.933C46.2015 29.0351 45.9308 30.1826 45.8018 31.35C45.7916 31.4685 45.7916 31.5881 45.8018 31.7066V31.7707C45.8839 32.5091 46.0691 35.2984 44.7675 35.5054Z" fill="#D3735D"/>
<path d="M45.8175 31.7355V31.7996C45.624 31.8154 45.4297 31.8154 45.2362 31.7996C41.439 31.443 41.3141 26.5567 41.3141 26.5567L42.8115 26.7349L46.5949 27.9619C46.1888 29.064 45.918 30.2111 45.789 31.3789C45.7884 31.4983 45.7979 31.6176 45.8175 31.7355Z" fill="#1F1B2D"/>
<path d="M40.5787 20.076C39.9187 22.0732 40.8461 27.8977 42.2437 29.2245C44.2725 31.1471 47.6565 31.4036 49.3072 28.95C50.9047 26.5747 49.5641 19.0027 47.9951 17.79C45.6881 16.0174 41.5519 17.1334 40.5787 20.076Z" fill="#D3735D"/>
<path d="M46.2 23.9745C46.2 23.9745 46.1715 23.9996 46.1753 24.0139C46.2503 24.4061 46.2679 24.8663 45.9326 25.0481V25.0695C46.3643 24.9341 46.332 24.3349 46.2 23.9745Z" fill="#1F1B2D"/>
<path d="M45.78 23.6179C45.1418 23.6678 45.288 24.9413 45.8798 24.8981C46.4715 24.855 46.3219 23.5785 45.78 23.6179ZM48.4313 23.6464C48.4313 23.6464 48.4631 23.6464 48.4631 23.6749C48.4988 24.0709 48.6023 24.5201 48.9731 24.6094V24.6345C48.531 24.6203 48.399 24.0248 48.4313 23.6464Z" fill="#1F1B2D"/>
<path d="M48.735 23.193C49.3661 23.0719 49.5623 24.3379 48.9776 24.4519C48.393 24.5659 48.2111 23.2928 48.735 23.193ZM45.2213 23.0933C45.3823 23.0248 45.5394 22.9474 45.6919 22.8615C45.87 22.805 46.0243 22.6909 46.1306 22.5371C46.1554 22.4826 46.1611 22.4213 46.1468 22.3631C46.1324 22.305 46.0992 22.2533 46.0523 22.2161C45.9492 22.155 45.8316 22.1228 45.7118 22.1228C45.5918 22.1228 45.474 22.155 45.3713 22.2161C45.1436 22.3084 44.9588 22.4828 44.8541 22.7048C44.8305 22.7569 44.8226 22.815 44.8324 22.8716C44.8418 22.9282 44.8679 22.9807 44.9074 23.0223C44.9468 23.064 44.9977 23.093 45.0536 23.1056C45.1095 23.1182 45.1678 23.1139 45.2213 23.0933ZM49.1588 22.494C48.983 22.4857 48.8079 22.4667 48.6345 22.437C48.4474 22.4385 48.2652 22.377 48.1174 22.2623C48.0769 22.2176 48.0529 22.1603 48.0488 22.1003C48.0448 22.04 48.0615 21.9803 48.096 21.9308C48.1763 21.8423 48.279 21.7774 48.393 21.7421C48.5073 21.707 48.6289 21.7033 48.7451 21.7313C48.99 21.7493 49.2191 21.8588 49.3868 22.038C49.4171 22.0808 49.4355 22.131 49.4396 22.1831C49.4438 22.2353 49.4333 22.2878 49.41 22.3346C49.3866 22.3816 49.3508 22.4212 49.3066 22.4494C49.2623 22.4775 49.2112 22.4927 49.1588 22.494ZM46.0875 27.5479C46.1944 27.63 46.3013 27.744 46.4438 27.7406C46.5893 27.7211 46.7291 27.6713 46.854 27.5944C46.854 27.5944 46.8825 27.5944 46.8754 27.612C46.8276 27.6961 46.758 27.7657 46.6739 27.8134C46.5898 27.8611 46.4943 27.8852 46.3976 27.8831C46.3137 27.8722 46.2348 27.8366 46.1711 27.7808C46.1076 27.7248 46.0623 27.6512 46.041 27.5693C46.038 27.5633 46.038 27.5561 46.0403 27.5498C46.0425 27.5434 46.0474 27.5381 46.0534 27.5355C46.0594 27.5329 46.0665 27.5325 46.0729 27.5348C46.0793 27.537 46.0845 27.5419 46.0875 27.5479ZM46.3688 26.3179C46.4861 26.4626 46.6323 26.5815 46.798 26.6668C46.9637 26.7521 47.1453 26.8021 47.3314 26.8136C47.4937 26.8264 47.657 26.8155 47.8163 26.7814C47.848 26.778 47.8792 26.7709 47.9093 26.76L47.9948 26.7349C48.015 26.7285 48.0326 26.7158 48.045 26.6981C48.0574 26.6805 48.0634 26.6595 48.0623 26.6385C48.0641 26.6254 48.0641 26.6122 48.0623 26.5991V26.5635C48.0375 26.2605 47.9554 25.8004 47.9554 25.8004C48.0731 25.8431 48.6686 26.0359 48.6401 25.8754C48.4494 24.5099 48.1184 23.1676 47.6524 21.87C47.6501 21.8628 47.6455 21.8566 47.6393 21.8524C47.6333 21.8479 47.6261 21.8456 47.6186 21.8456C47.6111 21.8456 47.6036 21.8479 47.5976 21.8524C47.5916 21.8569 47.5871 21.8629 47.5845 21.87C47.7521 23.1326 48.1444 24.3668 48.3371 25.6223C48.1248 25.5532 47.904 25.5136 47.6809 25.5045C47.6381 25.5225 47.8556 26.3891 47.8556 26.5245C47.6119 26.5766 47.3599 26.5796 47.115 26.5328C46.8702 26.4863 46.6371 26.3913 46.4295 26.2534C46.3688 26.2605 46.3403 26.2894 46.3688 26.3179Z" fill="#1F1B2D"/>
<path d="M47.6213 26.6456C47.4799 26.8815 47.2796 27.0769 47.04 27.2126C46.9088 27.2854 46.7573 27.3128 46.6088 27.291C46.284 27.2445 46.2521 26.9558 46.2735 26.7026C46.2889 26.5673 46.3211 26.4341 46.3699 26.3066C46.7401 26.5503 47.1787 26.6694 47.6213 26.6456Z" fill="#1F1B2D"/>
<path d="M47.04 27.213C46.9088 27.2857 46.7573 27.3131 46.6088 27.2914C46.284 27.2449 46.2521 26.9561 46.2735 26.703C46.44 26.6899 46.6058 26.733 46.7449 26.8252C46.884 26.9175 46.9879 27.0544 47.04 27.213Z" fill="#FF98B9"/>
<path d="M49.1325 20.3505C47.2676 21.7451 44.5613 19.8653 44.5613 19.8653C44.4146 20.2913 44.1349 20.6584 43.7629 20.9123C43.3909 21.1661 42.9465 21.2929 42.4965 21.2738C42.4965 21.2738 42.2543 24.5374 41.3985 24.5693C40.0935 24.6158 39.5051 20.2001 39.8831 19.3121C40.2611 18.4241 41.3558 18.1564 41.3558 18.1564C41.4551 17.6231 41.7533 17.1476 42.1901 16.8259C43.0493 16.1126 46.1659 16.8971 46.1659 16.8971C46.3239 16.4791 46.5778 16.104 46.9073 15.8021C46.9868 15.7271 47.0801 15.6694 47.1825 15.6315C47.2849 15.5936 47.3936 15.5771 47.5024 15.5824C47.6113 15.5877 47.7181 15.615 47.8163 15.6626C47.9145 15.7103 48.0019 15.777 48.0735 15.8595C47.9206 16.1062 47.8255 16.3842 47.7953 16.6729C47.6813 17.6325 48.4549 17.6003 48.4121 16.737C48.4101 16.413 48.2897 16.1009 48.0735 15.8595C48.4301 15.2816 49.0504 15.0713 49.446 15.3566C50.1559 15.8775 50.6835 19.1906 49.1325 20.3501V20.3505Z" fill="#1F1B2D"/>
<path d="M41.7075 24.834C41.7075 24.834 40.4025 22.9545 39.5505 23.4075C38.6985 23.8605 39.675 26.5961 40.6736 26.9741C40.7983 27.0308 40.933 27.0617 41.0699 27.065C41.2068 27.0683 41.3429 27.0439 41.4701 26.9932C41.5972 26.9426 41.7127 26.8669 41.8102 26.7705C41.9073 26.6739 41.984 26.5587 42.0356 26.4319L41.7075 24.834Z" fill="#D3735D"/>
<path d="M39.8512 24.192C39.8336 24.192 39.8336 24.2134 39.8512 24.2205C40.5645 24.5059 40.9211 25.155 41.1776 25.8293C41.1363 25.7595 41.0804 25.6995 41.0137 25.6534C40.9474 25.6069 40.8716 25.5758 40.7917 25.5611C40.7121 25.5467 40.6302 25.5495 40.5517 25.5694C40.473 25.5893 40.3995 25.6256 40.3361 25.6763C40.3185 25.6763 40.3361 25.7156 40.3575 25.7119C40.4805 25.6729 40.6125 25.6733 40.7351 25.713C40.8579 25.7526 40.9653 25.8295 41.0422 25.9331C41.172 26.106 41.2819 26.2924 41.3704 26.4896C41.4022 26.5538 41.5166 26.5219 41.4952 26.4469C41.5024 25.5375 40.8105 24.2854 39.8512 24.1928V24.192Z" fill="#1F1B2D"/>
<path d="M45.8775 79.125L36.7425 69.5914L53.2373 62.319L62.3726 71.8526L45.8775 79.125Z" fill="#EFECF3"/>
<path d="M46.5037 79.7775L37.365 70.2439L53.8598 62.9715L62.9985 72.5051L46.5037 79.7775Z" fill="#EFECF3"/>
<path d="M54.8288 63.9862C54.6925 64.0553 54.544 64.0967 54.3917 64.1083C54.2394 64.1199 54.0863 64.1014 53.9411 64.0537C53.8054 64.011 53.9017 63.8719 54.0337 63.9184C54.2234 63.9767 54.4274 63.9678 54.6113 63.8932L54.7005 63.8505C54.7987 63.8034 54.8833 63.7322 54.9465 63.6435C54.9713 63.6029 54.9826 63.5555 54.9787 63.5081V63.4687C54.9622 63.4427 54.9387 63.4218 54.9109 63.4084C54.8569 63.3806 54.7969 63.366 54.7361 63.3656C54.6616 63.3657 54.5874 63.3753 54.5152 63.3941C54.4796 63.3941 54.4436 63.3941 54.4046 63.4189H54.3262L54.1976 63.2835C54.3117 63.2358 54.4316 63.2034 54.5542 63.1871C54.6559 63.1672 54.7601 63.1699 54.8606 63.1946C54.9609 63.2192 55.0547 63.2652 55.1355 63.3296C55.1869 63.3836 55.2158 63.4552 55.2158 63.5295C55.2158 63.6037 55.1869 63.6754 55.1355 63.7294C55.0586 63.8415 54.9525 63.93 54.8288 63.9862Z" fill="#BBB7C5"/>
<path d="M55.545 64.7325C55.2689 64.8729 54.9485 64.8985 54.6536 64.8038C54.5183 64.7573 54.6143 64.6181 54.7463 64.6646C54.9372 64.7229 55.1423 64.714 55.3275 64.6395C55.3579 64.629 55.3864 64.6147 55.413 64.5967C55.5135 64.5517 55.5998 64.4801 55.6628 64.3901C55.6875 64.3493 55.6988 64.302 55.695 64.2544V64.2368C55.6774 64.2091 55.6527 64.1868 55.6234 64.1723C55.5695 64.1444 55.5093 64.131 55.4486 64.1333C55.3755 64.1303 55.302 64.1385 55.2311 64.158C55.1955 64.158 55.1599 64.176 55.1209 64.1831H55.0425L54.9105 64.0478C55.0245 63.9998 55.1445 63.9674 55.2671 63.9514C55.3691 63.9313 55.4742 63.9336 55.5751 63.9583C55.6761 63.9829 55.7705 64.0291 55.8518 64.0939C55.9024 64.1481 55.9306 64.2195 55.9305 64.2938C55.9305 64.368 55.9024 64.4392 55.8518 64.4932C55.7718 64.5981 55.6662 64.6805 55.545 64.7325Z" fill="#BBB7C5"/>
<path d="M56.2575 65.4788C55.9817 65.6164 55.663 65.6407 55.3695 65.5466C55.2341 65.5001 55.3305 65.3648 55.4621 65.4075C55.6517 65.4653 55.8552 65.4578 56.04 65.3861L56.1292 65.3434C56.2283 65.296 56.3131 65.2235 56.3752 65.133C56.4027 65.0949 56.4141 65.0475 56.4071 65.001L56.3895 64.9796C56.3752 64.9515 56.3509 64.9298 56.3216 64.9189C56.268 64.89 56.208 64.875 56.1469 64.8761C56.0735 64.8731 56.0002 64.8814 55.9294 64.9009L55.8188 64.9294H55.737L55.6084 64.794C55.7228 64.7464 55.8424 64.7141 55.965 64.6976C56.0665 64.678 56.171 64.6806 56.2714 64.7051C56.3717 64.7298 56.4655 64.776 56.5462 64.8405C56.5987 64.8944 56.628 64.9667 56.628 65.0419C56.628 65.1173 56.5987 65.1896 56.5462 65.2433C56.4697 65.3434 56.3708 65.424 56.2575 65.4788Z" fill="#BBB7C5"/>
<path d="M56.9775 66.225C56.7009 66.3642 56.3805 66.3885 56.0861 66.2925C55.9504 66.2497 56.0468 66.1106 56.1788 66.1571C56.3697 66.2154 56.5748 66.2065 56.76 66.132L56.8489 66.0892C56.948 66.042 57.0329 65.9695 57.0949 65.8789C57.1192 65.8393 57.1305 65.7932 57.1271 65.7469C57.1264 65.7409 57.1264 65.7349 57.1271 65.7289V65.7075C57.1109 65.6811 57.0873 65.6601 57.0593 65.6471C57.004 65.6193 56.943 65.6047 56.8811 65.6044C56.8077 65.6045 56.7346 65.614 56.6636 65.6329C56.6261 65.6381 56.5894 65.6464 56.553 65.6576H56.5316C56.52 65.6542 56.5076 65.6542 56.496 65.6576H56.4746L56.3464 65.5222C56.4601 65.4726 56.5801 65.4391 56.703 65.4225C56.805 65.4026 56.9104 65.4052 57.0113 65.4307C57.1123 65.456 57.2066 65.503 57.2876 65.5684C57.3383 65.6226 57.3666 65.694 57.3666 65.7682C57.3666 65.8425 57.3383 65.9139 57.2876 65.9681C57.2076 66.0786 57.1009 66.167 56.9775 66.225Z" fill="#BBB7C5"/>
<path d="M57.69 66.9712C57.5537 67.0403 57.4051 67.0819 57.2527 67.0935C57.1005 67.1051 56.9475 67.0867 56.8024 67.0391C56.6666 66.9964 56.763 66.8572 56.895 66.9034C57.0846 66.9618 57.2886 66.9531 57.4725 66.8786L57.5617 66.8359C57.6598 66.7886 57.7444 66.7174 57.8078 66.6289C57.8356 66.5895 57.8471 66.5408 57.84 66.4931V66.4541C57.8213 66.4286 57.7969 66.4076 57.7684 66.3934C57.7144 66.3656 57.6547 66.3506 57.594 66.3506C57.5206 66.3507 57.4475 66.3603 57.3765 66.3791C57.3386 66.3836 57.3015 66.3919 57.2659 66.4042H57.2445C57.2325 66.402 57.2205 66.402 57.2089 66.4042H57.1875L57.0555 66.2685C57.1696 66.2209 57.2895 66.1885 57.4121 66.1721C57.5141 66.1519 57.6191 66.1541 57.72 66.1789C57.8209 66.2036 57.9158 66.2501 57.9968 66.315C58.0482 66.3687 58.0769 66.4403 58.0769 66.5147C58.0769 66.5891 58.0482 66.6606 57.9968 66.7144C57.9211 66.8275 57.8147 66.9167 57.69 66.9712Z" fill="#BBB7C5"/>
<path d="M58.4063 67.7325C58.2705 67.8022 58.122 67.8442 57.9698 67.8566C57.8175 67.869 57.6641 67.851 57.5186 67.8037C57.3795 67.7576 57.4759 67.6185 57.6079 67.6646C57.7986 67.7232 58.0037 67.7145 58.1888 67.6399C58.2198 67.6285 58.2497 67.6142 58.278 67.5971C58.3769 67.5512 58.4618 67.4797 58.524 67.3901C58.5488 67.3495 58.5601 67.3021 58.5563 67.2547V67.2191C58.5409 67.191 58.5173 67.1685 58.4884 67.1546C58.4333 67.1265 58.3721 67.113 58.3103 67.1156C58.2369 67.1131 58.1636 67.1215 58.0928 67.1404C58.0571 67.1404 58.0215 67.1584 57.9821 67.1655H57.9038L57.7751 67.0297C57.889 66.9814 58.009 66.9491 58.1318 66.9337C58.2338 66.9135 58.3391 66.9157 58.44 66.9401C58.541 66.965 58.6354 67.0114 58.7168 67.0762C58.7674 67.1304 58.7955 67.2018 58.7955 67.2759C58.7955 67.3501 58.7674 67.4214 58.7168 67.4756C58.638 67.5874 58.5308 67.6762 58.4063 67.7325Z" fill="#BBB7C5"/>
<path d="M59.1225 68.4638C58.8454 68.601 58.5259 68.6254 58.2311 68.5312C58.0957 68.4851 58.1921 68.3494 58.3237 68.3921C58.5135 68.4502 58.7167 68.4424 58.9016 68.3708L58.9905 68.328C59.0898 68.2808 59.1748 68.2083 59.2369 68.1176C59.2639 68.0794 59.2762 68.0325 59.2725 67.9856V67.9643C59.2556 67.9369 59.2309 67.9159 59.2009 67.9035C59.1472 67.8746 59.0872 67.86 59.0265 67.8607C58.9531 67.8578 58.8798 67.8663 58.809 67.8859L58.6984 67.9144H58.62L58.488 67.779C58.602 67.7311 58.722 67.6987 58.8446 67.6826C58.9465 67.6624 59.0516 67.6646 59.1525 67.689C59.2537 67.7137 59.3482 67.7602 59.4292 67.8251C59.4809 67.8795 59.5098 67.9517 59.5098 68.0267C59.5098 68.1017 59.4809 68.1739 59.4292 68.2282C59.3478 68.3307 59.2425 68.4116 59.1225 68.4638Z" fill="#BBB7C5"/>
<path d="M59.835 69.21C59.6987 69.2791 59.5501 69.3206 59.3977 69.3322C59.2455 69.3439 59.0925 69.3255 58.9474 69.2779C58.8116 69.2351 58.9046 69.096 59.04 69.1421C59.2296 69.2005 59.4336 69.1918 59.6175 69.1174L59.7067 69.0746C59.8057 69.027 59.8905 68.9546 59.9527 68.8639C59.9771 68.8245 59.9884 68.7784 59.985 68.7319V68.6929C59.9696 68.6659 59.9456 68.6445 59.9171 68.6321C59.8628 68.6047 59.8031 68.5901 59.7424 68.5894C59.6677 68.5897 59.5934 68.5992 59.5211 68.6179C59.484 68.6231 59.4469 68.6317 59.4109 68.643H59.3895C59.3779 68.6392 59.3655 68.6392 59.3539 68.643H59.3325L59.2039 68.5072C59.3175 68.457 59.4375 68.4232 59.5605 68.4075C59.6621 68.3884 59.7667 68.3914 59.8672 68.4165C59.9677 68.4416 60.0611 68.4885 60.1417 68.5537C60.1932 68.6075 60.2219 68.679 60.2219 68.7534C60.2219 68.8278 60.1932 68.8994 60.1417 68.9531C60.0628 69.0633 59.9573 69.1516 59.835 69.21Z" fill="#BBB7C5"/>
<path d="M60.5512 69.9563C60.2745 70.0958 59.9542 70.1201 59.6599 70.0241C59.5241 69.981 59.6205 69.8423 59.7525 69.8884C59.9421 69.9468 60.1461 69.9381 60.33 69.8636C60.3611 69.852 60.3911 69.8378 60.4192 69.8205C60.5179 69.7744 60.603 69.7031 60.6652 69.6139C60.6926 69.5741 60.705 69.5261 60.7009 69.4781C60.7012 69.4723 60.7012 69.4664 60.7009 69.4605V69.4391C60.6822 69.4136 60.6578 69.3928 60.6296 69.3784C60.5757 69.3503 60.5157 69.3356 60.4549 69.3356C60.3814 69.3357 60.3083 69.3453 60.2374 69.3641C60.1999 69.3695 60.1629 69.3779 60.1267 69.3892H60.1054C60.0938 69.387 60.0818 69.387 60.0698 69.3892H60.0484L59.9164 69.2535C60.0307 69.2059 60.1504 69.1736 60.273 69.1571C60.375 69.1369 60.4802 69.1392 60.5812 69.1639C60.6821 69.1886 60.7766 69.2351 60.8576 69.3C60.9094 69.3536 60.9379 69.4252 60.9379 69.4995C60.9379 69.5737 60.9094 69.6458 60.8576 69.6994C60.7815 69.8119 60.6754 69.9008 60.5512 69.9563Z" fill="#BBB7C5"/>
<path d="M61.2638 70.7025C61.128 70.7722 60.9795 70.8142 60.8273 70.8266C60.675 70.839 60.5216 70.821 60.3761 70.7737C60.2404 70.7276 60.3368 70.5885 60.4688 70.6346C60.6584 70.693 60.8623 70.6843 61.0462 70.6099C61.0774 70.5982 61.1074 70.584 61.1355 70.5671C61.2344 70.5212 61.3193 70.4497 61.3815 70.3601C61.4063 70.3196 61.4175 70.272 61.4138 70.2244V70.2067C61.3985 70.1787 61.3748 70.1562 61.3459 70.1426C61.2919 70.1149 61.2319 70.1014 61.1711 70.1032C61.098 70.1002 61.0245 70.1089 60.9536 70.1284C60.9163 70.1346 60.8794 70.1428 60.843 70.1531H60.7613L60.6326 70.0177C60.7467 69.97 60.8666 69.9376 60.9893 69.9214C61.0909 69.9015 61.1951 69.9041 61.2956 69.9289C61.396 69.9534 61.4897 69.9995 61.5705 70.0639C61.6229 70.1172 61.6523 70.189 61.6523 70.2637C61.6523 70.3385 61.6229 70.4103 61.5705 70.4636C61.4914 70.569 61.3856 70.6515 61.2638 70.7025Z" fill="#BBB7C5"/>
<path d="M61.9837 71.4487C61.7066 71.586 61.3871 71.6104 61.0924 71.5162C60.957 71.4701 61.0534 71.3344 61.185 71.3771C61.3759 71.4349 61.5802 71.4274 61.7662 71.3557L61.8517 71.313C61.9526 71.2669 62.0389 71.1941 62.1015 71.1026C62.1258 71.0631 62.1371 71.0169 62.1337 70.9706V70.9492C62.1169 70.9219 62.0921 70.9009 62.0621 70.8885C62.0085 70.8596 61.9485 70.845 61.8877 70.8457C61.8144 70.8428 61.741 70.8513 61.6702 70.8709L61.5596 70.8994H61.4812L61.3492 70.7636C61.4634 70.716 61.5833 70.6837 61.7059 70.6676C61.8077 70.6474 61.9128 70.6496 62.0137 70.674C62.115 70.6987 62.2095 70.7452 62.2905 70.8101C62.3411 70.8643 62.3693 70.9357 62.3693 71.0098C62.3693 71.0839 62.3411 71.1553 62.2905 71.2095C62.2091 71.313 62.1041 71.3951 61.9837 71.4487Z" fill="#BBB7C5"/>
<path d="M62.6962 72.195C62.5601 72.2644 62.4112 72.306 62.259 72.3176C62.1066 72.3292 61.9534 72.3106 61.8082 72.2629C61.6729 72.2201 61.7692 72.081 61.9012 72.1275C62.0909 72.1858 62.2949 72.1769 62.4787 72.1024L62.568 72.0596C62.667 72.0123 62.7518 71.9397 62.814 71.8492C62.8414 71.8111 62.8529 71.7637 62.8459 71.7172V71.6959C62.8282 71.6692 62.8035 71.6482 62.7746 71.6351C62.7204 71.6077 62.6606 71.5931 62.5999 71.5924C62.5264 71.5924 62.4533 71.602 62.3824 71.6209C62.3447 71.6255 62.3077 71.6339 62.2717 71.646H62.19L62.0614 71.514C62.175 71.4634 62.295 71.43 62.418 71.4142C62.5197 71.3947 62.6244 71.3978 62.7247 71.4232C62.8252 71.4484 62.919 71.4952 62.9992 71.5601C63.0514 71.6137 63.081 71.6854 63.081 71.76C63.081 71.8346 63.0514 71.9062 62.9992 71.9599C62.9197 72.0626 62.8155 72.1432 62.6962 72.195Z" fill="#BBB7C5"/>
<path d="M37.2218 33.918C32.1334 40.8698 28.9991 50.2928 29.2523 52.3973C29.5305 54.7298 32.4293 62.6978 35.6348 66.3071C36.48 67.2559 43.5398 60.1155 42.6806 59.0633C41.019 57.0371 37.8135 51.1451 37.7209 49.8293C37.635 48.6165 39.753 40.9125 40.4198 36.5325C41.0618 32.313 39.6004 30.6866 37.2218 33.918Z" fill="#D3735D"/>
<path d="M42.48 58.8188L48.3349 61.8611C49.6076 62.5744 51.6829 63.9795 52.3819 64.9283C53.4266 66.3551 56.8819 72.9499 55.302 73.8199C53.8759 74.6119 51.6188 68.5628 51.6188 68.5628C51.6188 68.5628 54.4286 74.4656 52.5281 75.1005C50.6276 75.7354 48.9908 68.5665 48.9908 68.5665C48.9908 68.5665 51.7436 74.6974 49.6826 75.0398C48.1245 75.3004 46.2773 68.8875 46.2773 68.8875C46.2773 68.8875 48.6056 74.1731 47.0156 74.5084C45.2576 74.865 43.1824 69.0694 43.1824 69.0694C38.9929 69.2441 36.9281 67.614 35.5946 66.2801C35.2774 65.952 42.48 58.8188 42.48 58.8188Z" fill="#D3735D"/>
<path d="M50.7712 66.4612L51.7841 68.5406C52.0848 69.2491 52.3478 69.973 52.572 70.7092C52.8893 71.6625 53.0925 72.6502 53.1784 73.6515C52.8893 71.8684 51.8801 69.3251 51.5842 68.6156C51.2884 67.9061 51.0352 67.1887 50.7427 66.4755C50.7394 66.4541 50.7712 66.447 50.7712 66.4612ZM48.1912 67.4737L49.4287 70.1415C49.803 71.0509 50.0812 71.925 50.3914 72.8629C50.4165 72.9341 50.37 72.9236 50.3452 72.8629L49.2435 70.2199L48.1736 67.4951C48.1627 67.47 48.1841 67.4629 48.1912 67.4737ZM45.8175 67.9425C46.4881 69.2923 47.0186 70.7074 47.4008 72.1654C47.4184 72.2366 47.3614 72.2152 47.3366 72.144C46.8371 70.7171 46.4557 69.6187 45.771 67.9672C45.7605 67.9425 45.8033 67.9174 45.8175 67.9425ZM32.3115 41.0625L39.8351 42.8812C39.8351 42.8812 40.9905 37.5956 40.7516 34.3429C40.5127 31.0901 38.6123 31.6324 36.6971 34.1572C34.782 36.6821 32.3115 41.0625 32.3115 41.0625Z" fill="#1F1B2D"/>
<path d="M59.01 136.35C57.4661 136.043 55.5728 136.254 54.3746 137.342C54.3285 137.384 54.3746 137.448 54.4391 137.434C55.9219 136.976 57.4496 136.678 58.9958 136.546C59.0194 136.544 59.0411 136.533 59.0573 136.517C59.0736 136.5 59.0836 136.477 59.0854 136.454C59.0872 136.43 59.0806 136.407 59.0666 136.388C59.0528 136.369 59.0329 136.356 59.01 136.35ZM60.1125 137.036C58.572 136.726 56.6786 136.94 55.4771 138.028C55.4306 138.067 55.4771 138.135 55.5413 138.12C57.0251 137.661 58.554 137.364 60.1016 137.232C60.1249 137.229 60.1463 137.219 60.1624 137.201C60.1783 137.184 60.1876 137.162 60.1886 137.139C60.1897 137.116 60.1827 137.093 60.1688 137.074C60.155 137.055 60.1351 137.042 60.1125 137.036Z" fill="#BBB7C5"/>
<path d="M61.2225 137.726C59.6786 137.416 57.7853 137.63 56.5871 138.714C56.5406 138.757 56.5871 138.821 56.6513 138.807C58.1348 138.351 59.6621 138.053 61.2083 137.919C61.2338 137.921 61.2589 137.913 61.2784 137.896C61.2979 137.879 61.3095 137.855 61.3118 137.83C61.3135 137.804 61.3052 137.779 61.2885 137.76C61.2716 137.74 61.248 137.728 61.2225 137.726ZM52.3275 136.11C53.5931 136.67 55.0586 136.663 56.4139 136.824C56.5526 136.824 56.6243 136.692 56.5991 136.574C56.6051 136.572 56.6104 136.569 56.6153 136.564C56.6201 136.56 56.6235 136.555 56.6258 136.549C56.628 136.544 56.629 136.537 56.6288 136.531C56.6288 136.525 56.6269 136.519 56.6243 136.513C55.8351 135.301 54.742 134.317 53.454 133.66C52.6946 133.303 51.5074 133.2 51.1185 134.159C50.7296 135.119 51.5858 135.786 52.3275 136.11ZM51.6428 134.997C50.9655 133.417 52.9478 133.842 53.4971 134.134C53.8476 134.333 54.1846 134.554 54.5059 134.797C55.1636 135.307 55.7944 135.85 56.3959 136.424C55.7363 136.31 55.0695 136.256 54.4061 136.167C53.6254 136.06 52.0136 135.857 51.6428 134.997Z" fill="#BBB7C5"/>
<path d="M61.0613 133.005C60.4658 132.16 59.3284 132.52 58.6759 133.055C57.5732 133.994 56.7359 135.205 56.2474 136.568C56.2451 136.574 56.2444 136.58 56.2451 136.587C56.2459 136.593 56.2481 136.599 56.2515 136.604C56.2549 136.61 56.2598 136.614 56.265 136.617C56.2703 136.62 56.277 136.621 56.2834 136.621C56.2834 136.739 56.3903 136.868 56.5256 136.818C57.8059 136.365 59.2358 136.033 60.3409 135.198C60.9863 134.71 61.6245 133.804 61.0613 133.005ZM58.3264 135.73C57.7024 135.969 57.0675 136.176 56.4506 136.443C56.9004 135.749 57.3848 135.078 57.9019 134.432C58.1584 134.121 58.4359 133.827 58.7329 133.554C59.1964 133.144 61.029 132.277 60.7369 133.968C60.5869 134.892 59.0715 135.445 58.3264 135.73ZM40.29 137.134C38.7743 136.716 36.8704 136.795 35.5973 137.793C35.5508 137.833 35.5973 137.901 35.658 137.89C37.1704 137.538 38.7161 137.349 40.2686 137.326C40.2904 137.323 40.311 137.313 40.3264 137.297C40.342 137.281 40.3519 137.261 40.3545 137.238C40.3568 137.216 40.3518 137.194 40.3403 137.175C40.3283 137.156 40.3106 137.141 40.29 137.134ZM41.3438 137.895C39.8284 137.478 37.9241 137.538 36.6548 138.555C36.6049 138.594 36.6548 138.662 36.7118 138.651C38.2241 138.3 39.7699 138.113 41.3224 138.091C41.346 138.09 41.3685 138.081 41.3861 138.064C41.4038 138.048 41.4143 138.026 41.4169 138.002C41.4195 137.979 41.4135 137.955 41.4 137.935C41.3865 137.916 41.3666 137.901 41.3438 137.895ZM42.4013 138.66C40.8859 138.243 38.982 138.321 37.7123 139.32C37.6624 139.359 37.7123 139.431 37.7696 139.416C39.2821 139.066 40.8276 138.878 42.3799 138.856C42.4039 138.855 42.4264 138.846 42.4436 138.829C42.4609 138.813 42.4721 138.791 42.4744 138.767C42.4769 138.744 42.4711 138.72 42.4579 138.7C42.4444 138.681 42.4241 138.666 42.4013 138.66Z" fill="#BBB7C5"/>
<path d="M42.57 133.943C42.0349 133.055 40.8761 133.336 40.188 133.821C39.021 134.678 38.1 135.827 37.5173 137.152C37.5146 137.158 37.5131 137.165 37.5131 137.172C37.5131 137.179 37.515 137.185 37.518 137.191C37.521 137.196 37.5259 137.202 37.5311 137.206C37.5364 137.209 37.5428 137.212 37.5495 137.213C37.5458 137.243 37.5488 137.274 37.5589 137.302C37.5691 137.331 37.5858 137.356 37.6076 137.377C37.6296 137.398 37.656 137.413 37.6849 137.422C37.7138 137.431 37.7441 137.433 37.7741 137.427C39.0863 137.07 40.5338 136.835 41.6963 136.079C42.3773 135.637 43.0796 134.788 42.57 133.943ZM39.6495 136.468C39.0113 136.661 38.3625 136.824 37.7314 137.042C38.2316 136.377 38.766 135.739 39.3323 135.13C39.6103 134.839 39.9082 134.567 40.2236 134.317C40.7156 133.939 42.6056 133.204 42.192 134.87C41.9674 135.79 40.4306 136.232 39.6533 136.468H39.6495Z" fill="#BBB7C5"/>
<path d="M33.657 136.421C34.8836 137.07 36.3454 137.167 37.6826 137.409C37.8218 137.434 37.9035 137.295 37.8893 137.178C37.8956 137.177 37.9016 137.174 37.9069 137.169C37.9121 137.165 37.9155 137.16 37.9181 137.154C37.9208 137.148 37.9215 137.141 37.9208 137.135C37.92 137.128 37.9181 137.122 37.9144 137.117C37.2149 135.849 36.1943 134.788 34.9549 134.039C34.2416 133.618 33.0473 133.443 32.5943 134.374C32.1413 135.305 32.9438 136.043 33.657 136.421ZM33.0544 135.266C32.4911 133.64 34.4415 134.196 34.9658 134.553C35.3015 134.768 35.622 135.006 35.925 135.266C36.5502 135.82 37.1453 136.407 37.7078 137.024C37.059 136.864 36.3994 136.76 35.7431 136.625C34.9301 136.461 33.3469 136.161 33.0368 135.266H33.0544Z" fill="#BBB7C5"/>
</g>
<defs>
<clipPath id="clip0_1_116">
<rect width="156" height="150" fill="white"/>
</clipPath>
</defs>
</svg>
