<svg width="156" height="150" viewBox="0 0 156 150" fill="none" xmlns="http://www.w3.org/2000/svg">
<g clip-path="url(#clip0_121_2432)">
<mask id="mask0_121_2432" style="mask-type:luminance" maskUnits="userSpaceOnUse" x="0" y="0" width="156" height="150">
<path d="M156 0H0V150H156V0Z" fill="white"/>
</mask>
<g mask="url(#mask0_121_2432)">
<path d="M109.792 92.0739C111.278 92.7301 112.814 93.2667 114.385 93.6789C115.432 93.917 116.456 94.2439 117.448 94.6561C116.378 92.5164 115.233 90.4332 114.018 88.3719C112.509 87.9972 110.915 87.3837 109.738 86.3742C109.728 86.3633 109.722 86.3487 109.721 86.3334C109.72 86.318 109.725 86.3026 109.735 86.2906C109.744 86.2786 109.758 86.2704 109.773 86.2674C109.788 86.2644 109.804 86.267 109.817 86.2745C111.079 87.095 112.456 87.5622 113.839 88.097L112.841 86.435C112.748 86.2816 112.959 86.1177 113.069 86.264C114.35 87.9796 115.518 89.7774 116.563 91.646C116.746 89.9656 116.759 88.2713 116.603 86.5883C116.605 86.5812 116.61 86.5749 116.616 86.5707C116.622 86.5666 116.629 86.564 116.637 86.564C116.644 86.564 116.652 86.5662 116.658 86.5707C116.664 86.5752 116.668 86.5812 116.671 86.5883C117.031 88.4155 117.085 90.2897 116.831 92.1346C117.702 93.7193 118.503 95.3414 119.231 96.9961C119.456 95.9795 119.759 94.9737 119.944 93.95C120.243 92.483 120.302 90.9774 120.119 89.4916C120.119 89.4489 120.176 89.4417 120.187 89.4916C120.704 92.2352 120.48 95.067 119.538 97.6951C119.963 98.6836 120.366 99.6813 120.747 100.688C122.685 105.788 123.925 111.127 124.434 116.559C124.432 116.583 124.423 116.605 124.407 116.623C124.39 116.64 124.368 116.651 124.345 116.653C124.321 116.656 124.297 116.65 124.278 116.637C124.258 116.623 124.244 116.603 124.237 116.58C123.425 111.225 122.066 105.966 120.183 100.887C119.434 98.9004 118.59 96.9639 117.687 95.0949C116.307 94.7382 114.931 94.2496 113.572 93.8394C112.219 93.488 110.931 92.918 109.761 92.1522C109.756 92.1455 109.753 92.1376 109.752 92.129C109.75 92.1204 109.752 92.1121 109.755 92.1042C109.758 92.0965 109.763 92.0897 109.77 92.0844C109.777 92.0787 109.784 92.0754 109.792 92.0739ZM107.557 89.9851C108.984 90.431 110.349 91.0801 111.779 91.5369C111.847 91.5582 111.814 91.6613 111.747 91.6508C110.242 91.4011 108.744 90.998 107.503 90.0672C107.457 90.0316 107.507 89.9675 107.557 89.9851ZM118.956 86.4901C118.956 86.4151 119.045 86.369 119.07 86.4436C119.508 87.7314 119.829 89.1009 119.505 90.4456C119.505 90.4992 119.408 90.5026 119.405 90.4456C119.284 89.1046 119.308 87.7992 118.956 86.4901ZM113.007 83.7114C113.491 84.3372 113.743 85.1109 113.721 85.9014C113.721 85.9512 113.642 85.9835 113.628 85.9227C113.428 85.1844 113.114 84.5176 112.858 83.8044C112.855 83.7856 112.858 83.7668 112.866 83.75C112.874 83.7331 112.887 83.7189 112.902 83.7091C112.918 83.6992 112.936 83.6942 112.955 83.6949C112.974 83.6952 112.992 83.7009 113.007 83.7114Z" fill="#D5D2DC"/>
<path d="M106.063 104.37C106.741 106.51 108.349 109.488 110.895 109.513C112.546 109.513 114.207 109.331 115.865 109.31C117.648 109.281 119.431 109.285 121.182 109.392C121.328 109.392 120.968 104.081 116.71 101.492C115.516 100.778 114.057 100.536 112.702 100.243C111.151 99.8771 109.56 99.7117 107.967 99.7514C106.99 99.7904 106.184 99.9974 105.828 101C105.471 102.002 105.739 103.346 106.063 104.37Z" fill="#EFECF3"/>
<path d="M107.897 101.681L111.013 102.584C110.743 102.289 110.457 102.009 110.157 101.746C109.708 101.389 109.22 101.079 108.731 100.754C108.692 100.725 108.731 100.647 108.767 100.668C109.775 101.087 110.646 101.78 111.281 102.669C112.575 103.087 113.859 103.547 115.092 104.053C115.945 104.402 116.762 104.833 117.531 105.341C117.286 104.802 116.991 104.288 116.651 103.803C116.084 103.069 115.32 102.662 114.579 102.141C114.567 102.131 114.56 102.117 114.558 102.101C114.555 102.085 114.558 102.07 114.566 102.057C114.574 102.043 114.587 102.033 114.601 102.028C114.616 102.022 114.632 102.022 114.647 102.027C115.42 102.364 116.115 102.859 116.687 103.48C117.259 104.101 117.694 104.834 117.966 105.633C118.856 106.267 119.668 107.003 120.384 107.827C123.204 111.037 125.423 115.288 125.43 119.636C125.43 119.739 125.266 119.772 125.244 119.661C124.52 115.399 122.663 111.41 119.867 108.112C119.668 107.88 119.461 107.656 119.247 107.438C118.475 107.333 117.697 107.275 116.918 107.263C116.013 107.263 115.11 107.399 114.208 107.47C112.721 107.591 111.077 107.609 109.737 106.86C109.676 106.828 109.715 106.725 109.783 106.75C112.771 107.838 115.909 106.457 118.908 107.106C117.627 105.885 116.127 104.917 114.486 104.253L114.212 104.142C112.293 104.374 110.264 104.874 108.396 104.249C108.342 104.232 108.364 104.146 108.421 104.164C110.229 104.613 111.958 104.046 113.741 103.957C111.801 103.201 109.819 102.598 107.876 101.849C107.722 101.785 107.718 101.635 107.897 101.681ZM107.031 103.571C107.958 103.691 108.891 103.761 109.826 103.782C109.847 103.782 109.854 103.817 109.826 103.821C108.887 103.994 107.919 103.933 107.009 103.642C107 103.639 106.992 103.633 106.987 103.624C106.983 103.616 106.982 103.605 106.984 103.596C106.987 103.587 106.994 103.579 107.002 103.574C107.011 103.569 107.021 103.568 107.031 103.571ZM113.36 101.726C113.877 101.958 114.345 102.284 114.74 102.689C114.751 102.699 114.757 102.712 114.759 102.726C114.76 102.74 114.756 102.754 114.748 102.765C114.739 102.776 114.726 102.784 114.713 102.786C114.699 102.789 114.684 102.786 114.672 102.778L113.959 102.29C113.727 102.162 113.502 102.02 113.285 101.865C113.214 101.812 113.282 101.701 113.36 101.726Z" fill="#D5D2DC"/>
<path d="M123.291 92.8651C123.158 94.88 123.417 96.9016 124.054 98.8179C124.353 99.7055 124.727 100.566 125.174 101.389C125.734 102.459 126.311 103.476 126.287 104.681C126.176 104.767 126.572 104.724 126.575 104.606C129.631 102.541 133.707 101.892 135.935 98.7248C137.005 97.2271 137.44 95.3937 137.583 93.5855C137.736 91.6167 137.651 89.4552 137.002 87.5757C136.456 85.9884 135.386 84.4977 133.792 83.8197C132.198 83.1417 130.102 83.3491 128.486 83.9911C125.01 85.3786 123.53 89.3697 123.291 92.8651Z" fill="#EFECF3"/>
<path d="M123.476 116.659L124.46 112.2C125.117 109.29 125.812 106.387 126.6 103.512C127.074 101.793 127.584 100.085 128.129 98.3868C127.977 97.3553 127.77 96.3326 127.509 95.323C127.153 94.1065 126.668 92.9369 126.211 91.756C126.183 91.6848 126.301 91.6349 126.336 91.7028C127.185 93.3183 128.287 95.3872 128.476 97.363C129.114 95.4442 129.806 93.5429 130.565 91.6563C130.549 90.1196 130.383 88.5883 130.069 87.0839C130.069 87.0711 130.073 87.0588 130.081 87.0486C130.089 87.0385 130.099 87.031 130.112 87.0276C130.124 87.0248 130.137 87.026 130.149 87.031C130.16 87.036 130.17 87.0445 130.177 87.0554C130.551 88.364 130.761 89.7144 130.801 91.075C131.378 89.66 132.002 88.2646 132.673 86.8912C132.733 86.7663 132.904 86.8735 132.854 86.9946C131.831 89.4021 130.9 91.849 130.037 94.324C131.411 92.935 133.036 91.819 134.826 91.0356C134.905 91 134.972 91.1106 134.894 91.15C132.953 92.1676 131.21 93.5254 129.749 95.1588C129.136 96.9695 128.556 98.7912 128.009 100.623C129.852 98.5184 132.487 97.0169 135.079 96.1218C135.169 96.0933 135.204 96.2287 135.119 96.2609C132.127 97.42 129.881 99.3427 127.709 101.611L127.082 103.837L124.9 112.318L123.937 116.409C123.602 117.879 123.367 119.42 122.892 120.846C122.846 120.985 122.607 120.971 122.625 120.81C122.838 119.413 123.122 118.027 123.476 116.659ZM126.737 89.7824C127.373 90.6104 127.84 91.5558 128.11 92.5645C128.11 92.5893 128.077 92.6106 128.067 92.5821C127.634 91.6472 127.145 90.7396 126.601 89.8645C126.544 89.7753 126.676 89.704 126.737 89.7824ZM132.954 96.0074C133.805 95.445 134.751 95.0425 135.746 94.8198C135.771 94.8198 135.793 94.8516 135.746 94.8625C135.3 95.0905 134.826 95.2619 134.373 95.476L133.018 96.1499C133.001 96.1521 132.983 96.1484 132.968 96.1398C132.953 96.1311 132.941 96.1179 132.934 96.102C132.927 96.0861 132.925 96.0683 132.929 96.0513C132.932 96.0343 132.941 96.019 132.954 96.0074ZM133.942 87.8661C134.214 87.6255 134.508 87.4105 134.819 87.2242C134.83 87.2178 134.842 87.2155 134.854 87.2178C134.866 87.22 134.877 87.2268 134.884 87.2365C134.892 87.2463 134.896 87.2583 134.895 87.2703C134.894 87.2823 134.889 87.2939 134.88 87.3025C134.613 87.5482 134.324 87.7691 134.017 87.9625C133.96 88.0015 133.885 87.9089 133.942 87.8661Z" fill="#D5D2DC"/>
<path d="M113.414 99.045L120.427 100.771C120.627 100.825 124.235 93.1957 122.677 89.4007C121.251 85.884 118.149 83.3378 114.544 82.2675C112.875 81.7718 110.832 81.3795 109.106 81.8325C107.573 82.2356 106.528 83.5444 106.083 85.0211C105.476 87.0255 105.797 89.376 106.247 91.3804C106.617 93.2659 107.47 95.0228 108.721 96.4808C110.001 97.8859 111.595 98.5852 113.414 99.045Z" fill="#EFECF3"/>
<path d="M128.402 108.649C128.373 108.72 128.473 108.784 128.512 108.709C128.52 108.721 128.53 108.73 128.542 108.738C128.553 108.745 128.566 108.75 128.58 108.752C130.291 109.161 132.026 109.464 133.775 109.658C135.184 109.783 136.81 109.861 138.054 109.044C139.726 107.935 140.824 104.971 139.922 103.092C138.853 100.855 135.643 102.068 134.017 102.864C131.527 104.076 129.54 106.123 128.402 108.649Z" fill="#EFECF3"/>
<path d="M127.154 109.68C128.093 108.775 129.136 107.984 130.26 107.322C131.073 106.04 132.15 104.945 133.419 104.112C133.48 104.073 133.533 104.169 133.476 104.212C132.469 105.018 131.576 105.957 130.823 107.005C132.077 106.316 133.38 105.72 134.721 105.222C135.2 104.333 135.927 103.604 136.814 103.121C136.814 103.121 136.853 103.139 136.835 103.149C136.103 103.706 135.465 104.377 134.945 105.136C135.737 104.842 136.535 104.564 137.338 104.301C137.409 104.277 137.434 104.387 137.366 104.412C135.94 104.969 134.489 105.557 133.087 106.231C134.807 106.506 136.559 106.506 138.279 106.231C138.288 106.23 138.298 106.232 138.306 106.237C138.314 106.242 138.32 106.25 138.323 106.259C138.325 106.268 138.325 106.278 138.32 106.287C138.316 106.295 138.309 106.302 138.3 106.306C136.505 106.836 134.598 106.864 132.788 106.388C131.889 106.825 131.017 107.314 130.174 107.85C130.884 107.793 131.598 107.852 132.289 108.025C133.501 108.302 134.742 108.437 135.986 108.428C136.033 108.428 136.047 108.503 135.986 108.51C133.847 108.867 131.797 107.904 129.661 108.153C128.87 108.695 128.127 109.302 127.439 109.969C126.109 111.301 125.012 112.848 124.194 114.545C123.296 116.375 122.811 118.315 122.083 120.205C122.078 120.223 122.067 120.238 122.051 120.247C122.036 120.256 122.017 120.258 122 120.253C121.982 120.249 121.967 120.237 121.958 120.222C121.949 120.206 121.947 120.187 121.952 120.169C122.583 116.446 124.441 112.334 127.154 109.68ZM133.65 104.572C133.792 104.318 133.978 104.091 134.199 103.902C134.383 103.704 134.602 103.542 134.845 103.424C134.866 103.424 134.877 103.445 134.866 103.459C134.688 103.663 134.441 103.816 134.252 104.002C134.063 104.187 133.896 104.419 133.707 104.608C133.702 104.616 133.694 104.621 133.686 104.623C133.681 104.624 133.677 104.624 133.673 104.623C133.668 104.623 133.664 104.621 133.66 104.619C133.653 104.614 133.647 104.606 133.645 104.598C133.643 104.589 133.646 104.58 133.65 104.572Z" fill="#D5D2DC"/>
<path d="M137.202 105.728C137.519 105.645 137.858 105.652 138.183 105.585C138.506 105.51 138.824 105.414 139.135 105.299C139.144 105.296 139.154 105.296 139.163 105.3C139.172 105.304 139.18 105.311 139.184 105.32C139.188 105.329 139.189 105.339 139.186 105.349C139.183 105.358 139.176 105.366 139.167 105.371C138.58 105.733 137.89 105.894 137.203 105.827C137.192 105.823 137.184 105.817 137.178 105.808C137.172 105.799 137.168 105.788 137.168 105.777C137.168 105.766 137.172 105.756 137.178 105.747C137.184 105.738 137.192 105.731 137.202 105.728ZM116.91 113.625L118.454 131.087H129.001L130.93 113.625H116.91Z" fill="#D5D2DC"/>
<path d="M116.909 113.625L117.262 117.616H130.491L130.93 113.625H116.909Z" fill="#BBB7C5"/>
<path d="M115.863 112.538H131.973V115.776H115.863V112.538Z" fill="#D5D2DC"/>
<path d="M55.0121 17.6567H66.3828V20.4174H55.0121V17.6567Z" fill="#EFECF3"/>
<path d="M59.3209 24.7226V13.3485H62.0809V24.7226H59.3209ZM117.273 24.405H128.645V27.1658H117.273V24.405ZM122.958 22.8566C122.592 22.8566 122.24 22.7112 121.982 22.4523C121.723 22.1935 121.577 21.8423 121.577 21.4763C121.577 21.1102 121.723 20.759 121.982 20.5002C122.24 20.2413 122.592 20.0959 122.958 20.0959C123.324 20.0959 123.675 20.2413 123.934 20.5002C124.193 20.759 124.338 21.1102 124.338 21.4763C124.338 21.8423 124.193 22.1935 123.934 22.4523C123.675 22.7112 123.324 22.8566 122.958 22.8566ZM122.958 31.47C122.592 31.47 122.24 31.3246 121.982 31.0657C121.723 30.8068 121.577 30.4557 121.577 30.0896C121.577 29.7235 121.723 29.3724 121.982 29.1136C122.24 28.8547 122.592 28.7092 122.958 28.7092C123.324 28.7092 123.675 28.8547 123.934 29.1136C124.193 29.3724 124.338 29.7235 124.338 30.0896C124.338 30.4557 124.193 30.8068 123.934 31.0657C123.675 31.3246 123.324 31.47 122.958 31.47ZM93.4947 0L101.535 8.04263L99.5835 9.9945L91.5432 1.95187L93.4947 0Z" fill="#EFECF3"/>
<path d="M91.5449 8.04507L99.5852 0.00244141L101.537 1.95432L93.4963 9.99694L91.5449 8.04507ZM128.875 56.5764H140.246V59.3372H128.875V56.5764ZM128.875 51.4502H140.246V54.2109H128.875V51.4502ZM-4.32791 142.717C-4.32791 146.74 27.3291 150.001 66.3823 150.001C105.439 150.001 137.092 146.74 137.092 142.717C137.092 138.694 105.436 135.434 66.3823 135.434C27.3261 135.434 -4.32791 138.712 -4.32791 142.717Z" fill="#EFECF3"/>
<path d="M138.773 131.021L120.674 130.936L66.3827 130.846L-6.00426 131.021L12.0917 131.11L66.3827 131.199L120.674 131.11L138.773 131.021Z" fill="#1F1B2D"/>
<path d="M106.219 33.9752C105.599 38.5622 102.182 49.4511 99.633 50.1467C97.2582 50.7887 86.8216 47.6784 85.4772 45.6062C84.7639 44.4969 81.9117 34.3104 83.1844 34.9063C84.7962 35.6732 96.6165 41.6507 97.0905 41.5296C98.1177 41.2727 100.118 37.2283 101.851 34.9671C105.63 30.0523 106.508 31.8351 106.219 33.9752Z" fill="#D3735D"/>
<path d="M99.0908 38.5311L104.44 43.435C104.44 43.435 106.333 36.4304 106.547 33.1881C106.76 29.9459 104.111 30.31 99.0908 38.5311Z" fill="#1F1B2D"/>
<path d="M119.444 83.9702C119.444 83.9702 124.618 92.7763 130.333 88.7781C136.049 84.7798 129.524 76.9082 129.524 76.9082L119.444 83.9702Z" fill="#FF98B9"/>
<path d="M129.754 77.22L119.675 84.3004L78.4138 25.5341L88.4922 18.4541L129.754 77.22Z" fill="#1F1B2D"/>
<path d="M129.754 77.22L119.675 84.3004L78.4138 25.5341L88.4922 18.4541L129.754 77.22Z" fill="#A237EE"/>
<path d="M130.824 76.9424L119.056 85.2096L117.417 82.8745L129.185 74.6076L130.824 76.9424ZM129.008 74.3624L117.24 82.6293L115.6 80.2941L127.368 72.0273L129.008 74.3624Z" fill="#454056"/>
<path d="M88.4883 18.453L79.6136 13.8769L76.6897 12.354L77.1067 15.6353L78.4083 25.554L80.4584 26.3029L80.4265 24.138L82.4767 24.8835L82.4444 22.7186L84.4698 23.4818V21.3026L86.4952 22.0658V19.8829L88.4883 20.6318V18.453Z" fill="#D5D2DC"/>
<path d="M79.6172 13.8632L76.6933 12.3403L77.1141 15.6216L79.6172 13.8632Z" fill="#454056"/>
<path opacity="0.1" d="M115.763 73.6198L108.036 62.3492L100.22 51.1393L92.3328 39.9793L88.3609 34.4188L84.3529 28.8834L88.2004 34.5332L92.0797 40.1578L99.8992 51.368L107.79 62.5243L115.763 73.6198ZM118.551 71.981L110.824 60.7104L103.008 49.4968L95.1169 38.3402L91.1449 32.78L87.1406 27.2447L90.9844 32.8907L94.8675 38.5153L102.684 49.7289L110.574 60.8855L118.551 71.981ZM121.34 70.346L113.613 59.0717L105.797 47.8618L97.9061 36.7052L93.9337 31.1447L89.9152 25.6055L93.7594 31.2553L97.6421 36.8799L105.455 48.0898L113.346 59.2502L121.34 70.346Z" fill="white"/>
<path d="M83.5985 34.1573C83.4061 35.6802 82.3647 37.8346 82.5894 38.9543C82.6346 39.2319 82.7678 39.4876 82.9692 39.6837C83.171 39.8796 83.4304 40.0053 83.7091 40.0422C83.7091 40.0422 82.8106 40.9302 83.1815 41.9112C83.3705 42.4178 84.3474 42.557 84.3474 42.557C84.1542 42.7692 84.023 43.0306 83.969 43.3126C83.915 43.5946 83.9397 43.886 84.0406 44.1548C84.3436 44.8325 85.2744 44.8681 85.2744 44.8681C85.2744 44.8681 84.9463 45.8881 85.4776 46.4836C86.5475 47.6855 92.6375 45.6953 92.8445 43.1487C92.9405 41.9611 91.4821 42.5281 91.4821 42.5281C91.4821 42.5281 93.383 41.2051 93.005 39.9425C92.627 38.6798 90.7764 39.5288 90.7764 39.5288C90.7764 39.5288 92.6056 38.2306 92.0814 36.9608C91.5571 35.6911 89.8314 36.8075 89.8314 36.8075C89.8314 36.8075 90.9012 35.4485 90.2592 34.5676C89.2287 33.1122 87.3354 35.9941 85.895 36.1047L84.4366 34.1431L83.5985 34.1573Z" fill="#D3735D"/>
<path d="M83.005 36.4716C83.0658 35.0129 80.9298 33.9359 80.7835 32.5484C80.5874 30.6509 83.1513 31.735 84.4349 34.1639L85.1016 36.2253L83.005 36.4716Z" fill="#D3735D"/>
<path d="M85.4203 44.9064C85.3989 44.9064 85.4203 44.942 85.4203 44.9386C87.665 44.7729 89.8067 43.9284 91.5602 42.5169C91.6138 42.4704 91.5602 42.3597 91.4927 42.3991C89.6009 43.5249 87.5553 44.3695 85.4203 44.9064ZM84.3178 42.5776C84.2964 42.5776 84.3178 42.6237 84.3178 42.6237C86.7966 42.4169 89.1192 41.3288 90.8645 39.5566C90.9215 39.4921 90.9107 39.3747 90.8394 39.4422C89.6019 40.5942 86.3323 42.1066 84.3178 42.5776ZM89.9165 36.6361C88.1979 38.348 86.1013 39.3324 83.8048 40.0389C83.7729 40.0389 83.8048 40.0887 83.8048 40.0887C85.0209 40.0494 86.4399 39.4467 87.5027 38.8865C88.499 38.3832 89.3473 37.6284 89.9627 36.6969C89.9987 36.6575 89.9484 36.5971 89.9165 36.6361Z" fill="#1F1B2D"/>
<path d="M81.386 144.728C82.2027 144.992 105.512 144.688 106.392 144.114C106.749 143.9 106.884 140.501 106.952 136.389V136.26L106.98 133.653V133.296L106.916 121.198L91.3235 121.355L91.9047 136.292V136.549C91.9047 136.549 83.0334 140.654 82.1349 141.389C81.2364 142.124 80.5696 144.467 81.386 144.728Z" fill="#D3735D"/>
<path d="M81.3821 144.727C82.1984 144.991 105.508 144.688 106.388 144.114C106.745 143.9 106.88 140.501 106.948 136.389V136.26L106.977 133.653V133.296L91.7902 133.339L91.8082 133.813L91.9008 136.292V136.549C91.9008 136.549 83.0294 140.654 82.1309 141.389C81.2324 142.124 80.5657 144.467 81.3821 144.727Z" fill="#EFECF3"/>
<path d="M81.3869 144.727C81.8932 144.892 90.9213 144.838 97.9923 144.639C102.406 144.517 106.054 144.335 106.393 144.114C106.732 143.893 106.881 140.598 106.949 136.56V136.257L91.909 136.285V136.542C91.909 136.542 83.0377 140.647 82.1392 141.382C81.2407 142.117 80.5702 144.467 81.3869 144.727Z" fill="black"/>
<path d="M81.6388 143.82C85.5609 143.67 101.421 143.463 105.318 143.599C105.347 143.599 105.347 143.624 105.318 143.624C101.428 143.856 85.568 143.952 81.6388 143.884C81.5566 143.88 81.5566 143.823 81.6388 143.82Z" fill="#F5F4F8"/>
<path d="M97.9923 144.638C102.406 144.516 106.054 144.334 106.393 144.113C106.732 143.892 106.881 140.597 106.949 136.559L97.9923 144.638Z" fill="#454056"/>
<path d="M111.605 54.0302L107.537 96.4352C107.405 97.12 107.323 100.843 107.27 105.63V136.417H90.8387C90.8387 136.417 91.2775 102.273 92.005 96.2661L97.3817 54.0298L111.605 54.0302Z" fill="#666276"/>
<path d="M91.5827 133.553C94.1466 133.499 93.412 133.481 95.9759 133.457C97.231 133.457 105.478 133.371 106.648 133.563C106.653 133.565 106.658 133.569 106.661 133.574C106.665 133.579 106.666 133.584 106.666 133.59C106.666 133.596 106.664 133.602 106.661 133.607C106.658 133.611 106.653 133.615 106.648 133.617C105.475 133.813 97.231 133.738 95.9759 133.727L91.5827 133.628C91.5362 133.628 91.5362 133.556 91.5827 133.553ZM104.096 113.385L104.15 106.234C104.168 103.923 104.15 101.597 104.275 99.3073C104.496 94.6348 105.444 90.0339 106.118 85.4259C106.792 80.8179 107.352 76.1526 107.862 71.5157L109.474 55.8831C109.474 55.8508 109.531 55.8508 109.527 55.8831C108.753 65.1849 107.89 74.4868 106.603 83.7351L105.533 90.6223C105.152 92.9443 104.77 95.2592 104.588 97.6097C104.407 99.9602 104.378 102.211 104.357 104.511L104.285 111.645L104.182 131.882C104.182 131.982 104.021 131.978 104.021 131.882L104.096 113.385Z" fill="#1F1B2D"/>
<path d="M115.074 54.03L107.54 96.435C107.408 97.1197 107.326 100.843 107.272 105.63L99.4281 54.0146L115.074 54.0289V54.03Z" fill="#454056"/>
<path d="M100.723 146.119C101.557 146.322 124.784 144.371 125.622 143.733C125.943 143.497 125.858 140.095 125.622 135.986V135.858L125.465 133.257C125.465 133.136 125.465 133.015 125.444 132.901L124.524 120.838L108.985 122.101L110.622 136.96L110.646 137.213C110.646 137.213 102.089 141.939 101.244 142.734C100.398 143.529 99.9027 145.915 100.723 146.119Z" fill="#D3735D"/>
<path d="M100.723 146.119C101.557 146.322 124.784 144.371 125.622 143.733C125.943 143.497 125.858 140.094 125.622 135.985V135.857L125.465 133.257C125.465 133.136 125.465 133.015 125.444 132.9L110.3 134.017L110.35 134.491L110.621 136.959L110.646 137.212C110.646 137.212 102.089 141.939 101.243 142.734C100.398 143.529 99.9027 145.915 100.723 146.119Z" fill="#EFECF3"/>
<path d="M100.723 146.119C101.557 146.322 124.784 144.371 125.622 143.733C125.943 143.497 125.858 140.094 125.622 135.986V135.857L110.621 136.952L110.646 137.205C110.646 137.205 102.089 141.932 101.243 142.727C100.398 143.522 99.9027 145.915 100.723 146.119Z" fill="black"/>
<path d="M100.91 145.192C104.832 144.768 120.618 143.409 124.515 143.295C124.547 143.295 124.547 143.316 124.515 143.32C120.653 143.826 104.839 145.046 100.917 145.257C100.832 145.26 100.828 145.2 100.91 145.192Z" fill="#F5F4F8"/>
<path d="M109.977 136.744L126.379 136.048L122.082 96.8532C121.865 91.1071 118.049 54.0132 118.049 54.0132H97.9997C97.9997 54.0132 99.2657 62.5733 101.43 68.0052C102.877 68.5163 104.274 69.1574 105.605 69.9207L106.875 98.9033C107.032 104.949 109.977 136.741 109.977 136.741V136.744Z" fill="#666276"/>
<path d="M110.413 133.736C112.97 133.576 112.236 133.587 114.796 133.451C116.047 133.387 124.284 132.966 125.464 133.112C125.489 133.112 125.493 133.158 125.464 133.162C124.299 133.408 116.058 133.683 114.803 133.726L110.414 133.811C110.408 133.813 110.401 133.813 110.395 133.812C110.389 133.811 110.384 133.809 110.379 133.805C110.373 133.801 110.37 133.797 110.367 133.791C110.364 133.786 110.363 133.78 110.363 133.774C110.363 133.768 110.364 133.761 110.367 133.756C110.37 133.751 110.374 133.746 110.379 133.742C110.384 133.739 110.389 133.736 110.395 133.735C110.401 133.734 110.407 133.734 110.413 133.736ZM116.579 56.216L118.94 84.2319C119.792 93.566 123.219 125.771 124.017 130.957C124.017 130.993 123.971 131.007 123.964 130.957C122.309 121.734 121.347 109.339 120.309 100.027C119.271 90.7145 118.43 81.3804 117.678 72.0463L116.462 56.1962C116.455 56.1388 116.572 56.1425 116.58 56.2175L116.579 56.216ZM100.712 67.6385C102.406 68.2577 104.043 69.0227 105.604 69.9249C105.618 69.9309 105.628 69.9422 105.633 69.956C105.638 69.9699 105.637 69.9849 105.631 69.998C105.625 70.0112 105.614 70.0217 105.6 70.0265C105.587 70.0314 105.571 70.031 105.558 70.0247C103.903 69.3114 102.217 68.6375 100.605 67.835C100.579 67.8207 100.56 67.7967 100.552 67.7683C100.543 67.7398 100.547 67.7093 100.561 67.6832C100.575 67.6572 100.599 67.6379 100.627 67.6295C100.656 67.6213 100.686 67.6247 100.712 67.6385ZM100.183 56.2835C100.183 56.2262 100.291 56.2119 100.291 56.2835C100.29 58.1297 100.381 59.9748 100.565 61.8118C100.644 62.6642 101.328 67.3757 102.808 67.0333C103.054 66.9725 103.165 66.7303 103.218 66.3594C103.213 65.8715 103.147 65.3863 103.022 64.9149C102.858 63.9268 102.726 62.9387 102.644 61.9438C102.47 60.0887 102.489 58.2204 102.701 56.369C102.704 56.3585 102.71 56.3492 102.719 56.3424C102.727 56.3357 102.738 56.3323 102.749 56.3323C102.76 56.3323 102.771 56.336 102.779 56.3424C102.788 56.3488 102.794 56.3585 102.797 56.369C102.754 58.94 102.904 61.5103 103.246 64.0588C103.432 65.2858 104.049 67.1297 102.769 67.3187C101.488 67.5077 100.629 64.4225 100.462 63.5773C100.054 61.1683 99.9599 58.7165 100.183 56.2835Z" fill="#1F1B2D"/>
<path d="M102.755 67.1474C102.885 67.4662 102.996 67.7924 103.087 68.1247C103.183 68.381 103.229 68.6534 103.222 68.9272C103.222 68.977 103.151 68.9842 103.122 68.9485C102.965 68.7074 102.845 68.4442 102.766 68.1674L102.434 67.2614C102.419 67.219 102.421 67.1722 102.441 67.1313C102.46 67.0904 102.495 67.0589 102.537 67.0439C102.58 67.0289 102.627 67.0312 102.667 67.0507C102.688 67.0602 102.706 67.0736 102.721 67.0902C102.736 67.1069 102.747 67.1263 102.755 67.1474Z" fill="#1F1B2D"/>
<path d="M119.275 60.9563C119.221 61.017 95.6807 60.432 95.4703 60.1823C95.1816 59.8256 101.575 35.6543 103.283 32.0663C103.996 30.5396 107.797 30.1616 109.345 31.5064C113.267 34.8769 116.365 46.1865 117.064 49.5893C118.237 55.2101 119.478 60.7564 119.275 60.9563Z" fill="#9691A4"/>
<path d="M106.698 39.135C106.595 39.3773 106.528 39.6334 106.499 39.8948C106.814 39.4777 107.017 38.9864 107.087 38.4683C106.927 38.671 106.796 38.8955 106.698 39.135ZM104.819 48.273C104.788 48.5342 104.721 48.7899 104.62 49.0327C104.524 49.2774 104.393 49.5068 104.231 49.7138C104.262 49.4539 104.329 49.1993 104.431 48.9578C104.528 48.7125 104.659 48.4822 104.819 48.273ZM102.616 58.9515C102.585 59.2117 102.517 59.466 102.416 59.7075C102.32 59.9534 102.189 60.1841 102.027 60.3923C102.096 59.8737 102.299 59.3821 102.616 58.9658V58.9515ZM112.906 45.5978C112.879 45.8597 112.811 46.1158 112.707 46.3575C112.612 46.6024 112.482 46.8319 112.321 47.0389C112.391 46.521 112.593 46.0298 112.906 45.612V45.5978ZM116.625 52.3388C116.555 52.8566 116.354 53.3479 116.04 53.7656C116.068 53.5042 116.135 53.2483 116.236 53.0059C116.335 52.7666 116.466 52.5424 116.625 52.3388ZM107.547 56.5725C107.477 57.0903 107.276 57.5815 106.962 57.9994C106.989 57.7384 107.057 57.4834 107.161 57.243C107.257 57.0022 107.387 56.7765 107.547 56.5725ZM100.059 44.3745C100.029 44.6359 99.9619 44.892 99.8592 45.1343C99.7646 45.3789 99.6348 45.6084 99.474 45.8156C99.5021 45.5542 99.5681 45.2982 99.6702 45.0559C99.7628 44.8125 99.8888 44.5834 100.044 44.3745H100.059ZM110.092 42.6945C109.832 42.6652 109.577 42.598 109.336 42.495C109.091 42.4005 108.86 42.2708 108.652 42.1099C108.914 42.1374 109.17 42.2046 109.411 42.3094C109.651 42.4053 109.876 42.535 110.078 42.6945H110.092ZM112.589 51.1868C112.327 51.1564 112.071 51.0889 111.829 50.9873C111.584 50.8898 111.354 50.7589 111.144 50.5984C111.663 50.6686 112.154 50.8713 112.571 51.1868H112.589ZM111.875 60.8167H111.458L111.298 60.7564C111.053 60.6588 110.822 60.528 110.613 60.3675C111.062 60.4301 111.492 60.5869 111.876 60.8276L111.875 60.8167ZM102.754 53.1094C102.236 53.0404 101.744 52.8375 101.328 52.5206C101.847 52.5896 102.338 52.7925 102.754 53.1094ZM109.768 35.2759C109.25 35.2071 108.758 35.0043 108.342 34.6875C108.86 34.7565 109.352 34.9594 109.768 35.2759ZM111.925 36.4316C112.088 36.6383 112.221 36.8663 112.321 37.1093C112.427 37.3497 112.497 37.6044 112.528 37.8652C112.363 37.6603 112.23 37.4319 112.132 37.1876C112.025 36.948 111.952 36.6949 111.915 36.435L111.925 36.4316ZM115.548 47.2601C115.713 47.4651 115.847 47.6935 115.944 47.9377C116.049 48.1786 116.12 48.4331 116.154 48.6938C115.991 48.4879 115.858 48.2595 115.759 48.0161C115.651 47.7765 115.576 47.5234 115.537 47.2635L115.548 47.2601ZM115.709 57.1433C115.871 57.3506 116.004 57.5782 116.104 57.8209C116.208 58.0622 116.278 58.3166 116.312 58.5769C116.147 58.3719 116.013 58.1435 115.916 57.8992C115.808 57.6599 115.735 57.4065 115.698 57.1466L115.709 57.1433ZM103.903 43.1228C104.064 43.3305 104.196 43.5596 104.295 43.8037C104.402 44.0441 104.473 44.299 104.505 44.5601C104.342 44.3539 104.209 44.1259 104.11 43.8825C104.004 43.6406 103.935 43.3845 103.903 43.1228ZM107.708 51.8467C108.03 52.2615 108.237 52.7535 108.31 53.2732C108.149 53.0655 108.016 52.8379 107.914 52.5956C107.811 52.3568 107.742 52.1047 107.708 51.8467ZM98.5722 55.8664C98.7369 56.0714 98.8704 56.2998 98.9681 56.544C99.0735 56.7847 99.144 57.0394 99.1785 57.3C99.0136 57.0951 98.8801 56.8667 98.7825 56.6224C98.6779 56.3812 98.607 56.127 98.5722 55.8664ZM104.006 35.5365C104.169 35.7424 104.301 35.9707 104.398 36.2141C104.505 36.4544 104.576 36.7092 104.609 36.9701C104.287 36.5554 104.079 36.0636 104.006 35.5436V35.5365ZM101.154 40.8221C101.361 40.6598 101.588 40.5266 101.831 40.4261C102.072 40.3203 102.326 40.2507 102.587 40.2195C102.382 40.3834 102.153 40.5169 101.91 40.6151C101.666 40.7134 101.406 40.7771 101.143 40.8041L101.154 40.8221ZM111.277 55.8555C111.483 55.6922 111.711 55.559 111.954 55.4599C112.195 55.3553 112.45 55.2844 112.71 55.2491C112.295 55.5704 111.804 55.7793 111.284 55.8555H111.277ZM98.5294 49.7674C98.944 49.4453 99.4357 49.2376 99.9555 49.1648C99.7482 49.3253 99.5202 49.4584 99.2783 49.5604C99.0394 49.6631 98.7874 49.7329 98.5294 49.7674ZM114.607 41.061C114.429 41.1863 114.238 41.2916 114.037 41.3749C113.796 41.4803 113.541 41.5511 113.281 41.5852C113.486 41.4213 113.715 41.288 113.958 41.1896C114.16 41.1026 114.37 41.0392 114.586 41.0006C114.595 41.0202 114.602 41.0403 114.607 41.061ZM103.989 56.1731C104.195 56.0097 104.422 55.8764 104.666 55.7771C104.907 55.671 105.161 55.6001 105.422 55.5667C105.217 55.7314 104.989 55.8649 104.744 55.9627C104.504 56.0682 104.249 56.139 103.989 56.1731ZM107.105 46.3931C107.311 46.23 107.539 46.0965 107.782 45.9975C108.023 45.8914 108.278 45.8205 108.538 45.7867C108.333 45.9517 108.105 46.0852 107.861 46.1827C107.62 46.2881 107.366 46.359 107.105 46.3931Z" fill="white"/>
<path d="M104.479 35.5052C105.827 35.7193 108.223 33.3332 108.997 31.628C109.051 31.5103 108.787 30.3369 108.537 28.8995C108.387 28.0258 108.241 27.0485 108.18 26.1459C108.18 25.9603 107.563 26.3492 107.563 26.3492L106.423 26.7058L102.639 27.9328C103.045 29.0349 103.316 30.1824 103.445 31.3498C103.455 31.4683 103.455 31.5879 103.445 31.7064V31.7705C103.363 32.5089 103.178 35.2982 104.479 35.5052Z" fill="#D3735D"/>
<path d="M103.43 31.7354V31.7995C103.624 31.8153 103.818 31.8153 104.011 31.7995C107.809 31.4429 107.934 26.5566 107.934 26.5566L106.436 26.7348L102.653 27.9618C103.059 29.0639 103.33 30.211 103.459 31.3788C103.459 31.4982 103.45 31.6175 103.43 31.7354Z" fill="#1F1B2D"/>
<path d="M108.666 20.0759C109.326 22.0731 108.398 27.8976 107.001 29.2244C104.972 31.147 101.588 31.4035 99.9372 28.9499C98.3397 26.5746 99.6803 19.0026 101.249 17.7899C103.556 16.0173 107.692 17.1333 108.666 20.0759Z" fill="#D3735D"/>
<path d="M103.045 23.9746C103.045 23.9746 103.074 23.9997 103.07 24.014C102.995 24.4062 102.977 24.8664 103.312 25.0482V25.0696C102.881 24.9342 102.913 24.335 103.045 23.9746Z" fill="#1F1B2D"/>
<path d="M103.467 23.6181C104.105 23.668 103.959 24.9415 103.367 24.8983C102.775 24.8552 102.925 23.5787 103.467 23.6181ZM100.816 23.6466C100.816 23.6466 100.784 23.6466 100.784 23.6751C100.748 24.0711 100.645 24.5203 100.274 24.6096V24.6347C100.716 24.6205 100.848 24.025 100.816 23.6466Z" fill="#1F1B2D"/>
<path d="M100.511 23.1932C99.8802 23.0721 99.684 24.3381 100.269 24.4521C100.853 24.5661 101.035 23.293 100.511 23.1932ZM104.025 23.0935C103.864 23.025 103.707 22.9476 103.554 22.8617C103.376 22.8052 103.222 22.6911 103.116 22.5373C103.091 22.4828 103.085 22.4215 103.099 22.3633C103.114 22.3052 103.147 22.2535 103.194 22.2163C103.297 22.1552 103.415 22.123 103.534 22.123C103.654 22.123 103.772 22.1552 103.875 22.2163C104.103 22.3086 104.287 22.483 104.392 22.705C104.416 22.7571 104.424 22.8152 104.414 22.8718C104.404 22.9284 104.378 22.9809 104.339 23.0225C104.299 23.0642 104.249 23.0932 104.193 23.1058C104.137 23.1184 104.078 23.1141 104.025 23.0935ZM100.087 22.4942C100.263 22.4859 100.438 22.4669 100.612 22.4372C100.799 22.4387 100.981 22.3772 101.129 22.2625C101.169 22.2178 101.193 22.1605 101.197 22.1005C101.201 22.0402 101.185 21.9805 101.15 21.931C101.07 21.8425 100.967 21.7776 100.853 21.7423C100.739 21.7072 100.617 21.7035 100.501 21.7315C100.256 21.7495 100.027 21.859 99.8595 22.0382C99.8292 22.081 99.8108 22.1312 99.8067 22.1833C99.8025 22.2355 99.813 22.288 99.8363 22.3348C99.8597 22.3818 99.8955 22.4214 99.9397 22.4496C99.984 22.4777 100.035 22.4929 100.087 22.4942ZM103.159 27.5481C103.052 27.6302 102.945 27.7442 102.802 27.7408C102.657 27.7213 102.517 27.6715 102.392 27.5946C102.392 27.5946 102.364 27.5946 102.371 27.6122C102.419 27.6963 102.488 27.7659 102.572 27.8136C102.656 27.8613 102.752 27.8854 102.849 27.8833C102.933 27.8724 103.011 27.8368 103.075 27.781C103.139 27.725 103.184 27.6514 103.205 27.5695C103.208 27.5635 103.208 27.5563 103.206 27.55C103.204 27.5436 103.199 27.5383 103.193 27.5357C103.187 27.5331 103.18 27.5327 103.173 27.535C103.167 27.5372 103.162 27.5421 103.159 27.5481ZM102.877 26.3181C102.76 26.4628 102.614 26.5817 102.448 26.667C102.283 26.7523 102.101 26.8023 101.915 26.8138C101.753 26.8266 101.589 26.8157 101.43 26.7816C101.398 26.7782 101.367 26.7711 101.337 26.7602L101.251 26.7351C101.231 26.7287 101.214 26.716 101.201 26.6983C101.189 26.6807 101.183 26.6597 101.184 26.6387C101.182 26.6256 101.182 26.6124 101.184 26.5993V26.5637C101.209 26.2607 101.291 25.8006 101.291 25.8006C101.173 25.8433 100.578 26.0361 100.606 25.8756C100.797 24.5101 101.128 23.1678 101.594 21.8702C101.596 21.863 101.601 21.8568 101.607 21.8526C101.613 21.8481 101.62 21.8458 101.628 21.8458C101.635 21.8458 101.643 21.8481 101.649 21.8526C101.655 21.8571 101.659 21.8631 101.662 21.8702C101.494 23.1328 101.102 24.367 100.909 25.6225C101.121 25.5534 101.342 25.5138 101.565 25.5047C101.608 25.5227 101.391 26.3893 101.391 26.5247C101.634 26.5768 101.886 26.5798 102.131 26.533C102.376 26.4865 102.609 26.3915 102.817 26.2536C102.877 26.2607 102.906 26.2896 102.877 26.3181Z" fill="#1F1B2D"/>
<path d="M101.624 26.6456C101.765 26.8815 101.965 27.0769 102.205 27.2126C102.336 27.2854 102.488 27.3128 102.636 27.291C102.961 27.2445 102.993 26.9558 102.971 26.7026C102.956 26.5673 102.924 26.4341 102.875 26.3066C102.505 26.5503 102.066 26.6694 101.624 26.6456Z" fill="#1F1B2D"/>
<path d="M102.205 27.213C102.336 27.2857 102.488 27.3131 102.636 27.2914C102.961 27.2449 102.993 26.9561 102.971 26.703C102.805 26.6899 102.639 26.733 102.5 26.8252C102.361 26.9175 102.257 27.0544 102.205 27.213Z" fill="#FF98B9"/>
<path d="M100.114 20.3503C101.979 21.7449 104.686 19.8651 104.686 19.8651C104.832 20.2911 105.112 20.6582 105.484 20.9121C105.856 21.1659 106.3 21.2927 106.75 21.2736C106.75 21.2736 106.993 24.5372 107.848 24.5691C109.153 24.6156 109.742 20.1999 109.364 19.3119C108.986 18.4239 107.891 18.1562 107.891 18.1562C107.792 17.6229 107.494 17.1474 107.057 16.8257C106.198 16.1124 103.081 16.8969 103.081 16.8969C102.923 16.4789 102.669 16.1038 102.34 15.8019C102.26 15.7269 102.167 15.6692 102.064 15.6313C101.962 15.5934 101.853 15.5769 101.744 15.5822C101.636 15.5875 101.529 15.6148 101.431 15.6624C101.332 15.7101 101.245 15.7768 101.173 15.8593C101.326 16.106 101.421 16.384 101.452 16.6727C101.566 17.6323 100.792 17.6001 100.835 16.7368C100.837 16.4128 100.957 16.1007 101.173 15.8593C100.817 15.2814 100.196 15.0711 99.8008 15.3564C99.0909 15.8773 98.5633 19.1908 100.114 20.3503Z" fill="#1F1B2D"/>
<path d="M107.537 24.8339C107.537 24.8339 108.842 22.9544 109.694 23.4074C110.546 23.8604 109.569 26.596 108.571 26.974C108.446 27.0307 108.311 27.0616 108.174 27.0649C108.037 27.0682 107.901 27.0438 107.774 26.9931C107.647 26.9425 107.532 26.8668 107.434 26.7704C107.337 26.6738 107.26 26.5586 107.209 26.4318L107.537 24.8339Z" fill="#D3735D"/>
<path d="M109.393 24.1919C109.411 24.1919 109.411 24.2133 109.393 24.2204C108.68 24.5058 108.323 25.1549 108.067 25.8292C108.108 25.7594 108.164 25.6994 108.231 25.6533C108.297 25.6068 108.373 25.5757 108.453 25.561C108.532 25.5466 108.614 25.5494 108.693 25.5693C108.771 25.5892 108.845 25.6255 108.908 25.6762C108.926 25.6762 108.908 25.7155 108.887 25.7118C108.764 25.6728 108.632 25.6732 108.509 25.7129C108.386 25.7525 108.279 25.8294 108.202 25.933C108.072 26.1059 107.962 26.2923 107.874 26.4895C107.842 26.5537 107.728 26.5218 107.749 26.4468C107.742 25.5374 108.434 24.2845 109.393 24.1919Z" fill="#1F1B2D"/>
<path d="M103.369 79.1248L112.504 69.5912L96.0091 62.3188L86.8738 71.8524L103.369 79.1248Z" fill="#EFECF3"/>
<path d="M102.744 79.7777L111.883 70.2441L95.388 62.9717L86.2493 72.5053L102.744 79.7777Z" fill="#EFECF3"/>
<path d="M94.4177 63.9861C94.554 64.0552 94.7025 64.0966 94.8548 64.1082C95.0071 64.1198 95.1602 64.1013 95.3054 64.0536C95.4411 64.0109 95.3448 63.8718 95.2128 63.9183C95.0231 63.9766 94.8191 63.9677 94.6352 63.8931L94.546 63.8504C94.4478 63.8033 94.3632 63.7321 94.3 63.6434C94.2752 63.6028 94.2639 63.5554 94.2678 63.508V63.4686C94.2843 63.4426 94.3078 63.4217 94.3356 63.4083C94.3896 63.3805 94.4496 63.3659 94.5104 63.3655C94.5849 63.3656 94.6591 63.3752 94.7313 63.394C94.7669 63.394 94.8029 63.394 94.8419 63.4188H94.9203L95.0489 63.2834C94.9348 63.2357 94.8149 63.2033 94.6923 63.187C94.5906 63.1671 94.4864 63.1698 94.3859 63.1945C94.2856 63.2191 94.1918 63.2651 94.111 63.3295C94.0596 63.3835 94.0307 63.4551 94.0307 63.5294C94.0307 63.6036 94.0596 63.6753 94.111 63.7293C94.1879 63.8414 94.294 63.9299 94.4177 63.9861Z" fill="#BBB7C5"/>
<path d="M93.6994 64.7326C93.9755 64.873 94.2959 64.8986 94.5908 64.8039C94.7261 64.7574 94.6301 64.6182 94.4981 64.6647C94.3072 64.723 94.1021 64.7141 93.9169 64.6396C93.8865 64.6291 93.858 64.6148 93.8314 64.5968C93.7309 64.5518 93.6446 64.4802 93.5816 64.3902C93.5569 64.3494 93.5456 64.3021 93.5494 64.2545V64.2369C93.567 64.2092 93.5917 64.1869 93.621 64.1724C93.6749 64.1445 93.7351 64.1311 93.7958 64.1334C93.8689 64.1304 93.9424 64.1386 94.0133 64.1581C94.0489 64.1581 94.0845 64.1761 94.1235 64.1832H94.2019L94.3339 64.0479C94.2199 63.9999 94.0999 63.9675 93.9773 63.9515C93.8753 63.9314 93.7702 63.9337 93.6693 63.9584C93.5683 63.983 93.4739 64.0292 93.3926 64.094C93.342 64.1482 93.3138 64.2196 93.3139 64.2939C93.3139 64.3681 93.342 64.4393 93.3926 64.4933C93.4726 64.5982 93.5782 64.6806 93.6994 64.7326Z" fill="#BBB7C5"/>
<path d="M92.988 65.4788C93.2638 65.6164 93.5825 65.6407 93.876 65.5466C94.0114 65.5001 93.915 65.3648 93.7834 65.4075C93.5938 65.4653 93.3903 65.4578 93.2055 65.3861L93.1163 65.3434C93.0172 65.296 92.9324 65.2235 92.8703 65.133C92.8428 65.0949 92.8314 65.0475 92.8384 65.001L92.856 64.9796C92.8703 64.9515 92.8946 64.9298 92.9239 64.9189C92.9775 64.89 93.0375 64.875 93.0986 64.8761C93.172 64.8731 93.2453 64.8814 93.3161 64.9009L93.4267 64.9294H93.5085L93.6371 64.794C93.5227 64.7464 93.4031 64.7141 93.2805 64.6976C93.179 64.678 93.0745 64.6806 92.9741 64.7051C92.8738 64.7298 92.78 64.776 92.6993 64.8405C92.6468 64.8944 92.6175 64.9667 92.6175 65.0419C92.6175 65.1173 92.6468 65.1896 92.6993 65.2433C92.7758 65.3434 92.8747 65.424 92.988 65.4788Z" fill="#BBB7C5"/>
<path d="M92.2695 66.2248C92.5461 66.364 92.8665 66.3883 93.1609 66.2923C93.2966 66.2495 93.2002 66.1104 93.0682 66.1569C92.8773 66.2152 92.6722 66.2063 92.487 66.1318L92.3981 66.089C92.299 66.0418 92.2141 65.9693 92.1521 65.8787C92.1278 65.8391 92.1165 65.793 92.1199 65.7467C92.1206 65.7407 92.1206 65.7347 92.1199 65.7287V65.7073C92.1361 65.6809 92.1597 65.6599 92.1877 65.6469C92.243 65.6191 92.304 65.6045 92.3659 65.6042C92.4393 65.6043 92.5124 65.6138 92.5834 65.6327C92.6209 65.6379 92.6576 65.6462 92.694 65.6574H92.7154C92.727 65.654 92.7394 65.654 92.751 65.6574H92.7724L92.9006 65.522C92.7869 65.4724 92.6669 65.4389 92.544 65.4223C92.442 65.4024 92.3366 65.405 92.2357 65.4305C92.1347 65.4558 92.0404 65.5028 91.9594 65.5682C91.9087 65.6224 91.8804 65.6938 91.8804 65.768C91.8804 65.8423 91.9087 65.9137 91.9594 65.9679C92.0394 66.0784 92.1461 66.1668 92.2695 66.2248Z" fill="#BBB7C5"/>
<path d="M91.5545 66.9714C91.6908 67.0405 91.8394 67.0821 91.9918 67.0937C92.144 67.1053 92.297 67.0869 92.4421 67.0393C92.5779 66.9966 92.4815 66.8574 92.3495 66.9036C92.1599 66.962 91.9559 66.9533 91.772 66.8788L91.6828 66.8361C91.5847 66.7888 91.5001 66.7176 91.4367 66.6291C91.4089 66.5897 91.3974 66.541 91.4045 66.4933V66.4543C91.4232 66.4288 91.4476 66.4078 91.4761 66.3936C91.5301 66.3658 91.5898 66.3508 91.6505 66.3508C91.7239 66.3509 91.797 66.3605 91.868 66.3793C91.9059 66.3838 91.943 66.3921 91.9786 66.4044H92C92.012 66.4022 92.024 66.4022 92.0356 66.4044H92.057L92.189 66.2687C92.0749 66.2211 91.955 66.1887 91.8324 66.1723C91.7304 66.1521 91.6254 66.1543 91.5245 66.1791C91.4236 66.2038 91.3287 66.2503 91.2477 66.3152C91.1963 66.3689 91.1676 66.4405 91.1676 66.5149C91.1676 66.5893 91.1963 66.6608 91.2477 66.7146C91.3234 66.8277 91.4298 66.9169 91.5545 66.9714Z" fill="#BBB7C5"/>
<path d="M90.8411 67.7324C90.9769 67.8021 91.1254 67.8441 91.2776 67.8565C91.4299 67.8689 91.5833 67.8509 91.7288 67.8036C91.8679 67.7575 91.7715 67.6184 91.6395 67.6645C91.4488 67.7231 91.2437 67.7144 91.0586 67.6398C91.0276 67.6284 90.9977 67.6141 90.9694 67.597C90.8705 67.5511 90.7856 67.4796 90.7234 67.39C90.6986 67.3494 90.6873 67.302 90.6911 67.2546V67.219C90.7065 67.1909 90.7301 67.1684 90.759 67.1545C90.8141 67.1264 90.8753 67.1129 90.9371 67.1155C91.0105 67.113 91.0838 67.1214 91.1546 67.1403C91.1903 67.1403 91.2259 67.1583 91.2653 67.1654H91.3436L91.4723 67.0296C91.3584 66.9813 91.2384 66.949 91.1156 66.9336C91.0136 66.9134 90.9083 66.9156 90.8074 66.94C90.7064 66.9649 90.612 67.0113 90.5306 67.0761C90.48 67.1303 90.4519 67.2017 90.4519 67.2758C90.4519 67.35 90.48 67.4213 90.5306 67.4755C90.6094 67.5873 90.7166 67.6761 90.8411 67.7324Z" fill="#BBB7C5"/>
<path d="M90.1252 68.4638C90.4023 68.601 90.7218 68.6254 91.0166 68.5312C91.152 68.4851 91.0556 68.3494 90.924 68.3921C90.7342 68.4502 90.531 68.4424 90.3461 68.3708L90.2572 68.328C90.1579 68.2808 90.0729 68.2083 90.0108 68.1176C89.9838 68.0794 89.9715 68.0325 89.9752 67.9856V67.9643C89.9921 67.9369 90.0168 67.9159 90.0468 67.9035C90.1005 67.8746 90.1605 67.86 90.2212 67.8607C90.2946 67.8578 90.3679 67.8663 90.4387 67.8859L90.5493 67.9144H90.6277L90.7597 67.779C90.6457 67.7311 90.5257 67.6987 90.4031 67.6826C90.3012 67.6624 90.1961 67.6646 90.0952 67.689C89.994 67.7137 89.8995 67.7602 89.8185 67.8251C89.7668 67.8795 89.7379 67.9517 89.7379 68.0267C89.7379 68.1017 89.7668 68.1739 89.8185 68.2282C89.8999 68.3307 90.0052 68.4116 90.1252 68.4638Z" fill="#BBB7C5"/>
<path d="M89.4092 69.2099C89.5455 69.279 89.6941 69.3205 89.8465 69.3321C89.9987 69.3438 90.1517 69.3254 90.2968 69.2778C90.4326 69.235 90.3396 69.0959 90.2042 69.142C90.0146 69.2004 89.8106 69.1917 89.6267 69.1173L89.5375 69.0745C89.4385 69.0269 89.3537 68.9545 89.2915 68.8638C89.2671 68.8244 89.2558 68.7783 89.2592 68.7318V68.6928C89.2746 68.6658 89.2986 68.6444 89.3271 68.632C89.3814 68.6046 89.4411 68.59 89.5018 68.5893C89.5765 68.5896 89.6508 68.5991 89.7231 68.6178C89.7602 68.623 89.7973 68.6316 89.8333 68.6429H89.8547C89.8663 68.6391 89.8787 68.6391 89.8903 68.6429H89.9117L90.0403 68.5071C89.9267 68.4569 89.8067 68.4231 89.6837 68.4074C89.5821 68.3883 89.4775 68.3913 89.377 68.4164C89.2765 68.4415 89.1831 68.4884 89.1025 68.5536C89.051 68.6074 89.0223 68.6789 89.0223 68.7533C89.0223 68.8277 89.051 68.8993 89.1025 68.953C89.1814 69.0632 89.2869 69.1515 89.4092 69.2099Z" fill="#BBB7C5"/>
<path d="M88.6953 69.9564C88.972 70.0959 89.2923 70.1202 89.5866 70.0242C89.7224 69.9811 89.626 69.8424 89.494 69.8885C89.3044 69.9469 89.1004 69.9382 88.9165 69.8637C88.8854 69.8521 88.8554 69.8379 88.8273 69.8206C88.7286 69.7745 88.6435 69.7032 88.5813 69.614C88.5539 69.5742 88.5415 69.5262 88.5456 69.4782C88.5453 69.4724 88.5453 69.4665 88.5456 69.4606V69.4392C88.5643 69.4137 88.5887 69.3929 88.6169 69.3785C88.6708 69.3504 88.7308 69.3357 88.7916 69.3357C88.8651 69.3358 88.9382 69.3454 89.0091 69.3642C89.0466 69.3696 89.0836 69.378 89.1198 69.3893H89.1411C89.1527 69.3871 89.1647 69.3871 89.1767 69.3893H89.1981L89.3301 69.2536C89.2158 69.206 89.0961 69.1737 88.9735 69.1572C88.8715 69.137 88.7663 69.1393 88.6653 69.164C88.5644 69.1887 88.4699 69.2352 88.3889 69.3001C88.3371 69.3537 88.3086 69.4253 88.3086 69.4996C88.3086 69.5738 88.3371 69.6459 88.3889 69.6995C88.465 69.812 88.5711 69.9009 88.6953 69.9564Z" fill="#BBB7C5"/>
<path d="M87.9842 70.7025C88.12 70.7722 88.2685 70.8142 88.4207 70.8266C88.573 70.839 88.7264 70.821 88.8719 70.7737C89.0076 70.7276 88.9112 70.5885 88.7792 70.6346C88.5896 70.693 88.3857 70.6843 88.2018 70.6099C88.1706 70.5982 88.1406 70.584 88.1125 70.5671C88.0136 70.5212 87.9287 70.4497 87.8665 70.3601C87.8417 70.3196 87.8305 70.272 87.8342 70.2244V70.2067C87.8495 70.1787 87.8732 70.1562 87.9021 70.1426C87.9561 70.1149 88.0161 70.1014 88.0769 70.1032C88.15 70.1002 88.2235 70.1089 88.2944 70.1284C88.3317 70.1346 88.3686 70.1428 88.405 70.1531H88.4867L88.6154 70.0177C88.5013 69.97 88.3814 69.9376 88.2587 69.9214C88.1571 69.9015 88.0529 69.9041 87.9524 69.9289C87.852 69.9534 87.7583 69.9995 87.6775 70.0639C87.6251 70.1172 87.5957 70.189 87.5957 70.2637C87.5957 70.3385 87.6251 70.4103 87.6775 70.4636C87.7566 70.569 87.8624 70.6515 87.9842 70.7025Z" fill="#BBB7C5"/>
<path d="M87.262 71.4486C87.5391 71.5859 87.8586 71.6103 88.1533 71.5161C88.2887 71.47 88.1923 71.3343 88.0607 71.377C87.8698 71.4348 87.6655 71.4273 87.4795 71.3556L87.394 71.3129C87.2931 71.2668 87.2068 71.194 87.1442 71.1025C87.1199 71.063 87.1086 71.0168 87.112 70.9705V70.9491C87.1288 70.9218 87.1536 70.9008 87.1836 70.8884C87.2372 70.8595 87.2972 70.8449 87.358 70.8456C87.4313 70.8427 87.5047 70.8512 87.5755 70.8708L87.6861 70.8993H87.7645L87.8965 70.7635C87.7823 70.7159 87.6624 70.6836 87.5398 70.6675C87.438 70.6473 87.3329 70.6495 87.232 70.6739C87.1307 70.6986 87.0362 70.7451 86.9552 70.81C86.9046 70.8642 86.8764 70.9356 86.8764 71.0097C86.8764 71.0838 86.9046 71.1552 86.9552 71.2094C87.0366 71.3129 87.1416 71.395 87.262 71.4486Z" fill="#BBB7C5"/>
<path d="M86.5505 72.1948C86.6866 72.2642 86.8355 72.3058 86.9877 72.3174C87.1401 72.329 87.2933 72.3104 87.4385 72.2627C87.5738 72.2199 87.4775 72.0808 87.3455 72.1273C87.1558 72.1856 86.9518 72.1767 86.768 72.1022L86.6787 72.0594C86.5797 72.0121 86.4949 71.9395 86.4327 71.849C86.4053 71.8109 86.3938 71.7635 86.4008 71.717V71.6957C86.4185 71.669 86.4432 71.648 86.4721 71.6349C86.5263 71.6075 86.5861 71.5929 86.6468 71.5922C86.7203 71.5922 86.7934 71.6018 86.8643 71.6207C86.902 71.6253 86.939 71.6337 86.975 71.6458H87.0567L87.1853 71.5138C87.0717 71.4632 86.9517 71.4298 86.8287 71.414C86.727 71.3945 86.6223 71.3976 86.522 71.423C86.4215 71.4482 86.3277 71.495 86.2475 71.5599C86.1953 71.6135 86.1657 71.6852 86.1657 71.7598C86.1657 71.8344 86.1953 71.906 86.2475 71.9597C86.327 72.0624 86.4312 72.143 86.5505 72.1948Z" fill="#BBB7C5"/>
<path d="M112.024 33.9179C117.112 40.8697 120.247 50.2927 119.994 52.3972C119.715 54.7297 116.817 62.6977 113.611 66.307C112.766 67.2558 105.706 60.1154 106.565 59.0632C108.227 57.037 111.432 51.145 111.525 49.8292C111.611 48.6164 109.493 40.9124 108.826 36.5324C108.184 32.3129 109.645 30.6865 112.024 33.9179Z" fill="#D3735D"/>
<path d="M106.765 58.8188L100.91 61.8611C99.637 62.5744 97.5617 63.9795 96.8627 64.9283C95.818 66.3551 92.3627 72.9499 93.9426 73.8199C95.3687 74.6119 97.6258 68.5628 97.6258 68.5628C97.6258 68.5628 94.816 74.4656 96.7165 75.1005C98.617 75.7354 100.254 68.5665 100.254 68.5665C100.254 68.5665 97.501 74.6974 99.562 75.0398C101.12 75.3004 102.967 68.8875 102.967 68.8875C102.967 68.8875 100.639 74.1731 102.229 74.5084C103.987 74.865 106.062 69.0694 106.062 69.0694C110.252 69.2441 112.316 67.614 113.65 66.2801C113.967 65.952 106.765 58.8188 106.765 58.8188Z" fill="#D3735D"/>
<path d="M98.4739 66.4613L97.461 68.5408C97.1603 69.2493 96.8973 69.9731 96.6731 70.7093C96.3558 71.6626 96.1526 72.6503 96.0667 73.6516C96.3558 71.8685 97.365 69.3252 97.6609 68.6157C97.9567 67.9062 98.2099 67.1889 98.5024 66.4757C98.5057 66.4543 98.4739 66.4471 98.4739 66.4613ZM101.054 67.4739L99.8164 70.1417C99.4421 71.0511 99.1639 71.9251 98.8537 72.863C98.8286 72.9342 98.8751 72.9237 98.8999 72.863L100.002 70.2201L101.071 67.4953C101.082 67.4702 101.061 67.4631 101.054 67.4739ZM103.428 67.9426C102.757 69.2924 102.226 70.7075 101.844 72.1655C101.827 72.2367 101.884 72.2153 101.908 72.1441C102.408 70.7172 102.789 69.6188 103.474 67.9674C103.485 67.9427 103.442 67.9175 103.428 67.9426ZM116.934 41.0627L109.41 42.8813C109.41 42.8813 108.255 37.5957 108.493 34.343C108.732 31.0902 110.633 31.6326 112.548 34.1574C114.463 36.6823 116.934 41.0627 116.934 41.0627Z" fill="#1F1B2D"/>
<path d="M90.2366 136.35C91.7805 136.043 93.6738 136.254 94.872 137.342C94.9181 137.384 94.872 137.448 94.8075 137.434C93.3247 136.976 91.797 136.678 90.2508 136.546C90.2272 136.544 90.2055 136.533 90.1893 136.517C90.173 136.5 90.163 136.477 90.1612 136.454C90.1594 136.43 90.166 136.407 90.18 136.388C90.1938 136.369 90.2137 136.356 90.2366 136.35ZM89.1341 137.036C90.6746 136.726 92.568 136.94 93.7695 138.028C93.816 138.067 93.7695 138.135 93.7053 138.12C92.2215 137.661 90.6926 137.364 89.145 137.232C89.1217 137.229 89.1003 137.219 89.0842 137.201C89.0683 137.184 89.059 137.162 89.058 137.139C89.0569 137.116 89.0639 137.093 89.0778 137.074C89.0916 137.055 89.1115 137.042 89.1341 137.036Z" fill="#BBB7C5"/>
<path d="M88.0255 137.726C89.5694 137.416 91.4627 137.63 92.6609 138.714C92.7074 138.757 92.6609 138.821 92.5967 138.807C91.1132 138.351 89.5859 138.053 88.0397 137.919C88.0142 137.921 87.9891 137.913 87.9696 137.896C87.9501 137.879 87.9385 137.855 87.9362 137.83C87.9345 137.804 87.9428 137.779 87.9595 137.76C87.9764 137.74 88 137.728 88.0255 137.726ZM96.9205 136.11C95.6549 136.67 94.1894 136.663 92.8341 136.824C92.6954 136.824 92.6237 136.692 92.6489 136.574C92.6429 136.572 92.6376 136.569 92.6327 136.564C92.6279 136.56 92.6245 136.555 92.6222 136.549C92.62 136.544 92.619 136.537 92.6192 136.531C92.6192 136.525 92.6211 136.519 92.6237 136.513C93.4129 135.301 94.506 134.317 95.794 133.66C96.5534 133.303 97.7406 133.2 98.1295 134.159C98.5184 135.119 97.6622 135.786 96.9205 136.11ZM97.6052 134.997C98.2825 133.417 96.3002 133.842 95.7509 134.134C95.4004 134.333 95.0634 134.554 94.7421 134.797C94.0844 135.307 93.4536 135.85 92.8521 136.424C93.5117 136.31 94.1785 136.256 94.8419 136.167C95.6226 136.06 97.2344 135.857 97.6052 134.997Z" fill="#BBB7C5"/>
<path d="M88.1851 133.005C88.7806 132.16 89.9179 132.52 90.5704 133.055C91.6731 133.994 92.5105 135.205 92.999 136.568C93.0013 136.574 93.002 136.58 93.0013 136.587C93.0005 136.593 92.9983 136.599 92.9949 136.604C92.9915 136.61 92.9865 136.614 92.9813 136.617C92.976 136.62 92.9693 136.621 92.9629 136.621C92.9629 136.739 92.856 136.868 92.7207 136.818C91.4404 136.365 90.0105 136.033 88.9054 135.198C88.26 134.71 87.6219 133.804 88.1851 133.005ZM90.9199 135.73C91.5439 135.969 92.1788 136.176 92.7957 136.443C92.3459 135.749 91.8615 135.078 91.3444 134.432C91.0879 134.121 90.8105 133.827 90.5135 133.554C90.05 133.144 88.2173 132.277 88.5094 133.968C88.6594 134.892 90.1748 135.445 90.9199 135.73ZM108.956 137.134C110.472 136.716 112.376 136.795 113.649 137.793C113.696 137.833 113.649 137.901 113.588 137.89C112.076 137.538 110.53 137.349 108.978 137.326C108.956 137.323 108.935 137.313 108.92 137.297C108.904 137.281 108.894 137.261 108.892 137.238C108.89 137.216 108.895 137.194 108.906 137.175C108.918 137.156 108.936 137.141 108.956 137.134ZM107.903 137.895C109.418 137.478 111.322 137.538 112.592 138.555C112.641 138.594 112.592 138.662 112.535 138.651C111.022 138.3 109.476 138.113 107.924 138.091C107.9 138.09 107.878 138.081 107.86 138.064C107.843 138.048 107.832 138.026 107.829 138.002C107.827 137.979 107.833 137.955 107.846 137.935C107.86 137.916 107.88 137.901 107.903 137.895ZM106.845 138.66C108.36 138.243 110.264 138.321 111.534 139.32C111.584 139.359 111.534 139.431 111.477 139.416C109.964 139.066 108.419 138.878 106.866 138.856C106.842 138.855 106.82 138.846 106.803 138.829C106.785 138.813 106.774 138.791 106.772 138.767C106.769 138.744 106.775 138.72 106.788 138.7C106.802 138.681 106.822 138.666 106.845 138.66Z" fill="#BBB7C5"/>
<path d="M106.677 133.943C107.213 133.055 108.371 133.336 109.059 133.821C110.226 134.678 111.147 135.827 111.73 137.152C111.733 137.158 111.734 137.165 111.734 137.172C111.734 137.179 111.732 137.185 111.729 137.191C111.726 137.196 111.722 137.202 111.716 137.206C111.711 137.209 111.705 137.212 111.698 137.213C111.702 137.243 111.699 137.274 111.689 137.302C111.678 137.331 111.662 137.356 111.64 137.377C111.618 137.398 111.591 137.413 111.563 137.422C111.534 137.431 111.503 137.433 111.473 137.427C110.161 137.07 108.714 136.835 107.551 136.079C106.87 135.637 106.168 134.788 106.677 133.943ZM109.598 136.468C110.236 136.661 110.885 136.824 111.516 137.042C111.016 136.377 110.481 135.739 109.915 135.13C109.637 134.839 109.339 134.567 109.024 134.317C108.532 133.939 106.642 133.204 107.055 134.87C107.28 135.79 108.817 136.232 109.594 136.468H109.598Z" fill="#BBB7C5"/>
<path d="M115.591 136.421C114.364 137.07 112.902 137.167 111.565 137.409C111.426 137.434 111.344 137.295 111.358 137.178C111.352 137.177 111.346 137.174 111.341 137.169C111.335 137.165 111.332 137.16 111.329 137.154C111.327 137.148 111.326 137.141 111.327 137.135C111.328 137.128 111.329 137.122 111.333 137.117C112.033 135.849 113.053 134.788 114.293 134.039C115.006 133.618 116.2 133.443 116.653 134.374C117.106 135.305 116.304 136.043 115.591 136.421ZM116.193 135.266C116.756 133.64 114.806 134.196 114.282 134.553C113.946 134.768 113.626 135.006 113.323 135.266C112.697 135.82 112.102 136.407 111.54 137.024C112.189 136.864 112.848 136.76 113.504 136.625C114.317 136.461 115.901 136.161 116.211 135.266H116.193Z" fill="#BBB7C5"/>
<path d="M50.5195 71.7114H71.0255V38.7842H50.5195V71.7114Z" fill="white"/>
<path d="M45.2617 54.2475H49.4877V51.7793H45.2617V54.2475Z" fill="#D5D2DC"/>
<path d="M75.704 30.6841H12.2162C9.853 30.6841 7.9375 32.6003 7.9375 34.964V138.441C7.9375 140.805 9.853 142.721 12.2162 142.721H75.704C78.067 142.721 79.982 140.805 79.982 138.441V34.964C79.982 32.6003 78.067 30.6841 75.704 30.6841Z" fill="white"/>
<path fill-rule="evenodd" clip-rule="evenodd" d="M75.704 30.9338H12.2162C11.1475 30.9343 10.1228 31.3592 9.3672 32.115C8.6116 32.8708 8.1871 33.8956 8.1869 34.9643V138.442C8.1872 139.51 8.6118 140.535 9.3673 141.291C10.1229 142.047 11.1476 142.471 12.2162 142.472H75.704C76.772 142.471 77.797 142.047 78.553 141.291C79.308 140.535 79.733 139.51 79.733 138.442V34.9643C79.733 33.8956 79.308 32.8708 78.553 32.115C77.797 31.3592 76.772 30.9343 75.704 30.9338ZM12.2162 30.6841H75.704C78.067 30.6841 79.982 32.6003 79.982 34.964V138.441C79.982 140.805 78.067 142.721 75.704 142.721H12.2162C9.853 142.721 7.9375 140.805 7.9375 138.441V34.964C7.9375 32.6003 9.853 30.6841 12.2162 30.6841Z" fill="#1F1B2D"/>
<path d="M25.9484 59.2686H14.8814C14.1119 59.2686 13.4883 59.8918 13.4883 60.6609V71.7324C13.4883 72.5016 14.1119 73.1252 14.8814 73.1252H25.9484C26.7176 73.1252 27.3412 72.5016 27.3412 71.7324V60.6609C27.3412 59.8918 26.7176 59.2686 25.9484 59.2686Z" fill="#EFECF3"/>
<path d="M41.6429 59.2686H30.5764C29.8073 59.2686 29.1836 59.8918 29.1836 60.6609V71.7324C29.1836 72.5016 29.8073 73.1252 30.5764 73.1252H41.6429C42.4129 73.1252 43.0369 72.5016 43.0369 71.7324V60.6609C43.0369 59.8918 42.4129 59.2686 41.6429 59.2686Z" fill="#EFECF3"/>
<path d="M57.3467 59.2686H46.2797C45.5107 59.2686 44.8867 59.8918 44.8867 60.6609V71.7324C44.8867 72.5016 45.5107 73.1252 46.2797 73.1252H57.3467C58.1157 73.1252 58.7397 72.5016 58.7397 71.7324V60.6609C58.7397 59.8918 58.1157 59.2686 57.3467 59.2686Z" fill="#A237EE"/>
<path d="M73.0381 59.2686H61.9711C61.2011 59.2686 60.5781 59.8918 60.5781 60.6609V71.7324C60.5781 72.5016 61.2011 73.1252 61.9711 73.1252H73.0381C73.8071 73.1252 74.4301 72.5016 74.4301 71.7324V60.6609C74.4301 59.8918 73.8071 59.2686 73.0381 59.2686Z" fill="#A237EE"/>
<path d="M25.9484 75.1611H14.8814C14.1119 75.1611 13.4883 75.7844 13.4883 76.5535V87.625C13.4883 88.3942 14.1119 89.0174 14.8814 89.0174H25.9484C26.7176 89.0174 27.3412 88.3942 27.3412 87.625V76.5535C27.3412 75.7844 26.7176 75.1611 25.9484 75.1611Z" fill="#454056"/>
<path d="M41.6429 75.1611H30.5764C29.8073 75.1611 29.1836 75.7844 29.1836 76.5535V87.625C29.1836 88.3942 29.8073 89.0174 30.5764 89.0174H41.6429C42.4129 89.0174 43.0369 88.3942 43.0369 87.625V76.5535C43.0369 75.7844 42.4129 75.1611 41.6429 75.1611Z" fill="#454056"/>
<path d="M57.3467 75.1611H46.2797C45.5107 75.1611 44.8867 75.7844 44.8867 76.5535V87.625C44.8867 88.3942 45.5107 89.0174 46.2797 89.0174H57.3467C58.1157 89.0174 58.7397 88.3942 58.7397 87.625V76.5535C58.7397 75.7844 58.1157 75.1611 57.3467 75.1611Z" fill="#454056"/>
<path d="M73.0381 75.2588H61.9711C61.2011 75.2588 60.5781 75.8824 60.5781 76.6515V87.723C60.5781 88.4917 61.2011 89.1154 61.9711 89.1154H73.0381C73.8071 89.1154 74.4301 88.4917 74.4301 87.723V76.6515C74.4301 75.8824 73.8071 75.2588 73.0381 75.2588Z" fill="#EFECF3"/>
<path d="M25.9484 91.0537H14.8814C14.1119 91.0537 13.4883 91.677 13.4883 92.4461V103.518C13.4883 104.287 14.1119 104.91 14.8814 104.91H25.9484C26.7176 104.91 27.3412 104.287 27.3412 103.518V92.4461C27.3412 91.677 26.7176 91.0537 25.9484 91.0537Z" fill="#454056"/>
<path d="M41.6429 91.0537H30.5764C29.8073 91.0537 29.1836 91.677 29.1836 92.4461V103.518C29.1836 104.287 29.8073 104.91 30.5764 104.91H41.6429C42.4129 104.91 43.0369 104.287 43.0369 103.518V92.4461C43.0369 91.677 42.4129 91.0537 41.6429 91.0537Z" fill="#454056"/>
<path d="M57.3467 91.0537H46.2797C45.5107 91.0537 44.8867 91.677 44.8867 92.4461V103.518C44.8867 104.287 45.5107 104.91 46.2797 104.91H57.3467C58.1157 104.91 58.7397 104.287 58.7397 103.518V92.4461C58.7397 91.677 58.1157 91.0537 57.3467 91.0537Z" fill="#454056"/>
<path d="M73.0381 91.0537H61.9711C61.2011 91.0537 60.5781 91.677 60.5781 92.4461V103.518C60.5781 104.287 61.2011 104.91 61.9711 104.91H73.0381C73.8071 104.91 74.4301 104.287 74.4301 103.518V92.4461C74.4301 91.677 73.8071 91.0537 73.0381 91.0537Z" fill="#EFECF3"/>
<path d="M25.9484 106.946H14.8814C14.1119 106.946 13.4883 107.57 13.4883 108.339V119.411C13.4883 120.179 14.1119 120.803 14.8814 120.803H25.9484C26.7176 120.803 27.3412 120.179 27.3412 119.411V108.339C27.3412 107.57 26.7176 106.946 25.9484 106.946Z" fill="#454056"/>
<path d="M41.6429 106.946H30.5764C29.8073 106.946 29.1836 107.57 29.1836 108.339V119.411C29.1836 120.179 29.8073 120.803 30.5764 120.803H41.6429C42.4129 120.803 43.0369 120.179 43.0369 119.411V108.339C43.0369 107.57 42.4129 106.946 41.6429 106.946Z" fill="#454056"/>
<path d="M57.3467 106.946H46.2797C45.5107 106.946 44.8867 107.57 44.8867 108.339V119.411C44.8867 120.179 45.5107 120.803 46.2797 120.803H57.3467C58.1157 120.803 58.7397 120.179 58.7397 119.411V108.339C58.7397 107.57 58.1157 106.946 57.3467 106.946Z" fill="#454056"/>
<path d="M73.0381 106.946H61.9711C61.2011 106.946 60.5781 107.57 60.5781 108.339V119.41C60.5781 120.179 61.2011 120.803 61.9711 120.803H73.0381C73.8071 120.803 74.4301 120.179 74.4301 119.41V108.339C74.4301 107.57 73.8071 106.946 73.0381 106.946Z" fill="#EFECF3"/>
<path d="M25.9484 122.839H14.8814C14.1119 122.839 13.4883 123.462 13.4883 124.231V135.303C13.4883 136.072 14.1119 136.695 14.8814 136.695H25.9484C26.7176 136.695 27.3412 136.072 27.3412 135.303V124.231C27.3412 123.462 26.7176 122.839 25.9484 122.839Z" fill="#454056"/>
<path d="M41.6429 122.839H30.5764C29.8073 122.839 29.1836 123.462 29.1836 124.231V135.303C29.1836 136.072 29.8073 136.695 30.5764 136.695H41.6429C42.4129 136.695 43.0369 136.072 43.0369 135.303V124.231C43.0369 123.462 42.4129 122.839 41.6429 122.839Z" fill="#454056"/>
<path d="M57.3467 122.839H46.2797C45.5107 122.839 44.8867 123.462 44.8867 124.231V135.303C44.8867 136.072 45.5107 136.695 46.2797 136.695H57.3467C58.1157 136.695 58.7397 136.072 58.7397 135.303V124.231C58.7397 123.462 58.1157 122.839 57.3467 122.839Z" fill="#EFECF3"/>
<path d="M73.0381 122.839H61.9711C61.2011 122.839 60.5781 123.462 60.5781 124.231V135.303C60.5781 136.072 61.2011 136.695 61.9711 136.695H73.0381C73.8071 136.695 74.4301 136.072 74.4301 135.303V124.231C74.4301 123.462 73.8071 122.839 73.0381 122.839Z" fill="#EFECF3"/>
<path d="M18.3574 64.8488C18.3498 64.7175 18.3688 64.586 18.4133 64.4622C18.4577 64.3383 18.527 64.2247 18.6169 64.1285C18.7065 64.0321 18.8145 63.9549 18.9349 63.9016C19.0552 63.8483 19.1851 63.82 19.3167 63.8184C19.4468 63.8199 19.575 63.848 19.6939 63.9008C19.8128 63.9537 19.9196 64.0302 20.0078 64.1255C20.0959 64.2207 20.1645 64.3332 20.208 64.4559C20.2515 64.5785 20.2699 64.7086 20.2616 64.8383C20.2693 64.9699 20.2503 65.1017 20.2057 65.2257C20.1612 65.3498 20.0921 65.4635 20.0025 65.5602C19.9129 65.6567 19.8048 65.7341 19.6845 65.7879C19.5641 65.8415 19.434 65.8704 19.3024 65.8726C19.1723 65.8704 19.0436 65.8419 18.9251 65.7886C18.8066 65.7354 18.6994 65.6588 18.6109 65.5628C18.5226 65.4672 18.4546 65.3547 18.411 65.2321C18.3675 65.1091 18.3492 64.979 18.3574 64.8488ZM19.7483 64.8488C19.7483 64.5278 19.5626 64.2605 19.3024 64.2605C19.0421 64.2605 18.8708 64.5278 18.8708 64.8383C18.8708 65.1698 19.0564 65.4267 19.3167 65.4267C19.5769 65.4267 19.7483 65.1593 19.7483 64.8488ZM19.035 67.5417L21.6844 63.9252C21.7043 63.8918 21.7331 63.8645 21.768 63.8461C21.8026 63.8278 21.8415 63.8194 21.8805 63.8217C21.9101 63.8213 21.9398 63.8266 21.9675 63.8378C21.9952 63.8488 22.0203 63.8653 22.0414 63.8862C22.0628 63.9072 22.0797 63.932 22.0913 63.9597C22.1026 63.9872 22.1085 64.0166 22.1085 64.0463C22.1075 64.1002 22.0901 64.1526 22.0586 64.1964L19.4093 67.8128C19.3871 67.8451 19.3572 67.8714 19.3223 67.8897C19.2874 67.9081 19.2488 67.9167 19.2098 67.9164C19.1801 67.9168 19.1507 67.9114 19.1231 67.9002C19.0957 67.889 19.0707 67.8724 19.0496 67.8515C19.0286 67.8306 19.0121 67.8056 19.0013 67.778C18.99 67.7506 18.9844 67.7214 18.9851 67.6917C18.9814 67.6392 18.9942 67.5871 19.0208 67.5417H19.035ZM20.8178 66.914C20.8101 66.7826 20.8291 66.6511 20.8736 66.5274C20.9183 66.4032 20.9873 66.29 21.0769 66.1936C21.1665 66.0972 21.2748 66.0199 21.3951 65.9666C21.5155 65.9133 21.6454 65.885 21.777 65.8835C21.9068 65.8853 22.035 65.9138 22.1535 65.9667C22.2721 66.0199 22.3787 66.0964 22.467 66.1917C22.5554 66.2869 22.6235 66.3991 22.6673 66.5213C22.7111 66.6436 22.7295 66.7737 22.722 66.9035C22.7296 67.0348 22.7107 67.1662 22.6665 67.2901C22.6222 67.4139 22.5533 67.5274 22.464 67.6239C22.3748 67.7206 22.2671 67.7982 22.1471 67.8519C22.0272 67.9059 21.8976 67.9351 21.7661 67.9377C21.634 67.9383 21.5032 67.9118 21.3817 67.8599C21.2601 67.808 21.1506 67.7317 21.0596 67.6358C20.9687 67.5401 20.8985 67.4266 20.8534 67.3025C20.808 67.1784 20.7885 67.046 20.7964 66.914H20.8178ZM22.2083 66.914C22.2083 66.593 22.023 66.3256 21.7661 66.3256C21.5093 66.3256 21.3311 66.593 21.3311 66.9035C21.3311 67.235 21.5168 67.4918 21.777 67.4918C22.0373 67.4918 22.1869 67.2245 22.1869 66.914H22.2083Z" fill="#454056"/>
<path d="M48.3014 65.8124C48.3114 65.2581 48.5384 64.7298 48.9344 64.3409C49.3294 63.9522 49.8614 63.734 50.4154 63.733C50.8984 63.7293 51.3684 63.889 51.7494 64.186C51.8114 64.2419 51.8494 64.3192 51.8574 64.4024C51.8644 64.4857 51.8404 64.5681 51.7894 64.6345C51.7394 64.7006 51.6654 64.7451 51.5834 64.759C51.5014 64.7733 51.4164 64.7557 51.3464 64.7103C51.0824 64.4992 50.7534 64.3869 50.4154 64.393C50.0304 64.3952 49.6594 64.5429 49.3784 64.8066C49.1104 65.0729 48.9594 65.4348 48.9574 65.8124C48.9564 65.9991 48.9934 66.184 49.0664 66.3561C49.1384 66.5286 49.2444 66.6843 49.3784 66.8148C49.6594 67.0795 50.0304 67.2284 50.4154 67.2321C50.7534 67.2375 51.0824 67.1252 51.3464 66.9145C51.4174 66.868 51.5034 66.8489 51.5874 66.8598C51.6684 66.8781 51.7394 66.9239 51.7904 66.9891C51.8404 67.0543 51.8664 67.1351 51.8644 67.2175C51.8544 67.3027 51.8134 67.3813 51.7494 67.4388C51.3674 67.7333 50.8984 67.8916 50.4154 67.8884C49.8614 67.8902 49.3284 67.6733 48.9324 67.2846C48.5364 66.8961 48.3094 66.367 48.3014 65.8124ZM52.9254 67.5712V64.1684C52.9244 64.1265 52.9314 64.0848 52.9474 64.0458C52.9624 64.0069 52.9864 63.9715 53.0154 63.9419C53.0454 63.9123 53.0814 63.889 53.1204 63.8733C53.1584 63.8576 53.2004 63.85 53.2424 63.8512H55.1254C55.2044 63.8593 55.2774 63.8966 55.3294 63.9558C55.3824 64.0146 55.4124 64.0912 55.4124 64.1703C55.4124 64.2496 55.3824 64.3261 55.3294 64.3851C55.2774 64.444 55.2034 64.4811 55.1254 64.4894H53.5634V65.5597H54.9074C54.9924 65.5597 55.0744 65.5934 55.1344 65.6534C55.1944 65.7137 55.2284 65.7954 55.2284 65.8807C55.2284 65.9658 55.1944 66.0472 55.1344 66.1075C55.0744 66.1679 54.9924 66.2016 54.9074 66.2016H53.5634V67.2715H55.1254C55.2094 67.2739 55.2904 67.3091 55.3494 67.3697C55.4084 67.4303 55.4424 67.5115 55.4424 67.5963C55.4404 67.6795 55.4064 67.7594 55.3474 67.8187C55.2884 67.8776 55.2084 67.9115 55.1254 67.9135H53.2564C53.2114 67.9161 53.1664 67.9094 53.1244 67.8929C53.0824 67.8764 53.0434 67.8513 53.0124 67.8187C52.9804 67.7861 52.9564 67.7471 52.9414 67.7044C52.9264 67.6617 52.9204 67.6162 52.9254 67.5712ZM65.7084 65.8124C65.7194 65.2581 65.9464 64.7298 66.3414 64.3409C66.7374 63.9522 67.2684 63.734 67.8234 63.733C68.3064 63.7293 68.7764 63.889 69.1564 64.186C69.2184 64.2419 69.2574 64.3192 69.2644 64.4024C69.2724 64.4857 69.2484 64.5681 69.1974 64.6345C69.1464 64.7006 69.0724 64.7451 68.9904 64.759C68.9084 64.7733 68.8234 64.7557 68.7544 64.7103C68.4904 64.4997 68.1614 64.3876 67.8234 64.393C67.4374 64.3952 67.0674 64.5429 66.7854 64.8066C66.5174 65.0729 66.3664 65.4348 66.3654 65.8124C66.3644 65.9991 66.4014 66.184 66.4734 66.3561C66.5464 66.5286 66.6524 66.6843 66.7854 66.8148C67.0664 67.0795 67.4374 67.2284 67.8234 67.2321C68.1604 67.237 68.4894 67.1249 68.7544 66.9145C68.8254 66.868 68.9104 66.8489 68.9954 66.8598C69.0754 66.8781 69.1474 66.9239 69.1974 66.9891C69.2484 67.0543 69.2744 67.1351 69.2714 67.2175C69.2614 67.3027 69.2204 67.3813 69.1564 67.4388C68.7744 67.7328 68.3054 67.8906 67.8234 67.8884C67.2684 67.8902 66.7354 67.6733 66.3394 67.2846C65.9444 66.8961 65.7174 66.367 65.7084 65.8124ZM21.6799 80.4974L20.2538 83.9069C20.2309 83.9653 20.1905 84.0152 20.1381 84.0497C20.0857 84.0842 20.024 84.1017 19.9613 84.0997C19.9197 84.0997 19.8784 84.091 19.8402 84.0745C19.7633 84.0415 19.7022 83.98 19.6695 83.9028C19.6368 83.8257 19.6353 83.739 19.6654 83.6609L20.9134 80.7006H19.4228C19.3382 80.6981 19.2579 80.6627 19.1989 80.602C19.14 80.5416 19.1063 80.4606 19.1055 80.3759C19.1048 80.2911 19.1389 80.2113 19.1985 80.1517C19.2582 80.092 19.3388 80.0587 19.4228 80.0587H21.402C21.4209 80.0553 21.4402 80.0553 21.459 80.0587C21.5012 80.0689 21.5419 80.0845 21.5802 80.1051V80.1228C21.5802 80.1228 21.5981 80.1228 21.6015 80.1441C21.6049 80.1655 21.6195 80.1621 21.6267 80.1693C21.6338 80.1764 21.6267 80.1869 21.6267 80.1906V80.2191L21.648 80.2514V80.2799C21.6499 80.2893 21.6499 80.299 21.648 80.3084C21.6552 80.3497 21.6552 80.392 21.648 80.4333C21.663 80.4522 21.6739 80.474 21.6799 80.4974ZM37.3737 82.7137C37.3744 82.9526 37.313 83.1876 37.1956 83.3957C37.0782 83.6039 36.9088 83.7779 36.7039 83.9009C36.4992 84.0239 36.2659 84.0918 36.027 84.0974C35.6664 84.1051 35.3169 83.9717 35.0532 83.7256C34.7895 83.4794 34.6323 83.14 34.6152 82.7796C34.6047 82.5411 34.656 82.3038 34.7644 82.0908C34.8729 81.8778 35.0348 81.6966 35.2343 81.565C35.1442 81.4442 35.084 81.3037 35.0588 81.1551C35.0336 81.0066 35.0438 80.854 35.0892 80.7104C35.1344 80.5666 35.2131 80.4355 35.3187 80.3279C35.4244 80.2203 35.5538 80.1396 35.697 80.092C35.8403 80.0444 35.9922 80.0316 36.141 80.0541C36.2899 80.0766 36.4317 80.1348 36.5539 80.2229C36.6762 80.311 36.7755 80.4269 36.8445 80.5611C36.9135 80.6954 36.9492 80.8435 36.9495 80.9943C36.9501 81.2006 36.8823 81.4013 36.7568 81.565C36.9461 81.691 37.1014 81.8616 37.209 82.0623C37.3167 82.2625 37.3733 82.4863 37.3737 82.7137ZM36.7425 82.7137C36.7425 82.5157 36.6649 82.3259 36.5262 82.1853C36.3875 82.0441 36.1986 81.9635 36.0008 81.961C35.8012 81.9618 35.6099 82.0413 35.4687 82.1823C35.3273 82.3229 35.247 82.5138 35.2452 82.7137C35.2478 82.912 35.3288 83.101 35.4705 83.2401C35.6119 83.3792 35.8025 83.4566 36.0008 83.4554C36.1974 83.4552 36.386 83.377 36.5251 83.2379C36.6641 83.0989 36.7423 82.9103 36.7425 82.7137ZM35.673 80.9943C35.673 81.0805 35.7072 81.163 35.7679 81.2238C35.798 81.254 35.8337 81.278 35.8731 81.2944C35.9125 81.3107 35.9547 81.3191 35.9974 81.319C36.0833 81.319 36.1658 81.2849 36.2269 81.2238C36.288 81.1626 36.3218 81.0805 36.3218 80.9943C36.321 80.9106 36.2873 80.8304 36.228 80.7711C36.1688 80.7116 36.0885 80.6777 36.0045 80.677C35.9608 80.6756 35.9171 80.683 35.8763 80.6988C35.8355 80.7149 35.7983 80.7388 35.7668 80.7693C35.7356 80.8 35.7105 80.8368 35.694 80.8773C35.6775 80.9178 35.6689 80.9613 35.6693 81.0052L35.673 80.9943ZM50.3414 81.4574C50.3484 81.103 50.4894 80.7644 50.7364 80.5098C50.9824 80.2551 51.3164 80.1036 51.6704 80.0856C52.0244 80.0678 52.3724 80.1847 52.6434 80.4127C52.9144 80.6408 53.0894 80.9631 53.1334 81.3149V81.643C53.1374 82.0456 53.0684 82.4456 52.9294 82.8235C52.7914 83.2229 52.5304 83.5686 52.1844 83.8113C51.9284 83.981 51.6294 84.075 51.3214 84.0824C51.2794 84.0843 51.2374 84.0779 51.1974 84.0636C51.1584 84.0494 51.1214 84.0273 51.0904 83.9988C51.0594 83.9703 51.0344 83.9358 51.0164 83.8975C50.9984 83.8593 50.9884 83.8179 50.9864 83.7756C50.9854 83.6913 51.0174 83.6095 51.0754 83.5477C51.1324 83.4857 51.2124 83.4486 51.2964 83.4442C51.4884 83.4392 51.6764 83.3824 51.8384 83.2799C51.9884 83.1768 52.1114 83.0384 52.1954 82.8771C52.2244 82.8294 52.2494 82.7792 52.2704 82.7271C52.0964 82.8036 51.9074 82.8426 51.7174 82.8411C51.3524 82.8366 51.0044 82.6893 50.7474 82.4305C50.4894 82.1717 50.3434 81.8224 50.3414 81.4574ZM50.9834 81.4574C50.9764 81.5613 50.9904 81.6655 51.0254 81.7638C51.0604 81.862 51.1144 81.9516 51.1854 82.0278C51.2564 82.1041 51.3424 82.165 51.4384 82.2066C51.5334 82.2482 51.6364 82.2697 51.7404 82.2697C51.8444 82.2697 51.9474 82.2482 52.0434 82.2066C52.1384 82.165 52.2244 82.1041 52.2954 82.0278C52.3674 81.9516 52.4214 81.862 52.4564 81.7638C52.4914 81.6655 52.5054 81.5613 52.4984 81.4574C52.4854 81.2654 52.3994 81.0854 52.2594 80.9542C52.1184 80.8229 51.9334 80.7498 51.7404 80.7498C51.5484 80.7498 51.3634 80.8229 51.2224 80.9542C51.0814 81.0854 50.9964 81.2654 50.9834 81.4574Z" fill="white"/>
<path d="M66.2656 82.1886C66.2656 82.0941 66.3026 82.0034 66.3696 81.9363C66.4026 81.9032 66.4426 81.8769 66.4856 81.859C66.5286 81.8411 66.5756 81.8319 66.6226 81.832H68.4046C68.4806 81.8525 68.5476 81.8974 68.5946 81.9596C68.6426 82.0218 68.6676 82.098 68.6676 82.1763C68.6676 82.2545 68.6426 82.3306 68.5946 82.3927C68.5476 82.4549 68.4806 82.4996 68.4046 82.5202H66.6226C66.5316 82.5205 66.4446 82.4864 66.3786 82.4249C66.3126 82.3634 66.2716 82.2786 66.2656 82.1886Z" fill="#454056"/>
<path d="M21.9599 98.8198C21.9599 98.8618 21.9513 98.9038 21.9348 98.9428C21.9186 98.9819 21.8946 99.0172 21.8643 99.0467C21.8341 99.0763 21.7983 99.0995 21.7589 99.1149C21.7196 99.1306 21.6775 99.1382 21.6352 99.137H21.5782V99.5758C21.5781 99.66 21.5447 99.7408 21.4852 99.8004C21.4259 99.8597 21.3449 99.893 21.2609 99.893C21.1769 99.893 21.0959 99.8597 21.0367 99.8004C20.9772 99.7408 20.9438 99.66 20.9437 99.5758V99.1228H19.1287C19.0565 99.1259 18.986 99.1003 18.9326 99.0516C18.8991 99.0267 18.871 98.9953 18.8501 98.9593C18.829 98.9233 18.8156 98.8833 18.8107 98.8419C18.8059 98.8005 18.8095 98.7586 18.8212 98.7186C18.8329 98.6786 18.8526 98.6413 18.8789 98.6091L21.0183 95.9556V95.9308C21.0288 95.9327 21.0393 95.9319 21.0491 95.9289C21.0588 95.9259 21.0682 95.9203 21.0757 95.9128L21.0971 95.8952C21.1184 95.8772 21.0971 95.8952 21.1327 95.8952C21.1683 95.8952 21.1327 95.8772 21.1541 95.8772H21.1897C21.1976 95.8802 21.2066 95.8802 21.2144 95.8772H21.3108C21.32 95.8806 21.3301 95.8806 21.3393 95.8772H21.3963L21.4286 95.8985L21.4571 95.9166H21.4747L21.4998 95.9413V95.9627C21.5099 95.9706 21.5182 95.9803 21.5249 95.9912C21.5219 95.9994 21.5219 96.0081 21.5249 96.0163C21.5272 96.0268 21.5272 96.0377 21.5249 96.0486V96.0733C21.5287 96.0838 21.5287 96.0951 21.5249 96.1056V98.4846H21.5819C21.6296 98.4756 21.6791 98.4778 21.7259 98.4909C21.7728 98.5041 21.8159 98.5277 21.8523 98.5599C21.8888 98.5922 21.9174 98.6323 21.9359 98.6773C21.9547 98.7223 21.9626 98.771 21.9599 98.8198ZM20.9437 97.0757L19.7954 98.5022H20.9437V97.0757ZM36.8737 97.4436C37.0075 97.5767 37.1136 97.7352 37.1857 97.9097C37.258 98.0842 37.2949 98.2713 37.2944 98.4602C37.293 98.841 37.1419 99.206 36.8737 99.4764C36.7414 99.6096 36.5841 99.7153 36.4109 99.7877C36.2377 99.8597 36.0521 99.8972 35.8646 99.8976C35.6778 99.8979 35.4929 99.8608 35.3208 99.7884C35.1488 99.716 34.993 99.61 34.8626 99.4764C34.8311 99.4464 34.8063 99.4108 34.7894 99.3707C34.7722 99.3309 34.7634 99.288 34.7636 99.2447C34.7636 99.2016 34.7722 99.1584 34.7894 99.1187C34.8065 99.0789 34.8313 99.0429 34.8626 99.0129C34.9237 98.9526 35.0066 98.9188 35.0924 98.9188C35.1785 98.9186 35.2611 98.9525 35.3223 99.0129C35.3943 99.0864 35.4798 99.1446 35.5743 99.1847C35.6689 99.2247 35.7705 99.2452 35.8732 99.245C35.9758 99.245 36.0774 99.2245 36.1721 99.1847C36.2666 99.1449 36.3524 99.0864 36.4244 99.0129C36.5703 98.8686 36.6536 98.6724 36.6562 98.4673C36.6562 98.2607 36.5741 98.0627 36.4286 97.916C36.3199 97.8062 36.1811 97.731 36.0296 97.7002C35.8782 97.6694 35.721 97.6842 35.5781 97.7428C35.4828 97.7814 35.3958 97.8384 35.3223 97.9108C35.2923 97.9412 35.2563 97.9652 35.2169 97.9817C35.1774 97.9979 35.1352 98.0063 35.0924 98.0064C35.0497 98.0063 35.0074 97.9979 34.9679 97.9817C34.9286 97.9652 34.8926 97.9412 34.8626 97.9108C34.8374 97.8894 34.8232 97.8609 34.7984 97.8358C34.7737 97.8107 34.7984 97.8182 34.7984 97.8182C34.8014 97.8088 34.8014 97.7987 34.7984 97.7897V97.7503C34.7913 97.7174 34.7913 97.6834 34.7984 97.6506L34.9732 96.1562C34.9796 96.11 34.9957 96.0662 35.0201 96.0268C35.0446 95.9874 35.0772 95.9537 35.1157 95.9278H35.1547C35.2015 95.905 35.2527 95.8928 35.3047 95.8922H37.0091C37.0548 95.8873 37.1011 95.8922 37.1448 95.9064C37.1883 95.9207 37.2284 95.9439 37.2626 95.9747C37.2967 96.0054 37.3241 96.0429 37.3428 96.0849C37.3616 96.1269 37.3714 96.1724 37.3714 96.2184C37.3714 96.2644 37.3616 96.3099 37.3428 96.3519C37.3241 96.3939 37.2971 96.4314 37.2626 96.4622C37.2281 96.4929 37.1883 96.5162 37.1448 96.5304C37.1011 96.5447 37.0548 96.5496 37.0091 96.5447H35.5829L35.5113 97.1154C35.6384 97.0832 35.7689 97.0663 35.9002 97.0656C36.2606 97.0641 36.6086 97.1991 36.8737 97.4436ZM53.1412 98.4935C53.1352 98.8483 52.9942 99.1873 52.7482 99.4423C52.5022 99.6973 52.1672 99.8499 51.8132 99.8683C51.4592 99.8867 51.1112 99.7703 50.8392 99.5424C50.5672 99.3144 50.3922 98.9919 50.3492 98.6398V98.3117C50.3452 97.9094 50.4132 97.5095 50.5492 97.1308C50.6882 96.7322 50.9492 96.3868 51.2942 96.143C51.5522 95.9735 51.8522 95.8795 52.1602 95.8719C52.2022 95.87 52.2442 95.8765 52.2842 95.8911C52.3232 95.9053 52.3592 95.9273 52.3902 95.9559C52.4212 95.9844 52.4462 96.0189 52.4642 96.0572C52.4812 96.0954 52.4912 96.1367 52.4922 96.1787C52.4922 96.2634 52.4602 96.3451 52.4032 96.4074C52.3452 96.4697 52.2662 96.5076 52.1822 96.5139C51.9902 96.5161 51.8022 96.5717 51.6402 96.6744C51.4922 96.7805 51.3712 96.9183 51.2832 97.0775C51.2552 97.1237 51.2332 97.1773 51.2092 97.2272C51.3832 97.1507 51.5712 97.112 51.7612 97.1132C52.1252 97.1188 52.4732 97.2658 52.7312 97.5234C52.9882 97.7812 53.1352 98.1292 53.1412 98.4935ZM52.4992 98.4935C52.5062 98.3897 52.4922 98.2854 52.4572 98.1872C52.4232 98.0889 52.3682 97.9987 52.2972 97.9224C52.2262 97.8461 52.1402 97.7853 52.0452 97.7438C51.9492 97.7022 51.8462 97.6809 51.7422 97.681C51.6372 97.6812 51.5342 97.7029 51.4392 97.7447C51.3432 97.7861 51.2572 97.8467 51.1862 97.9228C51.1152 97.9989 51.0602 98.0889 51.0262 98.1872C50.9912 98.2853 50.9772 98.3896 50.9842 98.4935C50.9972 98.6855 51.0832 98.8652 51.2232 98.9968C51.3642 99.1283 51.5492 99.2013 51.7412 99.2012C51.9342 99.2012 52.1192 99.1281 52.2602 98.9968C52.4002 98.8654 52.4862 98.6856 52.4992 98.4935Z" fill="white"/>
<path d="M66.3898 98.1598C66.3098 98.1597 66.2338 98.1281 66.1778 98.0719C66.1218 98.0158 66.0898 97.9396 66.0898 97.8602C66.0898 97.7807 66.1218 97.7046 66.1778 97.6484C66.2338 97.5922 66.3098 97.5606 66.3898 97.5605H68.7218C68.8008 97.5606 68.8768 97.5922 68.9328 97.6484C68.9888 97.7046 69.0208 97.7807 69.0208 97.8602C69.0208 97.9396 68.9888 98.0158 68.9328 98.0719C68.8768 98.1281 68.8008 98.1597 68.7218 98.1598H66.3898ZM67.9508 96.644V96.6726C67.9418 96.7716 67.8958 96.8634 67.8228 96.9302C67.7488 96.9969 67.6528 97.0344 67.5538 97.0344C67.4538 97.0345 67.3588 96.9973 67.2848 96.9302C67.2118 96.8634 67.1658 96.7716 67.1558 96.6726V96.644C67.1658 96.545 67.2118 96.4531 67.2848 96.386C67.3588 96.3193 67.4538 96.2822 67.5538 96.2822C67.6528 96.2822 67.7488 96.3193 67.8228 96.386C67.8958 96.4528 67.9418 96.545 67.9508 96.644ZM67.9508 99.0478V99.08C67.9418 99.179 67.8958 99.2709 67.8228 99.3377C67.7488 99.4044 67.6528 99.4419 67.5538 99.4419C67.4538 99.442 67.3588 99.4048 67.2848 99.3377C67.2118 99.2709 67.1658 99.179 67.1558 99.08V99.0478C67.1658 98.9488 67.2118 98.8569 67.2848 98.7902C67.3588 98.7232 67.4538 98.6862 67.5538 98.6863C67.6528 98.6863 67.7488 98.7231 67.8228 98.7902C67.8958 98.8573 67.9418 98.9488 67.9508 99.0478Z" fill="#454056"/>
<path d="M21.0229 112.061V115.467C21.0224 115.51 21.0136 115.551 20.997 115.59C20.9805 115.629 20.9565 115.664 20.9265 115.693C20.8962 115.723 20.8605 115.746 20.8215 115.762C20.7825 115.777 20.7405 115.785 20.6985 115.785C20.6569 115.785 20.6156 115.777 20.577 115.762C20.5384 115.746 20.5035 115.722 20.4742 115.693C20.4449 115.663 20.4218 115.628 20.4063 115.589C20.3909 115.551 20.3835 115.509 20.3846 115.467V112.614L20.1529 112.746C20.1052 112.777 20.0494 112.793 19.9924 112.792C19.9233 112.791 19.8563 112.768 19.8015 112.726C19.7465 112.684 19.7066 112.625 19.6878 112.559C19.6691 112.492 19.6722 112.421 19.6968 112.357C19.7216 112.292 19.7662 112.237 19.8247 112.2L20.538 111.776H20.5594C20.5594 111.776 20.577 111.776 20.5879 111.758H20.6448C20.6589 111.754 20.6736 111.754 20.6876 111.758H20.7483C20.7562 111.761 20.7652 111.761 20.7731 111.758H20.8087C20.8158 111.755 20.8234 111.755 20.8301 111.758C20.8301 111.758 20.8552 111.776 20.8661 111.776L20.8875 111.794L20.9122 111.811C20.9216 111.816 20.9295 111.824 20.9336 111.833V111.854L20.9587 111.879V111.954C20.958 111.964 20.958 111.973 20.9587 111.983C20.9535 111.997 20.9535 112.012 20.9587 112.026L21.0229 112.061ZM37.3916 115.466C37.392 115.508 37.3841 115.55 37.3683 115.588C37.3526 115.627 37.3294 115.662 37.2997 115.692C37.2701 115.722 37.2349 115.745 37.1962 115.761C37.1576 115.776 37.116 115.784 37.0743 115.784H35.0205C34.9762 115.784 34.9324 115.775 34.8919 115.757C34.8513 115.739 34.8149 115.713 34.785 115.68C34.7276 115.618 34.6972 115.535 34.7006 115.45C34.704 115.365 34.7407 115.285 34.803 115.227L36.5111 113.683C36.6229 113.582 36.7013 113.449 36.7361 113.302C36.771 113.156 36.7605 113.002 36.7061 112.861C36.6516 112.72 36.5556 112.599 36.4308 112.514C36.3063 112.429 36.159 112.384 36.0082 112.385C35.8234 112.386 35.645 112.453 35.5054 112.574L35.3272 112.738C35.2633 112.786 35.1838 112.808 35.1043 112.8C35.0249 112.792 34.9513 112.754 34.8982 112.695C34.845 112.635 34.8154 112.558 34.8157 112.479C34.816 112.399 34.8458 112.322 34.8994 112.263L35.0775 112.103C35.3321 111.872 35.6644 111.744 36.0082 111.746C36.2017 111.747 36.393 111.787 36.5696 111.866C36.7462 111.945 36.9052 112.059 37.035 112.203C37.2673 112.457 37.3947 112.79 37.3916 113.134C37.3911 113.327 37.3504 113.519 37.272 113.695C37.1933 113.872 37.0786 114.031 36.9352 114.161L35.8477 115.145H37.0743C37.1587 115.147 37.2392 115.181 37.2985 115.241C37.3578 115.301 37.3912 115.382 37.3916 115.466ZM52.6126 113.332C52.7466 113.464 52.8536 113.621 52.9256 113.794C52.9976 113.968 53.0346 114.154 53.0336 114.342C53.0366 114.626 52.9546 114.905 52.7976 115.143C52.6416 115.38 52.4176 115.565 52.1546 115.675C51.8926 115.784 51.6036 115.812 51.3246 115.756C51.0456 115.699 50.7906 115.561 50.5906 115.358C50.5306 115.297 50.4966 115.215 50.4966 115.128C50.4966 115.042 50.5306 114.96 50.5906 114.898C50.6516 114.837 50.7346 114.803 50.8206 114.803C50.9076 114.803 50.9896 114.837 51.0506 114.898C51.1226 114.97 51.2086 115.027 51.3026 115.066C51.3976 115.105 51.4986 115.124 51.5996 115.123C51.8066 115.123 52.0046 115.042 52.1526 114.898C52.2266 114.826 52.2846 114.739 52.3246 114.643C52.3646 114.548 52.3846 114.445 52.3846 114.342C52.3836 114.238 52.3646 114.139 52.3256 114.045C52.2856 113.951 52.2266 113.867 52.1526 113.796C52.0816 113.723 51.9956 113.665 51.9016 113.625C51.8076 113.586 51.7056 113.565 51.6036 113.564C51.5596 113.567 51.5146 113.559 51.4736 113.541C51.4326 113.523 51.3966 113.496 51.3686 113.461C51.3376 113.431 51.3136 113.395 51.2976 113.355C51.2816 113.316 51.2726 113.274 51.2726 113.231C51.2726 113.188 51.2816 113.146 51.2976 113.106C51.3136 113.067 51.3376 113.031 51.3686 113.001L51.9566 112.402H51.0226C50.9796 112.401 50.9366 112.392 50.8976 112.375C50.8576 112.358 50.8216 112.334 50.7916 112.303C50.7616 112.272 50.7376 112.236 50.7216 112.196C50.7056 112.156 50.6976 112.113 50.6976 112.07C50.6976 112.027 50.7066 111.985 50.7226 111.946C50.7386 111.907 50.7626 111.871 50.7926 111.842C50.8236 111.812 50.8586 111.788 50.8986 111.772C50.9376 111.756 50.9806 111.749 51.0226 111.749H52.7236C52.7796 111.749 52.8346 111.763 52.8846 111.79C52.9336 111.817 52.9746 111.857 53.0036 111.906C53.0326 111.954 53.0486 112.009 53.0506 112.065C53.0516 112.121 53.0386 112.177 53.0116 112.227C52.9946 112.256 52.9756 112.283 52.9546 112.309L52.2416 113.058C52.3816 113.126 52.5066 113.219 52.6126 113.332Z" fill="white"/>
<path d="M68.4995 113.408L67.7865 114.356L68.4715 115.309C68.5175 115.371 68.5375 115.45 68.5265 115.527C68.5155 115.604 68.4755 115.674 68.4145 115.722C68.3605 115.762 68.2955 115.784 68.2285 115.787C68.1305 115.778 68.0405 115.732 67.9755 115.658L67.4305 114.87L66.8525 115.658C66.8245 115.695 66.7885 115.726 66.7465 115.749C66.7055 115.771 66.6605 115.784 66.6135 115.787C66.5475 115.785 66.4845 115.762 66.4315 115.722C66.3995 115.7 66.3725 115.671 66.3515 115.638C66.3305 115.605 66.3165 115.568 66.3105 115.529C66.3045 115.491 66.3065 115.451 66.3165 115.413C66.3265 115.375 66.3435 115.34 66.3675 115.309L67.0595 114.356L66.3605 113.408C66.3365 113.377 66.3195 113.342 66.3095 113.305C66.2995 113.267 66.2985 113.228 66.3045 113.19C66.3105 113.153 66.3245 113.116 66.3445 113.083C66.3655 113.05 66.3925 113.023 66.4245 113.001C66.4565 112.977 66.4925 112.96 66.5305 112.95C66.5685 112.94 66.6085 112.938 66.6475 112.944C66.6865 112.949 66.7245 112.963 66.7585 112.983C66.7915 113.003 66.8215 113.03 66.8455 113.062L67.4225 113.835L67.9975 113.062C68.0485 112.998 68.1225 112.956 68.2045 112.945C68.2855 112.934 68.3685 112.954 68.4355 113.001C68.4975 113.047 68.5395 113.115 68.5515 113.191C68.5635 113.267 68.5445 113.345 68.4995 113.408Z" fill="#454056"/>
<path d="M20.6506 130.864C20.765 130.865 20.8741 130.91 20.9547 130.991C21.0355 131.072 21.0813 131.181 21.0822 131.295C21.0814 131.409 21.0356 131.518 20.9547 131.598C20.8739 131.678 20.7645 131.723 20.6506 131.723C20.5943 131.724 20.5385 131.713 20.4863 131.692C20.4342 131.67 20.3869 131.639 20.3472 131.599C20.3074 131.559 20.2759 131.512 20.2546 131.46C20.2332 131.407 20.2223 131.352 20.2227 131.295C20.2227 131.181 20.2677 131.072 20.3478 130.991C20.428 130.91 20.5368 130.865 20.6506 130.864ZM34.4394 129.66C34.4322 129.171 34.5687 128.692 34.8316 128.28C34.9358 128.087 35.0903 127.926 35.2786 127.813C35.4668 127.701 35.6821 127.642 35.9015 127.642C36.1208 127.642 36.3357 127.701 36.524 127.813C36.7122 127.926 36.8666 128.087 36.971 128.28C37.2229 128.695 37.3561 129.172 37.3561 129.658C37.3561 130.145 37.223 130.621 36.971 131.037C36.8679 131.231 36.7137 131.393 36.5251 131.506C36.3367 131.619 36.1212 131.679 35.9015 131.679C35.6818 131.679 35.4662 131.619 35.2778 131.506C35.0894 131.393 34.9352 131.231 34.8316 131.037C34.5695 130.626 34.433 130.148 34.4394 129.66ZM36.7178 129.66C36.7242 129.298 36.6279 128.942 36.44 128.633C36.3878 128.533 36.3117 128.448 36.2183 128.386C36.1247 128.323 36.0169 128.286 35.9048 128.276C35.7916 128.287 35.6827 128.326 35.5872 128.388C35.4916 128.45 35.4121 128.534 35.3559 128.633C35.1736 128.943 35.0775 129.297 35.0775 129.656C35.0775 130.016 35.1736 130.37 35.3559 130.68C35.4121 130.779 35.4916 130.863 35.5872 130.925C35.6828 130.988 35.7916 131.025 35.9048 131.037C36.0165 131.026 36.1238 130.988 36.2172 130.926C36.3102 130.863 36.3867 130.779 36.44 130.68C36.6268 130.373 36.7231 130.019 36.7178 129.66Z" fill="white"/>
<path d="M50.587 129.232C50.593 129.142 50.633 129.056 50.699 128.994C50.765 128.932 50.853 128.897 50.944 128.897H52.727C52.771 128.897 52.814 128.906 52.855 128.923C52.895 128.94 52.932 128.964 52.963 128.996C52.993 129.027 53.018 129.064 53.034 129.104C53.051 129.145 53.059 129.189 53.059 129.232C53.059 129.276 53.051 129.32 53.035 129.36C53.019 129.401 52.994 129.438 52.963 129.469C52.933 129.5 52.895 129.525 52.855 129.541C52.814 129.557 52.771 129.565 52.727 129.564H50.944C50.899 129.567 50.853 129.561 50.81 129.545C50.767 129.53 50.728 129.506 50.694 129.475C50.661 129.444 50.634 129.406 50.616 129.365C50.597 129.323 50.588 129.278 50.587 129.232ZM50.587 130.302C50.587 130.208 50.625 130.117 50.692 130.05C50.759 129.984 50.849 129.946 50.944 129.946H52.727C52.802 129.966 52.869 130.011 52.916 130.073C52.964 130.135 52.99 130.212 52.99 130.29C52.99 130.368 52.964 130.444 52.916 130.506C52.869 130.569 52.802 130.614 52.727 130.634H50.944C50.853 130.635 50.765 130.6 50.699 130.538C50.633 130.475 50.593 130.39 50.587 130.299V130.302ZM67.226 129.96H66.406C66.322 129.96 66.241 129.926 66.182 129.867C66.123 129.807 66.089 129.727 66.089 129.643C66.091 129.559 66.125 129.48 66.184 129.42C66.243 129.361 66.322 129.327 66.406 129.326H67.226V128.526C67.225 128.483 67.233 128.44 67.249 128.399C67.265 128.359 67.289 128.322 67.32 128.291C67.35 128.26 67.387 128.236 67.427 128.219C67.467 128.202 67.511 128.194 67.554 128.194C67.642 128.196 67.725 128.231 67.786 128.293C67.848 128.355 67.882 128.439 67.882 128.526V129.326H68.702C68.786 129.327 68.866 129.361 68.925 129.42C68.984 129.48 69.018 129.559 69.02 129.643C69.019 129.727 68.986 129.807 68.926 129.867C68.867 129.926 68.786 129.96 68.702 129.96H67.882V130.763C67.882 130.85 67.848 130.933 67.786 130.995C67.725 131.056 67.641 131.091 67.554 131.091C67.511 131.091 67.468 131.083 67.428 131.067C67.388 131.051 67.352 131.026 67.321 130.996C67.291 130.965 67.266 130.929 67.25 130.889C67.234 130.849 67.226 130.806 67.226 130.763V129.96ZM38.096 64.2377C38.096 64.303 38.0701 64.3656 38.024 64.4117C37.9779 64.4578 37.9153 64.4837 37.85 64.4837H37.1368C36.8338 65.3218 36.0673 67.5156 35.8996 68.1358C35.8734 68.2101 35.8306 68.2772 35.7748 68.3323C35.7279 68.3721 35.669 68.395 35.6071 68.3965C35.5636 68.3974 35.5204 68.3889 35.4804 68.3716C35.4404 68.3543 35.4046 68.3287 35.3754 68.2963C35.3754 68.2963 34.6051 67.5441 34.3663 67.2763C34.0096 66.8983 34.1701 66.7202 34.22 66.688C34.262 66.661 34.3096 66.6448 34.3591 66.6415C34.4375 66.6493 34.5129 66.6778 34.5766 66.7236L34.8264 66.9838C34.8926 67.0566 34.9616 67.1269 35.033 67.1946L35.2291 67.3941L35.4504 67.6153C35.6323 67.0303 36.4453 64.7335 36.6628 64.1593C36.6811 64.129 36.704 64.1012 36.7303 64.0772C36.7537 64.051 36.7823 64.0298 36.8143 64.0149C36.8461 64 36.8807 63.992 36.9159 63.9917H37.8358C37.8691 63.9895 37.9029 63.9947 37.9344 64.006C37.9661 64.0172 37.9951 64.0349 38.0195 64.058C38.044 64.0811 38.0632 64.1091 38.0761 64.1402C38.0893 64.171 38.0961 64.2042 38.096 64.2377Z" fill="#454056"/>
<path d="M71.4368 36.6118H16.4883C14.8316 36.6118 13.4883 37.955 13.4883 39.6118V48.1993C13.4883 48.9949 13.8044 49.758 14.367 50.3206C14.9296 50.8832 15.6927 51.1993 16.4883 51.1993H71.4368C72.2328 51.1993 72.9958 50.8832 73.5588 50.3206C74.1208 49.758 74.4368 48.9949 74.4368 48.1993V39.6118C74.4368 37.955 73.0938 36.6118 71.4368 36.6118Z" fill="black"/>
<path d="M46.9199 40.9836V46.6652C46.9179 46.8064 46.8599 46.9412 46.7589 47.0402C46.6579 47.1388 46.5229 47.1939 46.3809 47.1928C46.3119 47.1939 46.2419 47.1808 46.1779 47.1546C46.1139 47.1287 46.0549 47.0897 46.0059 47.0406C45.9569 46.9914 45.9179 46.9326 45.8919 46.8681C45.8659 46.8036 45.8519 46.7346 45.8539 46.6652V41.9285L45.4689 42.1532C45.3869 42.2039 45.2929 42.2299 45.1969 42.2282C45.0819 42.2257 44.9709 42.1862 44.8799 42.1154C44.7879 42.0446 44.7229 41.9463 44.6919 41.8352C44.6609 41.7242 44.6659 41.6061 44.7069 41.4984C44.7479 41.3908 44.8219 41.299 44.9189 41.2367L46.1029 40.5234C46.1029 40.5234 46.1319 40.5234 46.1419 40.5054C46.1529 40.4874 46.1709 40.4841 46.1879 40.4769H46.2459C46.2579 40.4721 46.2729 40.4721 46.2849 40.4769C46.3069 40.4717 46.3299 40.4717 46.3529 40.4769H46.4949C46.5169 40.4773 46.5379 40.4848 46.5559 40.4983H46.5919C46.5989 40.4983 46.6309 40.5268 46.6519 40.5268C46.6609 40.5399 46.6729 40.5497 46.6879 40.5553C46.6879 40.5553 46.7199 40.5767 46.7269 40.5876C46.7339 40.5984 46.7559 40.6161 46.7659 40.6232C46.7779 40.6348 46.7869 40.6483 46.7949 40.6626L46.8339 40.7016V40.7514C46.8339 40.7623 46.8559 40.7799 46.8559 40.7979V40.8444C46.8549 40.8609 46.8549 40.8774 46.8559 40.8943C46.8539 40.9063 46.8539 40.9183 46.8569 40.9299C46.8599 40.9416 46.8659 40.9524 46.8729 40.9622L46.9199 40.9836ZM52.4919 46.6685C52.4929 46.7382 52.4799 46.8073 52.4539 46.8718C52.4279 46.9363 52.3889 46.9948 52.3399 47.0439C52.2909 47.0932 52.2319 47.132 52.1679 47.1583C52.1029 47.1845 52.0339 47.1973 51.9649 47.1966H48.5309C48.4559 47.198 48.3819 47.183 48.3139 47.1527C48.2449 47.1227 48.1839 47.0781 48.1349 47.0218C48.0399 46.9184 47.9899 46.7816 47.9949 46.6413C47.9999 46.501 48.0609 46.3684 48.1639 46.2725L51.0159 43.6903C51.1469 43.5753 51.2509 43.4331 51.3219 43.2737C51.3919 43.114 51.4259 42.941 51.4229 42.7667C51.4229 42.4577 51.3099 42.1595 51.1049 41.9285C50.9879 41.7995 50.8449 41.6968 50.6849 41.6274C50.5249 41.558 50.3519 41.5232 50.1779 41.5254C49.8709 41.5266 49.5739 41.6395 49.3439 41.8431L49.0439 42.1142C48.9929 42.1614 48.9319 42.1982 48.8659 42.2218C48.7999 42.2457 48.7299 42.256 48.6599 42.2522C48.5899 42.2488 48.5209 42.2312 48.4579 42.2008C48.3949 42.1701 48.3379 42.1273 48.2919 42.0748C48.1979 41.9694 48.1489 41.8314 48.1569 41.6904C48.1639 41.5494 48.2269 41.4171 48.3309 41.3222L48.6309 41.0548C49.0519 40.6659 49.6049 40.4518 50.1779 40.4556C50.5019 40.4559 50.8209 40.5238 51.1169 40.6554C51.4119 40.7869 51.6769 40.9787 51.8929 41.2187C52.2799 41.6409 52.4929 42.1941 52.4889 42.7667C52.4889 43.0897 52.4209 43.4092 52.2899 43.7045C52.1589 43.9999 51.9679 44.2648 51.7289 44.4823L49.9109 46.1267H51.9609C52.0319 46.1266 52.1019 46.1406 52.1669 46.1679C52.2319 46.1953 52.2909 46.2354 52.3409 46.2861C52.3899 46.3366 52.4289 46.3963 52.4549 46.4619C52.4809 46.5276 52.4939 46.598 52.4919 46.6685ZM57.4719 43.1248C57.6979 43.343 57.8779 43.6045 57.9999 43.8936C58.1229 44.183 58.1849 44.494 58.1849 44.8082C58.1859 45.1619 58.1079 45.5114 57.9579 45.8314C57.8069 46.1514 57.5869 46.434 57.3139 46.6588C57.0409 46.8835 56.7219 47.0448 56.3779 47.131C56.0349 47.2172 55.6779 47.2261 55.3309 47.1572C54.8669 47.0649 54.4399 46.8369 54.1059 46.5024C54.0549 46.4518 54.0149 46.3918 53.9869 46.3258C53.9599 46.2598 53.9449 46.1889 53.9449 46.1169C53.9449 46.0453 53.9599 45.9744 53.9869 45.9084C54.0149 45.8423 54.0549 45.7823 54.1059 45.7318C54.2089 45.6309 54.3469 45.5743 54.4909 45.5743C54.6349 45.5743 54.7739 45.6309 54.8759 45.7318C54.9959 45.8522 55.1379 45.9474 55.2949 46.0123C55.4519 46.0773 55.6199 46.1105 55.7889 46.1098C56.1349 46.1094 56.4659 45.9737 56.7119 45.7318C56.8349 45.6114 56.9329 45.4678 56.9989 45.3092C57.0649 45.1505 57.0989 44.9799 57.0979 44.8082C57.0989 44.6377 57.0659 44.4688 56.9999 44.3117C56.9339 44.1546 56.8359 44.0128 56.7119 43.8951C56.5939 43.7732 56.4519 43.6764 56.2949 43.6104C56.1379 43.5444 55.9699 43.5099 55.7999 43.5099C55.7249 43.5137 55.6499 43.4998 55.5809 43.4694C55.5129 43.439 55.4519 43.393 55.4039 43.3352C55.3539 43.2849 55.3139 43.2249 55.2859 43.1593C55.2589 43.0935 55.2449 43.0228 55.2449 42.9516C55.2449 42.8803 55.2589 42.8098 55.2859 42.7442C55.3129 42.6786 55.3539 42.6186 55.4039 42.5683L56.3839 41.5659H54.8259C54.6899 41.5551 54.5619 41.4928 54.4689 41.3919C54.3759 41.291 54.3249 41.159 54.3249 41.0222C54.3249 40.8852 54.3769 40.7533 54.4699 40.6526C54.5629 40.5519 54.6899 40.4896 54.8259 40.4781H57.6789C57.8059 40.4917 57.9239 40.5502 58.0129 40.643C58.1009 40.7357 58.1529 40.8569 58.1599 40.9847C58.1589 41.0754 58.1349 41.1647 58.0929 41.2449C58.0659 41.2938 58.0339 41.3394 57.9959 41.3807L56.7839 42.6324C57.0439 42.7491 57.2779 42.9165 57.4719 43.1248ZM64.8449 45.4085C64.8449 45.4787 64.8309 45.5484 64.8039 45.6129C64.7759 45.6777 64.7369 45.7365 64.6869 45.7858C64.6359 45.8349 64.5769 45.8736 64.5109 45.8994C64.4459 45.9252 64.3759 45.9378 64.3059 45.9366H64.2209V46.6712C64.2209 46.8129 64.1639 46.9491 64.0639 47.0496C63.9629 47.1501 63.8279 47.2063 63.6859 47.2063C63.5439 47.206 63.4079 47.1495 63.3079 47.0492C63.2079 46.9489 63.1509 46.813 63.1509 46.6712V45.9366H60.1199C59.9999 45.9407 59.8829 45.8998 59.7919 45.8222C59.7359 45.78 59.6899 45.7271 59.6559 45.6666C59.6209 45.6058 59.5989 45.539 59.5909 45.4697C59.5829 45.4003 59.5889 45.33 59.6089 45.2631C59.6289 45.1959 59.6619 45.134 59.7069 45.0804L63.2899 40.6329C63.3019 40.6218 63.3119 40.6084 63.3179 40.5936C63.3379 40.5894 63.3549 40.5797 63.3679 40.5651C63.3679 40.5651 63.3969 40.5651 63.4039 40.5366C63.4219 40.5249 63.4429 40.5186 63.4649 40.5186C63.4649 40.4972 63.4829 40.4901 63.4999 40.4901C63.5179 40.4901 63.5289 40.4901 63.5609 40.4687C63.5929 40.4473 63.5899 40.4687 63.5969 40.4687H63.7609C63.7769 40.4736 63.7939 40.4736 63.8109 40.4687C63.8109 40.4687 63.8499 40.4687 63.8679 40.4901H63.9069C63.9249 40.5114 63.9459 40.5186 63.9529 40.5294L64.0029 40.5579C64.0029 40.5579 64.0349 40.5579 64.0349 40.5756L64.0709 40.6149C64.0819 40.6273 64.0909 40.6404 64.0999 40.6543C64.1149 40.6675 64.1279 40.6831 64.1389 40.7004C64.1409 40.7158 64.1479 40.7301 64.1599 40.7398C64.1599 40.7612 64.1599 40.7683 64.1779 40.7968C64.1959 40.8253 64.1779 40.8253 64.1779 40.8362C64.1819 40.855 64.1819 40.8744 64.1779 40.8932V44.8663H64.2739C64.3479 44.8614 64.4219 44.8719 64.4919 44.897C64.5609 44.9222 64.6249 44.9614 64.6779 45.0122C64.7319 45.0628 64.7739 45.1247 64.8029 45.1929C64.8319 45.2611 64.8459 45.3346 64.8449 45.4085ZM63.1509 42.5015L61.2359 44.8772H63.1509V42.5015ZM69.6409 43.1248C69.8669 43.3449 70.0469 43.6086 70.1689 43.8996C70.2919 44.1906 70.3549 44.5033 70.3539 44.819C70.3519 45.1325 70.2879 45.4427 70.1649 45.7318C70.0429 46.0205 69.8649 46.2823 69.6409 46.5024C69.4219 46.7273 69.1599 46.9063 68.8719 47.0289C68.5819 47.1512 68.2719 47.2149 67.9579 47.2157H67.9369C67.6239 47.215 67.3149 47.1515 67.0279 47.0289C66.7409 46.9063 66.4809 46.7274 66.2639 46.5024C66.2109 46.4533 66.1689 46.3937 66.1399 46.3273C66.1109 46.2611 66.0959 46.1896 66.0959 46.1173C66.0959 46.0449 66.1109 45.9733 66.1399 45.9069C66.1689 45.8405 66.2109 45.7809 66.2639 45.7318C66.3659 45.6309 66.5039 45.5747 66.6469 45.5747C66.7909 45.5747 66.9289 45.6312 67.0309 45.7318C67.1509 45.8539 67.2939 45.9509 67.4519 46.0172C67.6099 46.0832 67.7799 46.1173 67.9509 46.1173C68.1219 46.1173 68.2909 46.0832 68.4499 46.0172C68.6079 45.9509 68.7509 45.8539 68.8709 45.7318C69.1129 45.4895 69.2519 45.1619 69.2559 44.819C69.2559 44.648 69.2229 44.4789 69.1579 44.3211C69.0929 44.163 68.9969 44.0194 68.8769 43.8984C68.7559 43.7777 68.6129 43.6817 68.4549 43.616C68.2979 43.5506 68.1289 43.5169 67.9579 43.517C67.6139 43.5087 67.2809 43.6369 67.0309 43.8737C66.9809 43.9248 66.9209 43.9653 66.8549 43.9929C66.7899 44.0205 66.7189 44.0345 66.6469 44.0342C66.5759 44.0343 66.5049 44.0201 66.4399 43.9926C66.3739 43.965 66.3139 43.9246 66.2639 43.8737C66.2249 43.8381 66.1959 43.7882 66.1569 43.7488C66.1179 43.7094 66.1569 43.7203 66.1569 43.7203C66.1629 43.7053 66.1629 43.6888 66.1569 43.6738V43.5849C66.1499 43.5317 66.1499 43.4777 66.1569 43.4244L66.4459 40.9277C66.4729 40.7724 66.5599 40.6341 66.6889 40.5426H66.7279C66.7379 40.5426 66.7459 40.5426 66.7559 40.5246C66.8329 40.4836 66.9189 40.4627 67.0059 40.4638H69.8579C69.9299 40.4638 70.0009 40.4779 70.0669 40.5054C70.1329 40.5329 70.1929 40.5732 70.2439 40.6239C70.3459 40.7263 70.4039 40.8651 70.4039 41.0098C70.4039 41.1546 70.3459 41.2933 70.2439 41.3957C70.1929 41.4464 70.1329 41.4866 70.0669 41.514C70.0009 41.5414 69.9299 41.5555 69.8579 41.5554H67.4299L67.3159 42.5075C67.5259 42.4498 67.7439 42.4198 67.9609 42.4187C68.2739 42.4182 68.5839 42.4806 68.8729 42.6021C69.1609 42.7232 69.4219 42.9009 69.6409 43.1248Z" fill="white"/>
<path d="M55.06 32.2205L54.918 32.2561C54.921 32.2396 54.93 32.2246 54.943 32.2134L55.06 32.2205Z" fill="#1F1B2D"/>
<path d="M59.1617 135.263H59.0977V135.216L59.1617 135.263Z" fill="#FDBC31"/>
</g>
</g>
<defs>
<clipPath id="clip0_121_2432">
<rect width="156" height="150" fill="white"/>
</clipPath>
</defs>
</svg>
