<svg width="191" height="151" viewBox="0 0 191 151" fill="none" xmlns="http://www.w3.org/2000/svg">
<g clip-path="url(#clip0_3_307)">
<mask id="mask0_3_307" style="mask-type:luminance" maskUnits="userSpaceOnUse" x="0" y="0" width="191" height="151">
<path d="M191 0H0V150.253H191V0Z" fill="white"/>
</mask>
<g mask="url(#mask0_3_307)">
<path d="M159.701 119.091C159.701 112.273 165.304 96.0968 172.215 96.0968C179.126 96.0968 184.729 112.273 184.729 119.091C184.729 122.364 183.411 125.503 181.064 127.818C178.717 130.133 175.534 131.433 172.215 131.433C168.896 131.433 165.713 130.133 163.367 127.818C161.021 125.503 159.701 122.364 159.701 119.091Z" fill="#F5F4F8"/>
<path d="M172.503 149.099C172.427 149.099 172.355 149.083 172.302 149.055C172.248 149.027 172.218 148.989 172.218 148.949V104.792C172.218 104.752 172.248 104.715 172.302 104.687C172.355 104.659 172.427 104.643 172.503 104.643C172.578 104.643 172.65 104.659 172.704 104.687C172.757 104.715 172.787 104.752 172.787 104.792V148.949C172.787 148.989 172.757 149.027 172.704 149.055C172.65 149.083 172.578 149.099 172.503 149.099Z" fill="#454056"/>
<path d="M172.367 124.023C172.336 124.023 172.307 124.014 172.281 123.998C172.256 123.982 172.236 123.959 172.224 123.933C172.212 123.906 172.209 123.876 172.214 123.848C172.219 123.82 172.234 123.793 172.255 123.771L178.77 117.229C178.798 117.201 178.837 117.184 178.879 117.183C178.92 117.182 178.959 117.197 178.989 117.224C179.019 117.251 179.037 117.288 179.037 117.328C179.038 117.348 179.034 117.368 179.027 117.386C179.019 117.404 179.008 117.421 178.994 117.434L172.479 123.977C172.465 123.991 172.448 124.002 172.428 124.011C172.408 124.019 172.388 124.023 172.367 124.023ZM172.622 113.191C172.581 113.191 172.542 113.176 172.511 113.148L166.581 107.773C166.549 107.744 166.53 107.704 166.528 107.66C166.527 107.639 166.531 107.618 166.538 107.598C166.545 107.578 166.556 107.56 166.571 107.544C166.6 107.513 166.641 107.493 166.684 107.491C166.728 107.49 166.77 107.505 166.802 107.534L172.732 112.909C172.756 112.931 172.774 112.96 172.781 112.992C172.788 113.024 172.786 113.057 172.774 113.087C172.762 113.118 172.741 113.144 172.714 113.163C172.687 113.181 172.654 113.191 172.622 113.191Z" fill="#454056"/>
<path d="M160.746 149.6L160.834 149.667H185.451C185.933 147.616 186.104 145.562 185.383 143.78C184.357 141.239 181.318 139.652 178.902 140.744C178.33 141.01 177.832 141.423 177.454 141.947C176.51 140.174 174.817 138.837 172.863 138.838C170.414 138.84 168.378 140.941 167.714 143.369C166.644 141.473 164.531 140.149 162.465 140.719C159.01 141.672 157.92 147.308 160.746 149.6Z" fill="#D5D2DC"/>
<path d="M81.8533 82.4882C94.0399 82.4882 103.92 72.5893 103.92 60.3781C103.92 48.1668 94.0399 38.2679 81.8533 38.2679C69.6666 38.2679 59.7872 48.1668 59.7872 60.3781C59.7872 72.5893 69.6666 82.4882 81.8533 82.4882Z" fill="#F5F4F8"/>
<path d="M140.508 49.323C138.523 49.261 136.756 47.4614 136.742 45.4877C136.729 43.514 138.468 41.6898 140.452 41.599C144.869 41.3978 148.485 36.6864 147.513 32.3978C146.541 28.1093 141.242 25.3954 137.165 27.0974C134.038 28.403 130.878 24.2893 131.67 21.0108C132.462 17.7324 135.462 15.5313 138.237 13.5924C141.012 11.6535 143.981 9.37768 144.651 6.0721C145.32 2.76653 141.892 -1.19269 138.871 0.339558" fill="#D5D2DC"/>
<path d="M151.119 149.668H64.3628C63.8246 149.667 63.3093 149.454 62.929 149.076C62.7408 148.889 62.5913 148.667 62.4892 148.423C62.3871 148.178 62.3343 147.916 62.3339 147.651V88.7547C62.3348 88.2208 62.5487 87.708 62.929 87.3294C63.3103 86.9512 63.8256 86.7389 64.3628 86.7386H151.119C151.657 86.7386 152.173 86.9517 152.553 87.3294C152.933 87.7072 153.147 88.2208 153.148 88.7547V147.651C153.148 147.916 153.095 148.178 152.993 148.423C152.891 148.667 152.741 148.889 152.553 149.076C152.172 149.454 151.656 149.667 151.119 149.668Z" fill="white"/>
<path d="M151.119 149.668H64.3628C63.8246 149.667 63.3093 149.454 62.929 149.076C62.7408 148.889 62.5913 148.667 62.4892 148.423C62.3871 148.178 62.3343 147.916 62.3339 147.651V88.7547C62.3348 88.2208 62.5487 87.708 62.929 87.3294C63.3103 86.9512 63.8256 86.7389 64.3628 86.7386H151.119C151.657 86.7386 152.173 86.9517 152.553 87.3294C152.933 87.7072 153.147 88.2208 153.148 88.7547V147.651C153.148 147.916 153.095 148.178 152.993 148.423C152.891 148.667 152.741 148.889 152.553 149.076C152.172 149.454 151.656 149.667 151.119 149.668ZM64.3628 87.1868C63.9442 87.1868 63.5436 87.3524 63.2473 87.6461C62.951 87.9398 62.7855 88.3396 62.7847 88.7547V147.651C62.7855 148.067 62.9519 148.465 63.2473 148.759C63.5441 149.053 63.9449 149.219 64.3628 149.219H151.119C151.537 149.219 151.938 149.053 152.235 148.759C152.53 148.466 152.696 148.067 152.697 147.651V88.7547C152.696 88.3385 152.53 87.9397 152.235 87.6461C151.938 87.3524 151.538 87.1868 151.119 87.1868H64.3628Z" fill="#454056"/>
<path d="M117.503 149.668H97.983V116.103C97.9839 115.308 98.2886 114.545 98.8302 113.982C99.3718 113.419 100.108 113.102 100.873 113.101H114.612C115.378 113.102 116.114 113.418 116.655 113.981C117.197 114.544 117.502 115.308 117.503 116.103V149.668ZM89.4899 123.31H72.5274C71.8508 123.309 71.2023 123.033 70.7235 122.542C70.2427 122.047 69.9741 121.384 69.9748 120.694V106.365C69.9756 105.672 70.2447 105.008 70.7235 104.517C71.2023 104.026 71.8508 103.751 72.5274 103.75H89.4899C90.1664 103.751 90.815 104.027 91.2938 104.517C91.7742 105.012 92.0425 105.675 92.0416 106.365V120.694C92.0408 121.388 91.7717 122.052 91.2938 122.542C90.8158 123.032 90.1664 123.309 89.4899 123.31Z" fill="#A237EE" fill-opacity="0.75"/>
<path d="M143.802 123.31H126.839C126.503 123.308 126.17 123.24 125.86 123.108C125.55 122.976 125.27 122.784 125.036 122.542C124.555 122.047 124.287 121.384 124.288 120.694V106.365C124.288 105.672 124.557 105.008 125.036 104.517C125.515 104.026 126.163 103.751 126.839 103.75H143.802C144.478 103.751 145.127 104.027 145.606 104.517C146.084 105.007 146.354 105.672 146.354 106.365V120.694C146.355 121.384 146.086 122.047 145.606 122.542C145.127 123.033 144.478 123.309 143.802 123.31Z" fill="#A237EE" fill-opacity="0.75"/>
<path d="M146.357 73.9841H134.475V54.7584C134.476 54.2194 134.697 53.7016 135.091 53.3204C135.491 52.9367 136.023 52.7228 136.577 52.7236H144.256C144.809 52.723 145.342 52.9369 145.741 53.3204C146.135 53.7016 146.356 54.2194 146.357 54.7584V73.9841ZM134.942 73.5316H145.89V54.7584C145.889 54.5493 145.846 54.3425 145.764 54.1504C145.681 53.9582 145.561 53.7845 145.41 53.6396C145.105 53.3433 144.689 53.1761 144.256 53.1752H136.577C136.146 53.1747 135.732 53.3411 135.422 53.6396C135.271 53.7845 135.151 53.9582 135.068 54.1504C134.986 54.3425 134.943 54.5493 134.942 54.7584V73.5316Z" fill="#454056"/>
<path d="M55.5428 87.877V78.7786C55.5427 78.0798 55.7273 77.3933 56.0779 76.7888C56.4285 76.1843 56.9327 75.6832 57.5394 75.3363L108.072 46.4436C108.699 46.0853 109.412 45.9045 110.135 45.9223C110.857 45.9399 111.561 46.1545 112.17 46.5429L157.252 75.3092C157.814 75.6674 158.277 76.1615 158.597 76.7455C158.917 77.3295 159.085 77.9849 159.085 78.6521V87.8778C159.085 88.9292 158.667 89.9375 157.924 90.6809C157.181 91.4245 156.173 91.8421 155.122 91.8421H59.5029C58.4519 91.8421 57.4435 91.4245 56.7007 90.6809C55.9572 89.9375 55.5395 88.9292 55.5394 87.8778L55.5428 87.877Z" fill="#F9F8FA"/>
<path fill-rule="evenodd" clip-rule="evenodd" d="M56.137 78.7794V87.8778C56.1369 88.7715 56.4917 89.6286 57.1234 90.2607C57.755 90.8931 58.6124 91.2479 59.5054 91.2479H155.124C156.017 91.2479 156.875 90.8931 157.506 90.2607C158.138 89.6287 158.493 88.7716 158.494 87.8778V78.6521C158.494 78.0856 158.351 77.5283 158.078 77.0316C157.806 76.535 157.413 76.1148 156.936 75.81L111.852 47.0437C111.335 46.7131 110.737 46.5305 110.123 46.5157C109.508 46.5004 108.902 46.6541 108.369 46.9588L57.8374 75.8525C57.3216 76.1473 56.8929 76.5732 56.5947 77.0871C56.2965 77.6009 56.1395 78.1845 56.1396 78.7786L56.137 78.7794ZM55.5428 78.7794V87.8778C55.5429 88.9292 55.9606 89.9375 56.7041 90.6809C57.4477 91.4245 58.4553 91.8421 59.5063 91.8421H155.125C156.176 91.8421 157.185 91.4245 157.927 90.6809C158.671 89.9375 159.088 88.9292 159.089 87.8778V78.6521C159.089 77.9857 158.92 77.3304 158.6 76.7455C158.28 76.1606 157.818 75.6674 157.256 75.3092L112.173 46.5429C111.564 46.1545 110.86 45.9399 110.138 45.9223C109.416 45.9045 108.702 46.0853 108.075 46.4436L57.5428 75.3363C56.9361 75.6832 56.4319 76.1843 56.0813 76.7888C55.7307 77.3933 55.5461 78.0798 55.5462 78.7786L55.5428 78.7794Z" fill="#454056"/>
<path opacity="0.2" d="M155.126 88.1996H59.5071C58.9855 88.199 58.4692 88.0949 57.9882 87.8932C57.5071 87.6915 57.071 87.3963 56.7049 87.0247C55.9613 86.2726 55.5436 85.2522 55.5436 84.1886V87.8303C55.5436 88.8948 55.9613 89.9143 56.7049 90.6673C57.071 91.0389 57.5071 91.3341 57.9882 91.5358C58.4692 91.7375 58.9855 91.8416 59.5071 91.8421H155.126C155.648 91.8416 156.164 91.7375 156.645 91.5358C157.126 91.3341 157.562 91.0389 157.928 90.6673C158.672 89.9143 159.089 88.8948 159.089 87.8303V84.1886C159.089 85.2522 158.672 86.2726 157.928 87.0247C157.562 87.3963 157.126 87.6915 156.645 87.8932C156.164 88.0949 155.648 88.199 155.126 88.1996Z" fill="#1F1B2D"/>
<path d="M191 149.438L0 149.8L0.000848889 150.25L191.001 149.888L191 149.438Z" fill="#454056"/>
<path d="M27.6755 87.1215L44.9614 105.242L64.5198 87.1215" stroke="#666276" stroke-miterlimit="10"/>
<path d="M16.7622 77.9416H7.54323C6.88619 77.9416 6.35394 78.4755 6.35394 79.1334V149.005C6.35394 149.663 6.88619 150.197 7.54323 150.197H16.7622C17.4192 150.197 17.9514 149.663 17.9514 149.005V79.1334C17.9514 78.4755 17.4192 77.9416 16.7622 77.9416Z" fill="#BBB7C5"/>
<path d="M16.4464 79.3168H7.85728C7.77903 79.3167 7.70153 79.332 7.62923 79.3619C7.55692 79.3918 7.49124 79.4358 7.43595 79.4911C7.38066 79.5465 7.33685 79.6122 7.30703 79.6846C7.27722 79.7569 7.26199 79.8344 7.26221 79.9127V147.076C7.26199 147.154 7.27722 147.232 7.30703 147.304C7.33685 147.376 7.38066 147.442 7.43595 147.498C7.49124 147.553 7.55692 147.597 7.62923 147.627C7.70153 147.657 7.77903 147.672 7.85728 147.672H16.4464C16.5246 147.672 16.6021 147.657 16.6744 147.627C16.7467 147.597 16.8124 147.553 16.8677 147.498C16.923 147.442 16.9668 147.376 16.9966 147.304C17.0264 147.232 17.0417 147.154 17.0414 147.076V79.9127C17.0417 79.8344 17.0264 79.7569 16.9966 79.6846C16.9668 79.6122 16.923 79.5465 16.8677 79.4911C16.8124 79.4358 16.7467 79.3918 16.6744 79.3619C16.6021 79.332 16.5246 79.3167 16.4464 79.3168Z" fill="#EFECF3"/>
<path d="M71.7999 80.9271H4.58487C3.92783 80.9271 3.39557 81.4611 3.39557 82.119V92.3515C3.39557 93.0094 3.92783 93.5433 4.58487 93.5433H71.7999C72.4569 93.5433 72.9892 93.0094 72.9892 92.3515V82.119C72.9892 81.4611 72.4569 80.9271 71.7999 80.9271Z" fill="#BBB7C5"/>
<path d="M4.30725 82.894V91.5645C4.30703 91.6428 4.32226 91.7203 4.35207 91.7927C4.38189 91.865 4.4257 91.9308 4.48099 91.9861C4.53628 92.0415 4.60196 92.0854 4.67427 92.1153C4.74657 92.1452 4.82407 92.1606 4.90232 92.1605H71.4875C71.5657 92.1606 71.6432 92.1452 71.7155 92.1153C71.7878 92.0854 71.8535 92.0415 71.9088 91.9861C71.9641 91.9308 72.0079 91.865 72.0377 91.7927C72.0675 91.7203 72.0828 91.6428 72.0826 91.5645V82.894C72.0828 82.8157 72.0675 82.7382 72.0377 82.6659C72.0079 82.5935 71.9641 82.5278 71.9088 82.4724C71.8535 82.417 71.7878 82.3731 71.7155 82.3432C71.6432 82.3133 71.5657 82.298 71.4875 82.2981H4.90232C4.82407 82.298 4.74657 82.3133 4.67427 82.3432C4.60196 82.3731 4.53628 82.417 4.48099 82.4724C4.4257 82.5278 4.38189 82.5935 4.35207 82.6659C4.32226 82.7382 4.30703 82.8157 4.30725 82.894Z" fill="#EFECF3"/>
<path d="M12.2664 89.1843C13.3972 89.1843 14.3131 88.2598 14.3131 87.1198C14.3131 85.9797 13.3963 85.0553 12.2664 85.0553C11.1366 85.0553 10.2198 85.9797 10.2198 87.1198C10.2198 88.2598 11.1357 89.1843 12.2664 89.1843Z" fill="#BBB7C5"/>
<path d="M12.2656 88.7259C13.1451 88.7259 13.8573 88.0069 13.8573 87.1206C13.8573 86.2344 13.1451 85.5145 12.2656 85.5145C11.3862 85.5145 10.6739 86.2335 10.6739 87.1206C10.6739 88.0077 11.3862 88.7259 12.2656 88.7259ZM67.0758 88.7259C67.9553 88.7259 68.6675 88.0069 68.6675 87.1206C68.6675 86.2344 67.9544 85.5145 67.0758 85.5145C66.1972 85.5145 65.4841 86.2335 65.4841 87.1206C65.4841 88.0077 66.1972 88.7259 67.0758 88.7259Z" fill="#666276"/>
<path d="M64.6191 104.439H22.038C21.5877 104.439 21.1559 104.618 20.8375 104.936C20.5191 105.254 20.3402 105.686 20.3402 106.137V133.492C20.3402 133.942 20.5191 134.374 20.8375 134.693C21.1559 135.011 21.5877 135.19 22.038 135.19H64.6191C65.0694 135.19 65.5012 135.011 65.8196 134.693C66.138 134.374 66.3169 133.942 66.3169 133.492V106.137C66.3169 105.686 66.138 105.254 65.8196 104.936C65.5012 104.618 65.0694 104.439 64.6191 104.439Z" fill="#1F1B2D"/>
<path d="M59.0699 108.929H27.7086C27.4834 108.929 27.2675 109.019 27.1083 109.178C26.9491 109.337 26.8597 109.553 26.8597 109.778V110.218C26.8597 110.443 26.9491 110.659 27.1083 110.818C27.2675 110.977 27.4834 111.067 27.7086 111.067H59.0699C59.2951 111.067 59.511 110.977 59.6702 110.818C59.8294 110.659 59.9188 110.443 59.9188 110.218V109.778C59.9188 109.553 59.8294 109.337 59.6702 109.178C59.511 109.019 59.2951 108.929 59.0699 108.929ZM54.8026 115.339H34.105C33.8798 115.339 33.6639 115.428 33.5047 115.587C33.3455 115.746 33.2561 115.962 33.2561 116.187V116.627C33.2561 116.852 33.3455 117.068 33.5047 117.227C33.6639 117.387 33.8798 117.476 34.105 117.476H54.8026C55.0277 117.476 55.2436 117.387 55.4028 117.227C55.562 117.068 55.6515 116.852 55.6515 116.627V116.187C55.6515 115.962 55.562 115.746 55.4028 115.587C55.2436 115.428 55.0277 115.339 54.8026 115.339ZM56.9375 121.756H30.908C30.6829 121.756 30.467 121.846 30.3078 122.005C30.1486 122.164 30.0592 122.38 30.0592 122.605V123.044C30.0592 123.269 30.1486 123.485 30.3078 123.644C30.467 123.803 30.6829 123.893 30.908 123.893H56.9375C57.1627 123.893 57.3786 123.803 57.5378 123.644C57.697 123.485 57.7864 123.269 57.7864 123.044V122.605C57.7864 122.38 57.697 122.164 57.5378 122.005C57.3786 121.846 57.1627 121.756 56.9375 121.756ZM59.0699 128.165H27.7086C27.4834 128.165 27.2675 128.255 27.1083 128.414C26.9491 128.573 26.8597 128.789 26.8597 129.014V129.454C26.8597 129.679 26.9491 129.895 27.1083 130.054C27.2675 130.213 27.4834 130.303 27.7086 130.303H59.0699C59.2951 130.303 59.511 130.213 59.6702 130.054C59.8294 129.895 59.9188 129.679 59.9188 129.454V129.014C59.9188 128.789 59.8294 128.573 59.6702 128.414C59.511 128.255 59.2951 128.165 59.0699 128.165Z" fill="white"/>
</g>
</g>
<defs>
<clipPath id="clip0_3_307">
<rect width="191" height="151" fill="white"/>
</clipPath>
</defs>
</svg>
